<svg width="201" height="150" viewBox="0 0 201 150" fill="none" xmlns="http://www.w3.org/2000/svg">
<path d="M200.375 131.448H0.375V131.548H200.375V131.448Z" fill="#E0E0E0"/>
<path d="M48.2351 135.684H34.7391V135.784H48.2351V135.684Z" fill="#E0E0E0"/>
<path d="M31.8029 135.732H23.7949V135.832H31.8029V135.732Z" fill="#E0E0E0"/>
<path d="M121.623 133.588H83.707V133.688H121.623V133.588Z" fill="#E0E0E0"/>
<path d="M67.487 138.52H55.399V138.62H67.487V138.52Z" fill="#E0E0E0"/>
<path d="M165.843 134.964H134.375V135.064H165.843V134.964Z" fill="#E0E0E0"/>
<path d="M95.175 113.608H17.939C17.3339 113.607 16.754 113.366 16.3266 112.938C15.8991 112.509 15.659 111.929 15.659 111.324V2.75204C15.6643 2.15045 15.9067 1.57523 16.3336 1.15132C16.7605 0.72742 17.3374 0.489068 17.939 0.488037H95.175C95.7807 0.488037 96.3617 0.728672 96.79 1.15701C97.2184 1.58534 97.459 2.16628 97.459 2.77204V111.324C97.459 111.93 97.2184 112.511 96.79 112.939C96.3617 113.367 95.7807 113.608 95.175 113.608ZM17.939 0.568037C17.3605 0.569097 16.806 0.799663 16.3973 1.20913C15.9885 1.61859 15.759 2.1735 15.759 2.75204V111.324C15.759 111.903 15.9885 112.457 16.3973 112.867C16.806 113.276 17.3605 113.507 17.939 113.508H95.175C95.7539 113.507 96.3088 113.277 96.7181 112.867C97.1275 112.458 97.3579 111.903 97.359 111.324V2.75204C97.3579 2.17313 97.1275 1.61823 96.7181 1.20888C96.3088 0.799533 95.7539 0.569095 95.175 0.568037H17.939Z" fill="#E0E0E0"/>
<path d="M181.699 113.608H104.459C103.854 113.607 103.273 113.366 102.845 112.938C102.417 112.51 102.176 111.929 102.175 111.324V2.75204C102.181 2.15008 102.425 1.57487 102.852 1.15107C103.28 0.727281 103.857 0.489056 104.459 0.488037H181.699C182.3 0.490119 182.876 0.728937 183.302 1.15273C183.728 1.57652 183.97 2.15114 183.975 2.75204V111.324C183.975 111.928 183.735 112.508 183.309 112.936C182.882 113.364 182.303 113.606 181.699 113.608ZM104.459 0.568037C103.88 0.569095 103.325 0.799533 102.916 1.20888C102.506 1.61823 102.276 2.17313 102.275 2.75204V111.324C102.276 111.903 102.506 112.458 102.916 112.867C103.325 113.277 103.88 113.507 104.459 113.508H181.699C182.278 113.507 182.833 113.277 183.242 112.867C183.651 112.458 183.882 111.903 183.883 111.324V2.75204C183.882 2.17313 183.651 1.61823 183.242 1.20888C182.833 0.799533 182.278 0.569095 181.699 0.568037H104.459Z" fill="#E0E0E0"/>
<path d="M168.863 84.8H158.671V131.448H168.863V84.8Z" fill="#E0E0E0"/>
<path d="M166.927 131.448H168.863V125.94H164.899L166.927 131.448Z" fill="#F0F0F0"/>
<path d="M130.775 84.8H120.583V131.448H130.775V84.8Z" fill="#E0E0E0"/>
<path d="M168.863 84.8H129.083V128.068H168.863V84.8Z" fill="#F0F0F0"/>
<path d="M149.623 106.88V121.184H167.363V106.88H149.623Z" fill="#E0E0E0"/>
<path d="M130.587 106.88V121.184H148.327V106.88H130.587Z" fill="#E0E0E0"/>
<path d="M141.211 108.424H137.699C136.945 108.424 136.199 108.27 135.506 107.971C134.814 107.673 134.189 107.236 133.671 106.688H145.239C144.721 107.236 144.097 107.673 143.404 107.971C142.711 108.27 141.965 108.424 141.211 108.424Z" fill="#F0F0F0"/>
<path d="M160.427 108.424H156.919C156.164 108.424 155.417 108.27 154.724 107.971C154.031 107.673 153.406 107.236 152.887 106.688H164.459C163.94 107.236 163.315 107.672 162.621 107.971C161.928 108.269 161.182 108.423 160.427 108.424Z" fill="#F0F0F0"/>
<path d="M149.623 88.056V102.36H167.363V88.056H149.623Z" fill="#E0E0E0"/>
<path d="M130.583 88.06V102.364H148.323V88.06H130.583Z" fill="#E0E0E0"/>
<path d="M141.211 89.6H137.699C136.945 89.5997 136.199 89.4459 135.507 89.1482C134.815 88.8504 134.19 88.4149 133.671 87.868H145.239C144.72 88.4149 144.096 88.8504 143.403 89.1482C142.711 89.4459 141.965 89.5997 141.211 89.6Z" fill="#F0F0F0"/>
<path d="M160.427 89.6H156.919C156.165 89.5998 155.418 89.4461 154.725 89.1483C154.032 88.8506 153.406 88.415 152.887 87.868H164.459C163.939 88.4146 163.314 88.85 162.621 89.1477C161.928 89.4454 161.181 89.5993 160.427 89.6Z" fill="#F0F0F0"/>
<path d="M131.019 131.448H129.083V125.94H133.051L131.019 131.448Z" fill="#F0F0F0"/>
<path d="M138.923 77.492C138.923 79.276 140.163 80.516 138.379 80.516C136.595 80.516 132.467 79.276 132.467 77.492C132.467 76.6359 132.807 75.8149 133.412 75.2095C134.018 74.6041 134.839 74.264 135.695 74.264C136.551 74.264 137.372 74.6041 137.978 75.2095C138.583 75.8149 138.923 76.6359 138.923 77.492Z" fill="#E0E0E0"/>
<path d="M144.447 79.0321C144.447 80.8121 145.687 82.0561 143.903 82.0561C142.119 82.0561 137.975 80.8121 137.975 79.0321C137.975 78.176 138.315 77.3549 138.92 76.7495C139.526 76.1442 140.347 75.8041 141.203 75.8041C142.059 75.8041 142.88 76.1442 143.486 76.7495C144.091 77.3549 144.431 78.176 144.431 79.0321H144.447Z" fill="#E0E0E0"/>
<path d="M149.739 78.088C149.739 79.868 150.979 81.112 149.195 81.112C147.411 81.112 143.283 79.868 143.283 78.088C143.283 77.2319 143.623 76.4108 144.228 75.8054C144.834 75.2001 145.655 74.86 146.511 74.86C147.367 74.86 148.188 75.2001 148.794 75.8054C149.399 76.4108 149.739 77.2319 149.739 78.088Z" fill="#E0E0E0"/>
<path d="M130.491 78.488C130.491 78.488 130.755 84.784 140.871 84.784C150.987 84.784 151.247 78.488 151.247 78.488H130.491Z" fill="#E6E6E6"/>
<path d="M169.287 8.08398H117.995V64.844H169.287V8.08398Z" fill="#E0E0E0"/>
<path d="M174.775 6.33205H114.675C114.608 6.33152 114.542 6.34427 114.479 6.36956C114.417 6.39486 114.361 6.43219 114.313 6.47942C114.266 6.52664 114.228 6.58282 114.202 6.64471C114.176 6.70661 114.163 6.773 114.163 6.84005C114.163 6.97584 114.217 7.10607 114.313 7.20208C114.409 7.2981 114.539 7.35205 114.675 7.35205H174.775C174.842 7.35205 174.909 7.33878 174.97 7.313C175.032 7.28722 175.088 7.24944 175.136 7.20185C175.183 7.15425 175.22 7.09777 175.246 7.03568C175.271 6.97358 175.284 6.90709 175.283 6.84005C175.283 6.70532 175.23 6.5761 175.134 6.48084C175.039 6.38557 174.91 6.33205 174.775 6.33205Z" fill="#E0E0E0"/>
<path d="M171.463 8.08398H119.011V64.844H171.463V8.08398Z" fill="#E6E6E6"/>
<path d="M169.287 64.844H117.995V68.888H169.287V64.844Z" fill="#E0E0E0"/>
<path d="M175.087 64.844H122.635V68.888H175.087V64.844Z" fill="#E6E6E6"/>
<path d="M168.415 61.7921V11.1281L122.059 11.1281V61.7921H168.415Z" fill="#F5F5F5"/>
<path d="M132.583 61.7961L150.467 11.1321H158.907L141.023 61.7961H132.583Z" fill="#FAFAFA"/>
<path d="M142.835 61.7961L160.719 11.1321H164.011L146.127 61.7961H142.835Z" fill="#FAFAFA"/>
<path d="M168.415 61.7961V11.1321H168.027V61.7961H168.415Z" fill="#E0E0E0"/>
<path d="M122.095 5.42004H116.851V54.308H122.095V5.42004Z" fill="#EBEBEB"/>
<path d="M124.135 5.42004H120.051V54.308H124.135V5.42004Z" fill="#E0E0E0"/>
<path d="M127.339 5.42004H122.095V54.308H127.339V5.42004Z" fill="#EBEBEB"/>
<path d="M129.379 5.42004H125.295V54.308H129.379V5.42004Z" fill="#E0E0E0"/>
<path d="M132.583 5.42004H127.339V54.308H132.583V5.42004Z" fill="#EBEBEB"/>
<path d="M166.463 5.42004H163.443V54.308H166.463V5.42004Z" fill="#EBEBEB"/>
<path d="M167.643 5.42004H165.287V54.308H167.643V5.42004Z" fill="#E0E0E0"/>
<path d="M169.483 5.42004H166.463V54.308H169.483V5.42004Z" fill="#EBEBEB"/>
<path d="M170.663 5.42004H168.307V54.308H170.663V5.42004Z" fill="#E0E0E0"/>
<path d="M172.507 5.42004H169.487V54.308H172.507V5.42004Z" fill="#EBEBEB"/>
<path d="M44.523 20.744H39.059V35.652H44.523V20.744Z" fill="#E6E6E6"/>
<path d="M31.5911 39.0641L29.8551 43.8001H31.5911L42.2151 39.0641H31.5911Z" fill="#F0F0F0"/>
<path d="M29.8551 39.0641V43.8001L40.4831 39.0641H29.8551Z" fill="#E0E0E0"/>
<path d="M73.2551 39.0641L71.5231 43.8001H73.2551L83.8831 39.0641H73.2551Z" fill="#F0F0F0"/>
<path d="M71.5231 39.0641V43.8001L82.1471 39.0641H71.5231Z" fill="#E0E0E0"/>
<path d="M22.0591 39.2881H33.6151V35.6841H22.0591V39.2881Z" fill="#E0E0E0"/>
<path d="M91.063 35.6841H33.611V39.2881H91.063V35.6841Z" fill="#F0F0F0"/>
<path d="M53.6229 35.652H40.3229L38.6789 17.584H51.9789L53.6229 35.652Z" fill="#E0E0E0"/>
<path d="M54.311 35.652H41.015L39.367 17.584H52.667L54.311 35.652Z" fill="#F0F0F0"/>
<path d="M42.831 33.652L41.551 19.584H50.851L52.131 33.652H42.831Z" fill="#FAFAFA"/>
<path d="M59.6789 29.7841C59.6789 29.7841 59.9229 35.6521 69.3509 35.6521C78.7789 35.6521 79.0229 29.7841 79.0229 29.7841H59.6789Z" fill="#E6E6E6"/>
<path d="M49.879 130.152H35.307C34.977 130.159 34.6537 130.059 34.3846 129.868C34.1155 129.677 33.9149 129.405 33.8123 129.091C33.7097 128.778 33.7105 128.439 33.8147 128.126C33.9189 127.813 34.1209 127.542 34.391 127.352L34.627 127.672C34.435 127.816 34.293 128.016 34.221 128.245C34.1491 128.473 34.1508 128.719 34.2259 128.947C34.3011 129.174 34.4459 129.373 34.6399 129.514C34.8338 129.654 35.0672 129.731 35.307 129.732H49.879C50.7719 129.731 51.6279 129.376 52.2593 128.744C52.8907 128.113 53.2459 127.257 53.247 126.364V83.24C53.248 82.2682 53.6343 81.3365 54.3211 80.6489C55.0078 79.9614 55.9392 79.5741 56.911 79.572H61.271V79.972H56.911C56.0453 79.9741 55.2157 80.3192 54.6039 80.9318C53.9921 81.5443 53.648 82.3743 53.647 83.24V126.384C53.6449 127.383 53.2472 128.34 52.541 129.046C51.8348 129.752 50.8777 130.15 49.879 130.152Z" fill="#E0E0E0"/>
<path d="M98.5549 80.396H72.3109V131.448H98.5549V80.396Z" fill="#E0E0E0"/>
<path d="M99.5429 80.396H97.3789V131.448H99.5429V80.396Z" fill="#EBEBEB"/>
<path d="M48.0269 84.224H100.211V80.396H48.0269V84.224Z" fill="#EBEBEB"/>
<path d="M47.7151 80.396H21.4711V131.448H47.7151V80.396Z" fill="#E0E0E0"/>
<path d="M48.699 80.396H46.535V131.448H48.699V80.396Z" fill="#EBEBEB"/>
<path d="M39.5869 65.156H64.0429L67.5869 79.596H43.1309L39.5869 65.156Z" fill="#E0E0E0"/>
<path d="M43.131 79.5961L43.231 80.3961H67.687L67.591 79.5961H43.131Z" fill="#E0E0E0"/>
<path d="M40.343 65.156H64.799L68.343 79.596H43.887L40.343 65.156Z" fill="#F0F0F0"/>
<path d="M44.403 78.936L41.183 65.816H64.279L67.499 78.936H44.403Z" fill="#FAFAFA"/>
<path d="M50.259 79.5961L50.355 80.3961H77.287L77.187 79.5961H50.259Z" fill="#F0F0F0"/>
<path d="M31.2029 76.7561C31.2029 76.7561 27.6029 70.5521 32.5989 65.6121C32.5989 65.6121 33.8989 66.4641 33.8789 67.6121C33.8589 68.7601 32.4869 69.0441 32.7789 70.0121C33.0709 70.9801 34.3789 71.9001 33.5229 72.6881C32.6669 73.4761 33.6589 74.1761 33.6029 75.1441C33.5469 76.1121 31.2029 76.7561 31.2029 76.7561Z" fill="#F0F0F0"/>
<path d="M31.4749 77.324C31.4749 77.324 32.9349 70.3 26.6389 67.188C26.6389 67.188 25.6709 68.408 26.0509 69.484C26.4309 70.56 27.8269 70.4 27.8469 71.4C27.8669 72.4 26.9269 73.692 27.9869 74.172C29.0469 74.652 28.3229 75.628 28.6829 76.524C29.0429 77.42 31.4749 77.324 31.4749 77.324Z" fill="#F0F0F0"/>
<path d="M25.975 75.7681C25.975 75.7681 26.095 80.3961 30.683 80.3961C35.271 80.3961 35.379 75.7681 35.379 75.7681H25.975Z" fill="#E0E0E0"/>
<path d="M90.671 131.448H89.759L87.147 118.584L86.691 116.332L83.843 102.332H72.927L67.011 131.448H66.099L72.127 101.776C72.1466 101.675 72.201 101.584 72.2806 101.519C72.3603 101.454 72.4602 101.419 72.563 101.42H84.207C84.3098 101.419 84.4097 101.454 84.4894 101.519C84.569 101.584 84.6234 101.675 84.643 101.776L87.143 114.088L87.603 116.34L90.671 131.448Z" fill="#EBEBEB"/>
<path d="M108.195 131.448H107.279L101.363 102.316H90.451L87.6031 116.34L87.147 118.584L84.535 131.448H83.623L86.691 116.332L87.143 114.088L89.647 101.776C89.6667 101.675 89.721 101.584 89.8007 101.519C89.8803 101.454 89.9802 101.419 90.0831 101.42H101.727C101.83 101.42 101.93 101.455 102.01 101.52C102.091 101.585 102.146 101.675 102.167 101.776L108.195 131.448Z" fill="#EBEBEB"/>
<path d="M81.291 101.868H101.347C103.187 101.866 104.953 101.144 106.267 99.8557C107.581 98.5674 108.337 96.8157 108.375 94.9761L109.123 64.4961C109.134 63.8166 109.009 63.1419 108.757 62.511C108.504 61.8801 108.129 61.3056 107.652 60.8211C107.176 60.3365 106.608 59.9514 105.982 59.6883C105.355 59.4251 104.683 59.2891 104.003 59.2881H91.431C90.1726 59.2887 88.9583 59.7521 88.0193 60.59C87.0804 61.4279 86.4823 62.5818 86.339 63.8321L81.291 101.868Z" fill="#E6E6E6"/>
<path d="M92.2269 101.868H70.8549C70.5897 101.868 70.3354 101.763 70.1478 101.575C69.9603 101.388 69.8549 101.133 69.8549 100.868V100.772C69.8549 100.043 70.1444 99.3443 70.6598 98.8289C71.1751 98.3136 71.8741 98.024 72.6029 98.024H92.2269V101.868Z" fill="#E6E6E6"/>
<path d="M100.375 149.512C143.208 149.512 177.931 147.485 177.931 144.984C177.931 142.483 143.208 140.456 100.375 140.456C57.542 140.456 22.819 142.483 22.819 144.984C22.819 147.485 57.542 149.512 100.375 149.512Z" fill="#F5F5F5"/>
<path d="M110.951 46.8161L111.211 47.0361C111.307 47.1201 111.415 47.2001 111.519 47.2801C111.727 47.4441 111.919 47.6081 112.159 47.7641C112.591 48.0801 113.051 48.3681 113.511 48.6561C114.439 49.2281 115.412 49.7244 116.419 50.1401C117.423 50.5677 118.456 50.9206 119.511 51.1961C119.775 51.2681 120.047 51.3161 120.311 51.3761L120.711 51.4641C120.795 51.4641 120.711 51.4641 120.711 51.4841C120.657 51.4969 120.605 51.52 120.559 51.5521C120.523 51.5881 120.523 51.5881 120.539 51.5801C120.618 51.4629 120.68 51.3349 120.723 51.2001C120.865 50.7386 120.952 50.262 120.983 49.7801C121.031 49.2561 121.047 48.7041 121.043 48.1481C121.043 47.0321 120.955 45.8921 120.867 44.7481C120.779 43.6041 120.639 42.4561 120.491 41.3041C120.343 40.1521 120.179 39.0001 120.007 37.8641L121.511 37.5201C122.174 39.8032 122.708 42.1214 123.111 44.4641C123.321 45.6555 123.466 46.8572 123.547 48.0641C123.594 48.687 123.609 49.3118 123.591 49.9361C123.586 50.6254 123.498 51.3115 123.331 51.9801C123.218 52.4077 123.034 52.8134 122.787 53.1801C122.614 53.4302 122.399 53.6481 122.151 53.8241C121.867 54.0275 121.54 54.1642 121.195 54.2241C120.899 54.2741 120.596 54.2741 120.299 54.2241L119.839 54.1481C119.531 54.0961 119.219 54.0561 118.915 53.9881C117.689 53.7446 116.485 53.3994 115.315 52.9561C114.146 52.5076 113.016 51.9645 111.935 51.3321C111.395 51.0081 110.867 50.6681 110.355 50.2961C110.099 50.1121 109.847 49.8961 109.595 49.7201C109.471 49.6161 109.347 49.5161 109.223 49.4041C109.099 49.2921 108.983 49.2001 108.823 49.0481L110.951 46.8161Z" fill="#E4897B"/>
<path d="M106.603 44.9961C111.003 44.4001 114.539 47.9481 114.539 47.9481L110.515 54.1561C110.515 54.1561 106.203 51.3961 105.443 49.5161C104.659 47.5601 104.351 45.2881 106.603 44.9961Z" fill="#FA1239"/>
<path opacity="0.6" d="M106.603 44.9961C111.003 44.4001 114.539 47.9481 114.539 47.9481L110.515 54.1561C110.515 54.1561 106.203 51.3961 105.443 49.5161C104.659 47.5601 104.351 45.2881 106.603 44.9961Z" fill="#FAFAFA"/>
<path d="M120.043 38.4041L118.583 35.4761L122.411 35.4441C122.411 35.4441 122.487 37.4881 121.519 38.6441L120.043 38.4041Z" fill="#E4897B"/>
<path d="M119.263 32.3281L122.111 32.8361L122.411 35.4441L118.583 35.4761L119.263 32.3281Z" fill="#E4897B"/>
<path d="M91.0433 141.636L94.6273 141.98L97.1073 133.564L93.5233 133.216L91.0433 141.636Z" fill="#E4897B"/>
<path d="M68.2552 129.188L70.9112 131.684L76.6472 125.38L73.9912 122.884L68.2552 129.188Z" fill="#E4897B"/>
<path d="M72.1393 130.488L70.1393 126.888C70.1053 126.826 70.0501 126.779 69.984 126.755C69.9178 126.73 69.8451 126.731 69.7793 126.756L66.7033 127.924C66.6271 127.957 66.5586 128.005 66.5023 128.066C66.446 128.127 66.4031 128.198 66.3763 128.277C66.3495 128.355 66.3395 128.438 66.3469 128.521C66.3543 128.604 66.379 128.684 66.4193 128.756C67.1353 129.996 67.5473 130.56 68.4193 132.14C68.9593 133.116 70.0193 135.34 70.7593 136.692C71.4993 138.044 72.8713 137.368 72.6833 136.744C71.8273 133.944 71.9913 132.372 72.2313 131.144C72.2794 130.921 72.2468 130.689 72.1393 130.488Z" fill="#263238"/>
<path d="M95.0473 140.888H90.7033C90.6256 140.889 90.5503 140.915 90.4889 140.963C90.4275 141.011 90.3834 141.077 90.3633 141.152L89.4153 144.588C89.393 144.669 89.3898 144.755 89.4062 144.838C89.4225 144.92 89.4579 144.998 89.5095 145.065C89.5611 145.132 89.6275 145.185 89.7035 145.222C89.7795 145.259 89.8629 145.277 89.9473 145.276C91.4793 145.276 92.2033 145.276 94.1153 145.276H99.9513C101.551 145.276 101.871 143.676 101.215 143.524C98.2713 142.876 96.5713 141.976 95.6633 141.124C95.495 140.971 95.275 140.886 95.0473 140.888Z" fill="#263238"/>
<path d="M97.1072 133.564L95.8272 137.904H92.1392L93.5192 133.22L97.1072 133.564Z" fill="#CE6F64"/>
<path d="M73.9872 122.888L76.6472 125.38L73.6872 128.628L71.0312 126.136L73.9872 122.888Z" fill="#CE6F64"/>
<path d="M110.939 42.5121C110.911 39.6041 108.279 38.5881 108.279 38.5881C108.279 38.5881 111.571 32.3561 109.879 28.2201C108.187 24.0841 102.611 23.3561 100.843 25.2881C97.7354 25.1561 96.7474 29.6201 96.7474 29.6201C96.7474 29.6201 94.1474 30.0561 93.4474 31.9481C92.7474 33.8401 94.8794 35.9721 94.8794 35.9721C94.8794 35.9721 91.9114 36.3721 90.8194 38.6561C89.7274 40.9401 90.3994 43.9721 93.6794 46.5881C98.4474 50.3881 107.211 45.6201 107.211 45.6201C107.211 45.6201 110.971 45.8561 110.939 42.5121Z" fill="#263238"/>
<path d="M110.375 45.4041C110.375 45.4041 111.975 46.1041 106.631 67.2121L91.8313 65.9282C92.5993 59.9282 92.9313 56.2002 91.1193 43.5762C93.2309 43.3264 95.3579 43.2315 97.4833 43.2921C99.7369 43.3261 101.985 43.5199 104.211 43.8722C106.29 44.2795 108.348 44.7908 110.375 45.4041Z" fill="#FA1239"/>
<path opacity="0.6" d="M110.375 45.4041C110.375 45.4041 111.975 46.1041 106.631 67.2121L91.8313 65.9282C92.5993 59.9282 92.9313 56.2002 91.1193 43.5762C93.2309 43.3264 95.3579 43.2315 97.4833 43.2921C99.7369 43.3261 101.985 43.5199 104.211 43.8722C106.29 44.2795 108.348 44.7908 110.375 45.4041Z" fill="#FAFAFA"/>
<path d="M106.539 44.3721C105.771 44.1881 104.939 44.0121 104.179 43.8721C101.953 43.5185 99.7048 43.3234 97.4512 43.2881C96.6792 43.2601 95.9072 43.2601 95.1832 43.2881L95.6792 44.2321C95.7672 44.4001 97.8792 48.3401 101.891 50.5761L102.995 51.1921L104.023 50.4601C106.615 48.6081 106.999 46.2001 106.539 44.3721Z" fill="#FAFAFA"/>
<path d="M98.7753 35.7721C99.0113 37.9761 99.0913 41.9801 97.4553 43.2921C97.4553 43.2921 99.3273 46.8481 102.871 48.8201C106.007 46.5881 104.183 43.8721 104.183 43.8721C101.819 43.0721 102.035 41.3041 102.583 39.6561L98.7753 35.7721Z" fill="#E4897B"/>
<path d="M100.331 37.3561L102.595 39.6561C102.457 40.0383 102.353 40.4318 102.283 40.8321C101.375 40.6201 100.055 39.6721 100.039 38.6961C100.057 38.2358 100.156 37.7822 100.331 37.3561Z" fill="#CE6F64"/>
<path d="M98.6793 30.7721C98.2433 34.3721 97.9833 35.8961 99.4513 38.0601C101.659 41.3081 106.187 41.0521 107.687 37.6601C109.039 34.5961 109.523 29.2121 106.287 27.1521C105.578 26.6955 104.763 26.4275 103.921 26.3736C103.079 26.3198 102.238 26.4818 101.476 26.8443C100.714 27.2068 100.057 27.7579 99.5676 28.4452C99.0783 29.1326 98.7725 29.9335 98.6793 30.7721Z" fill="#E4897B"/>
<path d="M101.471 26.3361C104.251 27.0561 101.503 35.5121 97.0713 33.0601C97.0713 33.0601 97.2713 29.4881 98.5033 27.9721C99.2484 27.0689 100.31 26.4838 101.471 26.3361Z" fill="#263238"/>
<path d="M101.175 26.8041C102.375 28.7561 111.275 32.4561 108.283 28.2561C105.291 24.0561 101.175 26.8041 101.175 26.8041Z" fill="#263238"/>
<path d="M97.5353 33.8881C97.4853 34.5894 97.7139 35.2822 98.1713 35.8161C98.7873 36.5161 99.5993 36.0921 99.8553 35.2441C100.083 34.4841 100.039 33.2041 99.2193 32.8121C99.0383 32.7323 98.8404 32.6985 98.6432 32.7136C98.446 32.7287 98.2556 32.7924 98.0889 32.8989C97.9223 33.0054 97.7845 33.1514 97.6879 33.324C97.5913 33.4966 97.5389 33.6904 97.5353 33.8881Z" fill="#E4897B"/>
<path d="M106.615 67.2121C106.615 67.2121 111.627 89.3881 108.283 105.02C106.043 115.492 97.9592 136.644 97.9592 136.644L91.6392 136.484C91.6392 136.484 97.7552 114.284 99.0232 105.556C101.187 90.6201 95.7672 66.2721 95.7672 66.2721L106.615 67.2121Z" fill="#263238"/>
<path d="M100.835 71.6881L97.6752 76.6721C98.6276 82.5821 99.2313 88.5431 99.4832 94.5241C103.927 86.5681 101.823 75.9001 100.835 71.6881Z" fill="#263238"/>
<path d="M98.4793 136.972L90.6713 136.772L91.1233 134.376L99.6473 134.78L98.4793 136.972Z" fill="#FA1239"/>
<path opacity="0.6" d="M98.4793 136.972L90.6713 136.772L91.1233 134.376L99.6473 134.78L98.4793 136.972Z" fill="#FAFAFA"/>
<path d="M103.375 66.9721C103.375 66.9721 100.435 90.4921 94.0593 103.332C88.9113 113.688 75.1753 128.488 75.1753 128.488L71.6633 124.868C71.6633 124.868 80.9433 108.824 84.7713 101.932C94.1553 85.0401 86.4833 72.1521 91.8033 65.9321L103.375 66.9721Z" fill="#263238"/>
<path d="M75.5272 128.952L70.9912 124.532L72.4992 122.484L77.4392 127.592L75.5272 128.952Z" fill="#FA1239"/>
<path opacity="0.6" d="M75.5272 128.952L70.9912 124.532L72.4992 122.484L77.4392 127.592L75.5272 128.952Z" fill="#FAFAFA"/>
<path d="M91.6512 65.0401L90.8712 66.3081C90.8072 66.4081 90.9232 66.5241 91.0912 66.5361L106.631 67.8801C106.767 67.8801 106.883 67.8361 106.899 67.7521L107.147 66.4401C107.147 66.3481 107.055 66.2601 106.907 66.2481L91.9032 64.9481C91.8568 64.9403 91.8092 64.9447 91.7651 64.9608C91.7209 64.977 91.6817 65.0043 91.6512 65.0401Z" fill="#FA1239"/>
<path opacity="0.3" d="M91.6512 65.0401L90.8712 66.3081C90.8072 66.4081 90.9232 66.5241 91.0912 66.5361L106.631 67.8801C106.767 67.8801 106.883 67.8361 106.899 67.7521L107.147 66.4401C107.147 66.3481 107.055 66.2601 106.907 66.2481L91.9032 64.9481C91.8568 64.9403 91.8092 64.9447 91.7651 64.9608C91.7209 64.977 91.6817 65.0043 91.6512 65.0401Z" fill="black"/>
<path d="M93.5233 66.8881L93.1233 66.8521C93.0433 66.8521 92.9873 66.8001 92.9953 66.7481L93.3353 65.0441C93.3353 64.9921 93.4193 64.9561 93.4993 64.9641L93.8993 65.0001C93.9793 65.0001 94.0353 65.0521 94.0273 65.1041L93.6913 66.8081C93.6753 66.8641 93.6033 66.8881 93.5233 66.8881Z" fill="#263238"/>
<path d="M105.491 67.9281L105.091 67.892C105.011 67.892 104.955 67.84 104.963 67.788L105.303 66.08C105.303 66.032 105.387 65.996 105.467 66.004L105.867 66.0401C105.947 66.0401 106.003 66.0921 105.995 66.1401L105.659 67.848C105.643 67.9 105.575 67.9321 105.491 67.9281Z" fill="#263238"/>
<path d="M99.5073 67.4081L99.1073 67.3761C99.0273 67.3761 98.9713 67.3201 98.9793 67.2721L99.3193 65.5641C99.3193 65.5161 99.4033 65.4801 99.4833 65.4881L99.8833 65.5201C99.9633 65.5201 100.019 65.5761 100.011 65.6241L99.6753 67.3321C99.6593 67.3801 99.5753 67.4161 99.5073 67.4081Z" fill="#263238"/>
<path d="M103.907 32.7601C103.855 33.0481 103.967 33.3121 104.155 33.3481C104.343 33.3841 104.555 33.1761 104.595 32.8841C104.635 32.5921 104.539 32.3281 104.347 32.2961C104.155 32.2641 103.975 32.4881 103.907 32.7601Z" fill="#263238"/>
<path d="M107.175 33.3601C107.123 33.6481 107.235 33.9121 107.423 33.9481C107.611 33.9841 107.823 33.7761 107.863 33.4841C107.903 33.1921 107.807 32.9281 107.615 32.8961C107.423 32.8641 107.247 33.0681 107.175 33.3601Z" fill="#263238"/>
<path d="M107.547 32.888L108.279 32.816C108.279 32.816 107.823 33.288 107.547 32.888Z" fill="#263238"/>
<path d="M106.231 33.6881C106.371 34.398 106.607 35.0856 106.931 35.7321C106.763 35.8104 106.58 35.851 106.395 35.851C106.21 35.851 106.027 35.8104 105.859 35.7321L106.231 33.6881Z" fill="#DE5753"/>
<path d="M104.643 36.6921C104.253 36.6317 103.883 36.4784 103.564 36.2452C103.245 36.0121 102.987 35.7058 102.811 35.3521C102.805 35.3346 102.805 35.3152 102.813 35.298C102.82 35.2809 102.834 35.2673 102.851 35.2601C102.86 35.2562 102.869 35.254 102.878 35.2537C102.887 35.2534 102.896 35.255 102.905 35.2583C102.914 35.2617 102.921 35.2668 102.928 35.2733C102.935 35.2798 102.94 35.2876 102.943 35.2961C103.112 35.6258 103.356 35.911 103.655 36.1286C103.955 36.3461 104.302 36.4899 104.667 36.5481C104.686 36.5481 104.705 36.5557 104.718 36.5692C104.732 36.5827 104.739 36.601 104.739 36.6201C104.739 36.6392 104.732 36.6576 104.718 36.6711C104.705 36.6846 104.686 36.6921 104.667 36.6921H104.643Z" fill="#263238"/>
<path d="M103.127 30.4881C103.097 30.4887 103.067 30.4795 103.042 30.4619C103.017 30.4443 102.998 30.4193 102.988 30.3903C102.978 30.3613 102.978 30.33 102.987 30.3008C102.996 30.2717 103.015 30.2462 103.039 30.2281C103.25 30.0584 103.498 29.9418 103.764 29.8882C104.029 29.8346 104.303 29.8455 104.563 29.9201C104.581 29.9264 104.598 29.9361 104.612 29.9488C104.626 29.9614 104.637 29.9767 104.645 29.9938C104.654 30.0109 104.658 30.0295 104.659 30.0484C104.66 30.0673 104.658 30.0862 104.651 30.1041C104.645 30.122 104.635 30.1384 104.623 30.1525C104.61 30.1666 104.595 30.1781 104.577 30.1863C104.56 30.1945 104.542 30.1992 104.523 30.2002C104.504 30.2012 104.485 30.1984 104.467 30.1921C104.253 30.1331 104.027 30.1263 103.809 30.1722C103.591 30.2181 103.388 30.3155 103.215 30.4561C103.19 30.4753 103.159 30.4864 103.127 30.4881Z" fill="#263238"/>
<path d="M109.047 32.2561C109.026 32.256 109.005 32.2513 108.986 32.2423C108.966 32.2334 108.949 32.2203 108.935 32.2041C108.799 32.0279 108.622 31.8864 108.421 31.7912C108.219 31.696 107.998 31.6497 107.775 31.6561C107.737 31.6595 107.699 31.6481 107.669 31.6243C107.64 31.6004 107.62 31.566 107.615 31.5281C107.613 31.5094 107.615 31.4904 107.62 31.4723C107.625 31.4543 107.634 31.4374 107.646 31.4229C107.658 31.4083 107.673 31.3963 107.689 31.3876C107.706 31.3788 107.724 31.3736 107.743 31.3721C108.014 31.3582 108.284 31.4098 108.531 31.5226C108.777 31.6354 108.993 31.8061 109.159 32.0201C109.185 32.0476 109.2 32.0841 109.2 32.1221C109.2 32.1601 109.185 32.1966 109.159 32.2241C109.127 32.2485 109.087 32.2599 109.047 32.2561Z" fill="#263238"/>
<path d="M92.2113 48.8882C91.6097 50.0818 90.942 51.2409 90.2113 52.3602C89.4913 53.4642 88.7313 54.5442 87.9113 55.5842C87.0827 56.6279 86.1946 57.6228 85.2513 58.5642C84.7633 59.0242 84.2873 59.4922 83.7633 59.9242L83.3633 60.2522L83.2673 60.3322L83.1393 60.4322C83.0549 60.501 82.9668 60.5651 82.8753 60.6242C82.5116 60.8733 82.116 61.0724 81.6993 61.2162C80.9144 61.4721 80.0851 61.5634 79.2633 61.4842C78.5271 61.4105 77.8022 61.2508 77.1033 61.0082C75.8086 60.5564 74.5741 59.9479 73.4273 59.1962C71.2208 57.7649 69.1884 56.0815 67.3713 54.1802L68.4353 53.0642C69.3913 53.8322 70.3993 54.5962 71.4313 55.2882C72.4421 55.9962 73.4947 56.6427 74.5833 57.2242C75.6197 57.7935 76.7139 58.2508 77.8473 58.5882C78.9273 58.8882 80.0113 58.9402 80.7593 58.6282C81.1819 58.4444 81.5599 58.1715 81.8673 57.8282C82.3113 57.4282 82.7233 56.9842 83.1433 56.5522C83.9633 55.6602 84.7233 54.7042 85.4713 53.7522C86.2193 52.8002 86.8953 51.7522 87.5513 50.7122C87.8833 50.1922 88.1993 49.6642 88.5113 49.1362C88.8233 48.6082 89.1233 48.0522 89.3833 47.5562L92.2113 48.8882Z" fill="#E4897B"/>
<path d="M69.4473 53.5401L68.0233 50.5961L65.6553 53.6041C65.6553 53.6041 67.2233 54.9121 68.7473 54.8641L69.4473 53.5401Z" fill="#E4897B"/>
<path d="M66.4673 49.7361L65.1273 52.3001L65.6553 53.6041L68.0233 50.5961L66.4673 49.7361Z" fill="#E4897B"/>
<path d="M91.0872 43.5761C89.2712 43.8961 86.7232 49.1081 86.7232 49.1081L91.7112 53.6161C91.7112 53.6161 94.9432 49.2761 94.7512 46.9081C94.5872 44.8881 93.3992 43.1681 91.0872 43.5761Z" fill="#FA1239"/>
<path opacity="0.6" d="M91.0872 43.5761C89.2712 43.8961 86.7232 49.1081 86.7232 49.1081L91.7112 53.6161C91.7112 53.6161 94.9432 49.2761 94.7512 46.9081C94.5872 44.8881 93.3992 43.1681 91.0872 43.5761Z" fill="#FAFAFA"/>
<path d="M72.8394 132.42C72.7916 132.42 72.7442 132.412 72.6994 132.396C72.2634 132.252 71.9794 131.448 71.8474 130.98C71.8434 130.966 71.8436 130.952 71.8479 130.938C71.8522 130.925 71.8603 130.913 71.8714 130.904C71.8835 130.897 71.8973 130.893 71.9114 130.893C71.9254 130.893 71.9392 130.897 71.9514 130.904C72.0834 130.972 73.2434 131.596 73.2794 132.052C73.2848 132.102 73.2761 132.153 73.2541 132.198C73.2322 132.243 73.198 132.281 73.1554 132.308C73.0653 132.379 72.9542 132.419 72.8394 132.42ZM72.0394 131.108C72.2394 131.752 72.4994 132.176 72.7474 132.26C72.8039 132.277 72.8639 132.279 72.9214 132.265C72.9789 132.252 73.032 132.224 73.0754 132.184C73.0972 132.171 73.1149 132.152 73.1262 132.129C73.1376 132.107 73.1421 132.081 73.1394 132.056C73.1154 131.776 72.4354 131.332 72.0354 131.108H72.0394Z" fill="#FA1239"/>
<path d="M73.0192 131.288C72.6238 131.287 72.2339 131.195 71.8792 131.02C71.868 131.015 71.8587 131.006 71.8523 130.995C71.8459 130.985 71.8427 130.973 71.8432 130.96C71.8433 130.947 71.8471 130.934 71.8541 130.922C71.8612 130.911 71.8713 130.902 71.8832 130.896C71.9192 130.896 72.8392 130.372 73.3352 130.548C73.3962 130.568 73.4519 130.601 73.4983 130.646C73.5447 130.69 73.5806 130.744 73.6032 130.804C73.6348 130.862 73.6457 130.929 73.634 130.993C73.6224 131.058 73.5889 131.117 73.5392 131.16C73.3845 131.258 73.2018 131.303 73.0192 131.288ZM72.0752 130.96C72.4752 131.128 73.2312 131.232 73.4472 131.048C73.4832 131.02 73.5152 130.968 73.4712 130.856C73.4553 130.816 73.4305 130.779 73.3987 130.749C73.3668 130.719 73.3287 130.697 73.2872 130.684C72.9472 130.564 72.3352 130.832 72.0752 130.96Z" fill="#FA1239"/>
<path d="M96.9753 141.592C96.5711 141.583 96.169 141.532 95.7753 141.44C95.7603 141.437 95.7469 141.429 95.7368 141.417C95.7267 141.406 95.7206 141.391 95.7193 141.376C95.7171 141.361 95.7199 141.346 95.7271 141.333C95.7344 141.32 95.7456 141.31 95.7593 141.304C95.9393 141.22 97.5113 140.504 97.9113 140.76C97.947 140.785 97.9754 140.819 97.9937 140.858C98.012 140.897 98.0194 140.941 98.0153 140.984C98.0105 141.062 97.9887 141.139 97.9514 141.208C97.9141 141.277 97.8622 141.337 97.7993 141.384C97.5518 141.535 97.2646 141.607 96.9753 141.592ZM96.0393 141.344C96.5073 141.432 97.3713 141.544 97.7273 141.276C97.7743 141.241 97.8131 141.196 97.8407 141.144C97.8684 141.092 97.8843 141.035 97.8873 140.976C97.8896 140.958 97.8872 140.94 97.8801 140.923C97.8731 140.906 97.8618 140.891 97.8473 140.88C97.6233 140.728 96.6913 141.056 96.0393 141.344Z" fill="#FA1239"/>
<path d="M95.8073 141.44C95.7919 141.446 95.7747 141.446 95.7593 141.44C95.7493 141.431 95.7419 141.42 95.7377 141.407C95.7335 141.395 95.7326 141.381 95.7353 141.368C95.7353 141.304 96.1113 139.748 96.9633 139.848C97.1793 139.872 97.2353 139.98 97.2473 140.064C97.3033 140.464 96.3073 141.264 95.8353 141.452L95.8073 141.44ZM96.8873 139.972C96.3393 139.972 96.0233 140.876 95.9153 141.24C96.4313 140.968 97.1393 140.32 97.1153 140.068C97.1153 140.048 97.1153 139.992 96.9593 139.976L96.8873 139.972Z" fill="#FA1239"/>
<path d="M104.263 32.2961L104.995 32.2201C104.995 32.2201 104.539 32.7001 104.263 32.2961Z" fill="#263238"/>
<path opacity="0.6" d="M74.1713 9.50012L62.4473 85.2881L128.415 95.4801L140.139 19.6881L74.1713 9.50012ZM101.275 52.6081C98.2473 52.1395 95.4265 50.7833 93.1695 48.7111C90.9125 46.6389 89.3209 43.9439 88.5959 40.9669C87.8709 37.99 88.0453 34.8649 89.0968 31.987C90.1483 29.1091 92.0298 26.6078 94.5033 24.7994C96.9767 22.9911 99.9309 21.9571 102.992 21.8281C106.053 21.6991 109.084 22.481 111.701 24.0749C114.318 25.6687 116.403 28.0029 117.693 30.7821C118.983 33.5614 119.419 36.6607 118.947 39.6881C118.315 43.7438 116.099 47.3827 112.785 49.8053C109.471 52.2278 105.332 53.2359 101.275 52.6081Z" fill="#FA1239"/>
<g style="mix-blend-mode:multiply" opacity="0.3">
<path d="M126.423 92.6041H126.323L60.2551 82.3681V82.2681L72.0111 6.39209H72.1071L138.175 16.6281V16.7281L126.423 92.6041ZM60.4831 82.2041L126.255 92.3761L137.947 16.7761L72.1751 6.62009L60.4831 82.2041Z" fill="#FA1239"/>
</g>
<path d="M103.651 53.3921C102.825 53.3912 102 53.327 101.183 53.2001C97.0798 52.5599 93.3836 50.3552 90.8704 47.0487C88.3573 43.7422 87.2224 39.5908 87.7039 35.4656C88.1854 31.3404 90.246 27.562 93.4531 24.9232C96.6603 22.2844 100.765 20.9903 104.906 21.3125C109.046 21.6346 112.901 23.5479 115.662 26.651C118.422 29.754 119.874 33.8056 119.711 37.9556C119.549 42.1057 117.786 46.0316 114.791 48.9096C111.797 51.7877 107.805 53.3942 103.651 53.3921ZM101.367 52.0161C104.276 52.4655 107.253 52.0423 109.922 50.8C112.59 49.5576 114.831 47.552 116.359 45.0365C117.888 42.5211 118.636 39.6089 118.51 36.6681C118.384 33.7273 117.388 30.8899 115.65 28.5148C113.911 26.1397 111.507 24.3334 108.742 23.3244C105.977 22.3154 102.975 22.1489 100.115 22.8461C97.255 23.5432 94.6662 25.0726 92.6755 27.241C90.6849 29.4093 89.3819 32.1192 88.9313 35.0281C88.3323 38.9293 89.3053 42.9087 91.6367 46.0935C93.9681 49.2783 97.4675 51.4082 101.367 52.0161Z" fill="#FAFAFA"/>
<path d="M88.5326 57.297L74.0013 55.05L73.4964 58.3152L88.0278 60.5622L88.5326 57.297Z" fill="#FA1239"/>
<path opacity="0.6" d="M88.5326 57.297L74.0013 55.05L73.4964 58.3152L88.0278 60.5622L88.5326 57.297Z" fill="#FAFAFA"/>
<path d="M100.278 59.1137L90.4467 57.5935L89.9418 60.8587L99.7729 62.3789L100.278 59.1137Z" fill="#FA1239"/>
<path opacity="0.6" d="M100.278 59.1137L90.4467 57.5935L89.9418 60.8587L99.7729 62.3789L100.278 59.1137Z" fill="#FAFAFA"/>
<path d="M125.523 69.7919L72.9758 61.6665L72.4709 64.9317L125.018 73.0571L125.523 69.7919Z" fill="#FAFAFA"/>
<path d="M98.4606 72.5356L72.285 68.5696L71.7894 71.8405L97.965 75.8065L98.4606 72.5356Z" fill="#FAFAFA"/>
<path d="M119.985 76.0441L102.505 73.3412L102 76.6064L119.48 79.3093L119.985 76.0441Z" fill="#FAFAFA"/>
<path d="M112.839 82.0502L70.8306 75.5544L70.3257 78.8196L112.334 85.3154L112.839 82.0502Z" fill="#FAFAFA"/>
<path d="M140.843 95.4801H140.443C140.445 94.4875 140.322 93.4985 140.079 92.5361L140.479 92.4401C140.727 93.4344 140.849 94.4556 140.843 95.4801ZM139.275 90.3121C138.395 88.4702 137.065 86.8799 135.407 85.6881L135.639 85.3641C137.351 86.5932 138.726 88.2328 139.639 90.1321L139.275 90.3121Z" fill="#FA1239"/>
<path opacity="0.6" d="M140.843 95.4801H140.443C140.445 94.4875 140.322 93.4985 140.079 92.5361L140.479 92.4401C140.727 93.4344 140.849 94.4556 140.843 95.4801ZM139.275 90.3121C138.395 88.4702 137.065 86.8799 135.407 85.6881L135.639 85.3641C137.351 86.5932 138.726 88.2328 139.639 90.1321L139.275 90.3121Z" fill="#FAFAFA"/>
<path d="M128.415 84.4521C126.234 84.4521 124.102 85.0989 122.288 86.3107C120.475 87.5225 119.061 89.2448 118.227 91.2599C117.392 93.275 117.174 95.4924 117.599 97.6316C118.025 99.7708 119.075 101.736 120.617 103.278C122.16 104.82 124.125 105.871 126.264 106.296C128.403 106.722 130.62 106.503 132.636 105.669C134.651 104.834 136.373 103.421 137.585 101.607C138.796 99.7934 139.443 97.6613 139.443 95.4802C139.443 92.5553 138.281 89.7503 136.213 87.6822C134.145 85.614 131.34 84.4521 128.415 84.4521ZM128.415 105.08C126.517 105.08 124.661 104.517 123.082 103.462C121.503 102.407 120.273 100.908 119.546 99.1539C118.819 97.3997 118.629 95.4695 119 93.6073C119.37 91.7451 120.284 90.0345 121.627 88.6919C122.97 87.3493 124.68 86.435 126.542 86.0646C128.405 85.6942 130.335 85.8843 132.089 86.6109C133.843 87.3375 135.343 88.568 136.397 90.1467C137.452 91.7254 138.015 93.5815 138.015 95.4802C138.015 98.0262 137.004 100.468 135.203 102.268C133.403 104.069 130.961 105.08 128.415 105.08Z" fill="#FA1239"/>
<path opacity="0.6" d="M128.415 84.4521C126.234 84.4521 124.102 85.0989 122.288 86.3107C120.475 87.5225 119.061 89.2448 118.227 91.2599C117.392 93.275 117.174 95.4924 117.599 97.6316C118.025 99.7708 119.075 101.736 120.617 103.278C122.16 104.82 124.125 105.871 126.264 106.296C128.403 106.722 130.62 106.503 132.636 105.669C134.651 104.834 136.373 103.421 137.585 101.607C138.796 99.7934 139.443 97.6613 139.443 95.4802C139.443 92.5553 138.281 89.7503 136.213 87.6822C134.145 85.614 131.34 84.4521 128.415 84.4521ZM128.415 105.08C126.517 105.08 124.661 104.517 123.082 103.462C121.503 102.407 120.273 100.908 119.546 99.1539C118.819 97.3997 118.629 95.4695 119 93.6073C119.37 91.7451 120.284 90.0345 121.627 88.6919C122.97 87.3493 124.68 86.435 126.542 86.0646C128.405 85.6942 130.335 85.8843 132.089 86.6109C133.843 87.3375 135.343 88.568 136.397 90.1467C137.452 91.7254 138.015 93.5815 138.015 95.4802C138.015 98.0262 137.004 100.468 135.203 102.268C133.403 104.069 130.961 105.08 128.415 105.08Z" fill="#FAFAFA"/>
<path d="M128.415 105.076C133.715 105.076 138.011 100.78 138.011 95.48C138.011 90.1803 133.715 85.884 128.415 85.884C123.116 85.884 118.819 90.1803 118.819 95.48C118.819 100.78 123.116 105.076 128.415 105.076Z" fill="#FA1239"/>
<path opacity="0.2" d="M128.415 105.076C133.715 105.076 138.011 100.78 138.011 95.48C138.011 90.1803 133.715 85.884 128.415 85.884C123.116 85.884 118.819 90.1803 118.819 95.48C118.819 100.78 123.116 105.076 128.415 105.076Z" fill="black"/>
<path d="M126.923 101.552L121.291 95.92L122.707 94.508L126.923 98.724L134.127 91.52L135.539 92.936L126.923 101.552Z" fill="#FAFAFA"/>
</svg>
