<svg width="201" height="150" viewBox="0 0 201 150" fill="none" xmlns="http://www.w3.org/2000/svg">
<path d="M200.125 131.448H0.125V131.548H200.125V131.448Z" fill="#E0E0E0"/>
<path d="M151.189 135.684H137.429V135.784H151.189V135.684Z" fill="#E0E0E0"/>
<path d="M44.5411 135.732H36.7971V135.832H44.5411V135.732Z" fill="#E0E0E0"/>
<path d="M100.525 135.5H84.8289V135.6H100.525V135.5Z" fill="#E0E0E0"/>
<path d="M84.4291 134.076H77.4131V134.176H84.4291V134.076Z" fill="#E0E0E0"/>
<path d="M169.949 134.128H148.753V134.228H169.949V134.128Z" fill="#E0E0E0"/>
<path d="M94.925 113.608H17.689C17.0839 113.607 16.504 113.366 16.0766 112.938C15.6491 112.509 15.409 111.929 15.409 111.324V2.75204C15.4143 2.15045 15.6567 1.57523 16.0836 1.15132C16.5105 0.72742 17.0874 0.489068 17.689 0.488037H94.925C95.5307 0.488037 96.1117 0.728672 96.54 1.15701C96.9684 1.58534 97.209 2.16628 97.209 2.77204V111.324C97.209 111.93 96.9684 112.511 96.54 112.939C96.1117 113.367 95.5307 113.608 94.925 113.608ZM17.689 0.568037C17.1105 0.569097 16.556 0.799663 16.1473 1.20913C15.7385 1.61859 15.509 2.1735 15.509 2.75204V111.324C15.509 111.903 15.7385 112.457 16.1473 112.867C16.556 113.276 17.1105 113.507 17.689 113.508H94.925C95.5039 113.507 96.0588 113.277 96.4681 112.867C96.8775 112.458 97.1079 111.903 97.109 111.324V2.75204C97.1079 2.17313 96.8775 1.61823 96.4681 1.20888C96.0588 0.799533 95.5039 0.569095 94.925 0.568037H17.689Z" fill="#E0E0E0"/>
<path d="M181.449 113.608H104.209C103.604 113.607 103.023 113.366 102.595 112.938C102.167 112.51 101.926 111.929 101.925 111.324V2.75204C101.931 2.15008 102.175 1.57487 102.602 1.15107C103.03 0.727281 103.607 0.489056 104.209 0.488037H181.449C182.05 0.490119 182.626 0.728937 183.052 1.15273C183.478 1.57652 183.72 2.15114 183.725 2.75204V111.324C183.725 111.928 183.485 112.508 183.059 112.936C182.632 113.364 182.053 113.606 181.449 113.608ZM104.209 0.568037C103.63 0.569095 103.075 0.799533 102.666 1.20888C102.256 1.61823 102.026 2.17313 102.025 2.75204V111.324C102.026 111.903 102.256 112.458 102.666 112.867C103.075 113.277 103.63 113.507 104.209 113.508H181.449C182.028 113.507 182.583 113.277 182.992 112.867C183.401 112.458 183.632 111.903 183.633 111.324V2.75204C183.632 2.17313 183.401 1.61823 182.992 1.20888C182.583 0.799533 182.028 0.569095 181.449 0.568037H104.209Z" fill="#E0E0E0"/>
<path d="M175.849 81.3801C170.929 73.8881 175.421 65.836 174.673 57.5C173.925 49.164 166.005 47.348 167.505 40.3C169.241 32.108 164.613 24.248 159.369 24.248C154.125 24.248 149.501 32.088 151.237 40.288C152.737 47.348 144.837 49.168 144.069 57.488C143.301 65.808 147.813 73.8881 142.889 81.3681C137.965 88.8481 139.261 98.7801 142.033 103.704C142.77 105.011 143.659 106.226 144.681 107.324C146.56 109.341 148.833 110.949 151.361 112.049C153.888 113.149 156.615 113.716 159.371 113.716C162.127 113.716 164.854 113.149 167.381 112.049C169.909 110.949 172.182 109.341 174.061 107.324C175.08 106.224 175.968 105.01 176.705 103.704C179.481 98.7921 180.773 88.8881 175.849 81.3801Z" fill="#E0E0E0"/>
<path d="M159.369 87.0641C159.696 87.0641 160.019 87.1284 160.321 87.2535C160.623 87.3785 160.897 87.5618 161.128 87.7928C161.359 88.0238 161.543 88.2981 161.668 88.6C161.793 88.9018 161.857 89.2254 161.857 89.5521V131.448H156.881V89.5521C156.881 89.2254 156.945 88.9018 157.07 88.6C157.195 88.2981 157.379 88.0238 157.61 87.7928C157.841 87.5618 158.115 87.3785 158.417 87.2535C158.719 87.1284 159.042 87.0641 159.369 87.0641Z" fill="#F0F0F0"/>
<path d="M128.089 131.448H121.325V89.5561C121.327 88.6582 121.685 87.7977 122.32 87.1627C122.955 86.5278 123.815 86.1702 124.713 86.1681C125.611 86.1702 126.471 86.5278 127.106 87.1627C127.741 87.7977 128.099 88.6582 128.101 89.5561L128.089 131.448Z" fill="#E0E0E0"/>
<path d="M124.701 120.148C136.226 120.148 145.569 110.805 145.569 99.28C145.569 87.7549 136.226 78.412 124.701 78.412C113.176 78.412 103.833 87.7549 103.833 99.28C103.833 110.805 113.176 120.148 124.701 120.148Z" fill="#F0F0F0"/>
<path d="M149.222 93.0182C150.317 88.6102 147.632 84.1491 143.224 83.0541C138.816 81.9592 134.355 84.6449 133.26 89.053C132.165 93.461 134.85 97.9221 139.258 99.017C143.666 100.112 148.128 97.4262 149.222 93.0182Z" fill="#F0F0F0"/>
<path d="M112.625 86.9478C113.058 84.2942 111.257 81.7927 108.603 81.3606C105.95 80.9284 103.448 82.7292 103.016 85.3828C102.584 88.0364 104.385 90.5378 107.038 90.97C109.692 91.4022 112.193 89.6013 112.625 86.9478Z" fill="#F0F0F0"/>
<path d="M113.117 87.0641C115.004 87.0641 116.533 85.5347 116.533 83.6481C116.533 81.7614 115.004 80.2321 113.117 80.2321C111.23 80.2321 109.701 81.7614 109.701 83.6481C109.701 85.5347 111.23 87.0641 113.117 87.0641Z" fill="#F0F0F0"/>
<path d="M81.725 106.444C78.4801 106.927 75.379 108.111 72.637 109.912C72.613 106.744 72.033 103.74 70.545 101.312C68.281 103.516 66.445 106.372 64.945 109.444C64.397 103.688 62.881 98.088 59.525 94.54C54.497 97.704 51.905 102.976 50.673 108.56C48.6377 104.795 45.6835 101.605 42.085 99.288C39.009 102.528 38.025 107.008 38.109 111.6C34.613 107.528 30.733 104.352 26.949 103.98C26.017 110.416 28.001 116.488 30.525 121.288C32.1637 124.368 34.6118 126.942 37.6054 128.733C40.5989 130.524 44.0246 131.464 47.513 131.452H63.949C70.953 131.452 77.521 127.716 80.805 121.528C82.8811 117.608 83.8731 112.564 81.725 106.444Z" fill="#E0E0E0"/>
<path d="M77.0291 23.344C79.0571 17.396 77.4291 13.16 72.4811 13.16C69.3691 13.16 65.5091 14.828 61.7491 17.54C61.3251 15.992 60.1291 15.068 58.2051 15.068C54.8171 15.068 50.1491 17.932 46.4891 21.972C45.4586 20.993 44.0944 20.4425 42.6731 20.432C39.4291 20.248 35.5051 21.896 32.0931 24.572C31.9221 24.3327 31.6964 24.1378 31.4347 24.0035C31.1731 23.8692 30.8832 23.7995 30.5891 23.8C28.7211 23.696 26.1891 25.36 24.9371 27.512C24.8611 27.644 24.7931 27.776 24.7211 27.912H78.0131C78.1731 26.032 77.8411 24.464 77.0291 23.344Z" fill="#F0F0F0"/>
<path d="M77.193 59.46C78.185 56.556 77.397 54.488 74.973 54.488C73.449 54.488 71.565 55.288 69.729 56.628C69.6301 56.2548 69.4015 55.9289 69.0841 55.709C68.7667 55.4891 68.3813 55.3895 67.997 55.428C66.345 55.428 64.065 56.828 62.273 58.804C61.7707 58.3242 61.1037 58.0551 60.409 58.052C58.809 57.96 56.909 58.764 55.241 60.072C55.1602 59.9564 55.0532 59.8614 54.9288 59.7946C54.8045 59.7279 54.6661 59.6914 54.525 59.688C53.613 59.636 52.377 60.448 51.765 61.5L51.657 61.692H77.689C77.7979 60.9126 77.6217 60.12 77.193 59.46Z" fill="#F0F0F0"/>
<path d="M137.233 37.4841C137.028 37.4552 136.821 37.4405 136.613 37.4401C136.805 34.5401 135.697 32.6841 133.325 32.6841C131.617 32.6841 129.517 33.6521 127.381 35.2881C127.993 29.6561 126.033 25.9961 121.593 25.9961C118.017 25.9961 113.485 28.3961 109.009 32.2601C108.609 30.0521 107.297 28.7241 105.081 28.7241C101.189 28.7241 95.6571 32.8201 91.2211 38.5961C90.7156 37.9301 90.0673 37.3857 89.3239 37.0029C88.5806 36.6201 87.7609 36.4087 86.9251 36.3841C83.2211 36.1241 78.6171 38.4761 74.5251 42.3081C74.3762 41.985 74.1392 41.7103 73.8414 41.5158C73.5435 41.3212 73.1968 41.2146 72.8411 41.2081C70.8131 41.0641 68.0411 43.1801 66.3971 46.0081H140.493C142.233 41.7201 140.849 37.9681 137.233 37.4841Z" fill="#F0F0F0"/>
<path d="M100.125 149.512C142.958 149.512 177.681 147.485 177.681 144.984C177.681 142.483 142.958 140.456 100.125 140.456C57.292 140.456 22.569 142.483 22.569 144.984C22.569 147.485 57.292 149.512 100.125 149.512Z" fill="#F5F5F5"/>
<path d="M19.6689 38.712L110.857 51.84L123.093 64.188L19.6689 38.712Z" fill="#FA1239"/>
<path opacity="0.6" d="M19.6689 38.712L110.857 51.84L123.093 64.188L19.6689 38.712Z" fill="white"/>
<path d="M19.6689 38.712L110.857 51.84L106.625 69.696L19.6689 38.712Z" fill="#FA1239"/>
<path opacity="0.2" d="M19.6689 38.712L110.857 51.84L106.625 69.696L19.6689 38.712Z" fill="black"/>
<path d="M104.753 18.04L110.045 42.84C110.183 43.4876 110.058 44.1634 109.698 44.719C109.338 45.2747 108.772 45.6649 108.125 45.804L60.893 55.884C60.2455 56.0206 59.5703 55.8953 59.0149 55.5355C58.4595 55.1758 58.0691 54.6108 57.929 53.964L52.633 29.164C52.4966 28.516 52.6224 27.8402 52.983 27.2847C53.3436 26.7292 53.9095 26.3392 54.557 26.2L101.789 16.12C102.437 15.9836 103.113 16.1094 103.668 16.47C104.224 16.8306 104.614 17.3965 104.753 18.044V18.04Z" fill="#FA1239"/>
<path opacity="0.4" d="M104.753 18.04L110.045 42.84C110.183 43.4876 110.058 44.1634 109.698 44.719C109.338 45.2747 108.772 45.6649 108.125 45.804L60.893 55.884C60.2455 56.0206 59.5703 55.8953 59.0149 55.5355C58.4595 55.1758 58.0691 54.6108 57.929 53.964L52.633 29.164C52.4966 28.516 52.6224 27.8402 52.983 27.2847C53.3436 26.7292 53.9095 26.3392 54.557 26.2L101.789 16.12C102.437 15.9836 103.113 16.1094 103.668 16.47C104.224 16.8306 104.614 17.3965 104.753 18.044V18.04Z" fill="black"/>
<path d="M103.589 16.416L87.809 35.788C86.3456 37.5841 84.3128 38.8267 82.0471 39.3104C79.7813 39.7941 77.4183 39.4899 75.349 38.448L53.033 27.208C53.3941 26.6894 53.9389 26.3276 54.557 26.196L101.789 16.116C102.405 15.9848 103.049 16.092 103.589 16.416Z" fill="#FA1239"/>
<path d="M19.6689 38.712L94.8809 56.588L106.625 69.696L19.6689 38.712Z" fill="#FA1239"/>
<path opacity="0.6" d="M19.6689 38.712L94.8809 56.588L106.625 69.696L19.6689 38.712Z" fill="white"/>
<path d="M47.1045 55.9421L46.9023 56.2872L55.2722 61.1899L55.4743 60.8448L47.1045 55.9421Z" fill="#FA1239"/>
<path d="M59.1696 63.0062L58.9674 63.3513L61.9771 65.1143L62.1793 64.7691L59.1696 63.0062Z" fill="#FA1239"/>
<path d="M19.6689 38.712L94.8809 56.588L80.2609 74.208L19.6689 38.712Z" fill="#FA1239"/>
<path d="M120.269 80.5921C120.168 80.5923 120.067 80.5733 119.973 80.5361L107.725 75.6881C107.529 75.6091 107.372 75.4559 107.289 75.2618C107.205 75.0677 107.202 74.8485 107.28 74.652C107.357 74.4555 107.51 74.2977 107.703 74.2131C107.897 74.1284 108.116 74.1237 108.313 74.2001L120.565 79.0481C120.738 79.1166 120.882 79.2434 120.972 79.4068C121.062 79.5701 121.092 79.7596 121.057 79.9427C121.021 80.1257 120.924 80.2908 120.78 80.4093C120.636 80.5279 120.455 80.5925 120.269 80.5921Z" fill="#FA1239"/>
<path opacity="0.3" d="M120.269 80.5921C120.168 80.5923 120.067 80.5733 119.973 80.5361L107.725 75.6881C107.529 75.6091 107.372 75.4559 107.289 75.2618C107.205 75.0677 107.202 74.8485 107.28 74.652C107.357 74.4555 107.51 74.2977 107.703 74.2131C107.897 74.1284 108.116 74.1237 108.313 74.2001L120.565 79.0481C120.738 79.1166 120.882 79.2434 120.972 79.4068C121.062 79.5701 121.092 79.7596 121.057 79.9427C121.021 80.1257 120.924 80.2908 120.78 80.4093C120.636 80.5279 120.455 80.5925 120.269 80.5921Z" fill="black"/>
<path d="M119.545 73.568C119.445 73.5674 119.345 73.547 119.253 73.508L112.673 70.888C112.575 70.8499 112.485 70.7927 112.409 70.7197C112.332 70.6467 112.271 70.5593 112.229 70.4627C112.187 70.366 112.164 70.2619 112.162 70.1565C112.16 70.051 112.179 69.9462 112.218 69.848C112.257 69.7499 112.315 69.6604 112.388 69.5847C112.462 69.5091 112.549 69.4486 112.646 69.407C112.743 69.3654 112.847 69.3433 112.953 69.3421C113.058 69.3409 113.163 69.3606 113.261 69.4L119.841 72.008C120.038 72.0856 120.197 72.2383 120.281 72.4325C120.366 72.6267 120.37 72.8466 120.293 73.044C120.237 73.1972 120.135 73.3295 120.001 73.4232C119.867 73.5169 119.708 73.5674 119.545 73.568Z" fill="#FA1239"/>
<path opacity="0.5" d="M119.545 73.568C119.445 73.5674 119.345 73.547 119.253 73.508L112.673 70.888C112.575 70.8499 112.485 70.7927 112.409 70.7197C112.332 70.6467 112.271 70.5593 112.229 70.4627C112.187 70.366 112.164 70.2619 112.162 70.1565C112.16 70.051 112.179 69.9462 112.218 69.848C112.257 69.7499 112.315 69.6604 112.388 69.5847C112.462 69.5091 112.549 69.4486 112.646 69.407C112.743 69.3654 112.847 69.3433 112.953 69.3421C113.058 69.3409 113.163 69.3606 113.261 69.4L119.841 72.008C120.038 72.0856 120.197 72.2383 120.281 72.4325C120.366 72.6267 120.37 72.8466 120.293 73.044C120.237 73.1972 120.135 73.3295 120.001 73.4232C119.867 73.5169 119.708 73.5674 119.545 73.568Z" fill="white"/>
<path d="M105.789 80.488C105.689 80.4869 105.59 80.4679 105.497 80.432L93.549 75.688C93.4506 75.6499 93.3608 75.5927 93.2846 75.5197C93.2084 75.4467 93.1474 75.3594 93.1052 75.2627C93.0629 75.1661 93.0401 75.062 93.0382 74.9565C93.0363 74.851 93.0553 74.7462 93.0941 74.6481C93.1328 74.55 93.1906 74.4605 93.2641 74.3848C93.3376 74.3091 93.4254 74.2487 93.5223 74.207C93.6192 74.1654 93.7235 74.1433 93.829 74.1421C93.9345 74.1409 94.0391 74.1606 94.137 74.2L106.085 78.928C106.258 78.9965 106.402 79.1234 106.492 79.2867C106.582 79.4501 106.612 79.6396 106.577 79.8227C106.542 80.0057 106.444 80.1707 106.3 80.2893C106.156 80.4079 105.975 80.4725 105.789 80.472V80.488Z" fill="#FA1239"/>
<path opacity="0.3" d="M105.789 80.488C105.689 80.4869 105.59 80.4679 105.497 80.432L93.549 75.688C93.4506 75.6499 93.3608 75.5927 93.2846 75.5197C93.2084 75.4467 93.1474 75.3594 93.1052 75.2627C93.0629 75.1661 93.0401 75.062 93.0382 74.9565C93.0363 74.851 93.0553 74.7462 93.0941 74.6481C93.1328 74.55 93.1906 74.4605 93.2641 74.3848C93.3376 74.3091 93.4254 74.2487 93.5223 74.207C93.6192 74.1654 93.7235 74.1433 93.829 74.1421C93.9345 74.1409 94.0391 74.1606 94.137 74.2L106.085 78.928C106.258 78.9965 106.402 79.1234 106.492 79.2867C106.582 79.4501 106.612 79.6396 106.577 79.8227C106.542 80.0057 106.444 80.1707 106.3 80.2893C106.156 80.4079 105.975 80.4725 105.789 80.472V80.488Z" fill="black"/>
<path d="M149.045 44.416C150.105 46.484 151.077 48.556 152.001 50.676C152.925 52.796 153.785 54.944 154.537 57.196L154.809 58.048C154.857 58.2 154.925 58.448 154.965 58.624C155.005 58.8 155.041 59 155.061 59.168C155.152 59.8133 155.199 60.4642 155.201 61.116C155.207 62.3181 155.151 63.5197 155.033 64.716C154.809 67.0319 154.446 69.3321 153.945 71.604L151.749 71.36C151.721 69.108 151.701 66.832 151.621 64.612C151.585 63.508 151.521 62.4 151.409 61.36C151.358 60.8716 151.278 60.3867 151.169 59.908C151.149 59.796 151.117 59.712 151.093 59.62C151.069 59.528 151.045 59.496 151.005 59.376L150.701 58.62C149.865 56.596 148.925 54.556 147.965 52.524L145.061 46.428L149.045 44.416Z" fill="#E4897B"/>
<path d="M151.781 70.656L150.757 72.572L154.029 73.484C154.029 73.484 154.653 71.944 153.909 70.728L151.781 70.656Z" fill="#E4897B"/>
<path d="M149.505 75.332L152.513 75.572L154.029 73.484L150.757 72.572L149.505 75.332Z" fill="#E4897B"/>
<path d="M135.273 30.5921C135.229 30.8281 135.065 30.9921 134.913 30.9601C134.761 30.9281 134.677 30.7161 134.725 30.4841C134.773 30.2521 134.933 30.0841 135.085 30.1161C135.237 30.1481 135.325 30.3601 135.273 30.5921Z" fill="#263238"/>
<path d="M135.089 30.9921C134.666 31.6465 134.156 32.24 133.573 32.7561C133.709 32.901 133.875 33.0146 134.06 33.0892C134.244 33.1638 134.442 33.1975 134.641 33.1881L135.089 30.9921Z" fill="#DE5753"/>
<path d="M136.385 29.476C136.347 29.475 136.311 29.4592 136.285 29.432C136.17 29.3005 136.026 29.198 135.864 29.1327C135.702 29.0674 135.527 29.0411 135.353 29.056C135.32 29.0563 135.287 29.0449 135.262 29.0237C135.236 29.0025 135.219 28.973 135.214 28.9403C135.208 28.9077 135.214 28.8741 135.231 28.8454C135.247 28.8168 135.274 28.795 135.305 28.784C135.527 28.7558 135.753 28.783 135.963 28.8633C136.172 28.9436 136.358 29.0743 136.505 29.244C136.53 29.2702 136.545 29.3053 136.545 29.342C136.545 29.3786 136.53 29.4138 136.505 29.44C136.489 29.4546 136.47 29.4655 136.449 29.4717C136.428 29.478 136.406 29.4794 136.385 29.476Z" fill="#263238"/>
<path d="M141.889 33.86C141.469 36.012 141.049 39.948 142.553 41.384C142.553 41.384 141.965 43.564 137.969 43.564C133.569 43.564 135.873 41.384 135.873 41.384C138.273 40.812 138.205 39.032 137.789 37.364L141.889 33.86Z" fill="#E4897B"/>
<path d="M143.157 42.74C143.473 41.688 143.821 40.484 143.101 40.104C142.301 39.704 137.953 39.264 136.453 40.044C134.953 40.824 135.381 42.964 135.381 42.964L143.157 42.74Z" fill="#263238"/>
<path d="M152.381 142.488C152.257 142.505 152.13 142.496 152.009 142.463C151.889 142.43 151.775 142.373 151.677 142.296C151.642 142.248 151.623 142.19 151.623 142.13C151.623 142.07 151.642 142.012 151.677 141.964C151.7 141.923 151.731 141.887 151.769 141.858C151.807 141.83 151.851 141.81 151.897 141.8C152.329 141.704 153.137 142.256 153.173 142.28C153.183 142.289 153.191 142.3 153.196 142.312C153.201 142.325 153.203 142.339 153.201 142.352C153.199 142.365 153.192 142.377 153.183 142.386C153.174 142.396 153.162 142.402 153.149 142.404C152.896 142.458 152.639 142.487 152.381 142.488ZM152.013 141.928H151.929C151.902 141.934 151.876 141.945 151.854 141.962C151.832 141.978 151.814 142 151.801 142.024C151.737 142.136 151.777 142.184 151.801 142.2C151.925 142.368 152.525 142.368 152.965 142.296C152.678 142.107 152.353 141.984 152.013 141.936V141.928Z" fill="#FA1239"/>
<path d="M153.133 142.416H153.101C152.797 142.248 152.209 141.616 152.269 141.28C152.279 141.228 152.307 141.181 152.348 141.148C152.389 141.114 152.44 141.096 152.493 141.096C152.546 141.09 152.599 141.095 152.65 141.11C152.7 141.125 152.748 141.15 152.789 141.184C153.129 141.464 153.189 142.312 153.189 142.348C153.19 142.361 153.188 142.374 153.183 142.385C153.177 142.396 153.168 142.406 153.157 142.412C153.149 142.415 153.141 142.416 153.133 142.416ZM152.541 141.216H152.525C152.433 141.216 152.425 141.272 152.421 141.288C152.385 141.484 152.761 141.968 153.061 142.196C153.041 141.862 152.921 141.541 152.717 141.276C152.69 141.255 152.659 141.24 152.626 141.231C152.593 141.222 152.559 141.219 152.525 141.224L152.541 141.216Z" fill="#FA1239"/>
<path d="M134.737 142.488C134.361 142.488 133.997 142.436 133.873 142.268C133.842 142.224 133.825 142.17 133.825 142.116C133.825 142.062 133.842 142.009 133.873 141.964C133.897 141.923 133.929 141.887 133.968 141.859C134.007 141.831 134.05 141.811 134.097 141.8C134.581 141.668 135.613 142.252 135.657 142.276C135.669 142.284 135.678 142.294 135.684 142.307C135.689 142.32 135.691 142.334 135.689 142.348C135.687 142.362 135.68 142.375 135.67 142.385C135.66 142.395 135.647 142.402 135.633 142.404C135.337 142.46 135.037 142.488 134.737 142.488ZM134.269 141.92C134.225 141.914 134.181 141.914 134.137 141.92C134.109 141.926 134.082 141.937 134.059 141.954C134.035 141.97 134.016 141.991 134.001 142.016C133.949 142.104 133.969 142.144 134.001 142.168C134.133 142.352 134.877 142.364 135.429 142.288C135.069 142.094 134.675 141.972 134.269 141.928V141.92Z" fill="#FA1239"/>
<path d="M135.625 142.416H135.597C135.241 142.26 134.541 141.616 134.593 141.292C134.593 141.212 134.661 141.116 134.853 141.096C134.924 141.085 134.997 141.09 135.066 141.111C135.135 141.132 135.199 141.168 135.253 141.216C135.629 141.52 135.705 142.312 135.709 142.348C135.71 142.36 135.709 142.373 135.704 142.384C135.699 142.395 135.691 142.405 135.681 142.412C135.672 142.417 135.663 142.419 135.653 142.42C135.644 142.421 135.634 142.419 135.625 142.416ZM134.909 141.216H134.865C134.741 141.216 134.733 141.28 134.729 141.296C134.697 141.496 135.177 141.996 135.529 142.212C135.494 141.876 135.354 141.56 135.129 141.308C135.072 141.259 135 141.229 134.925 141.224L134.909 141.216Z" fill="#FA1239"/>
<path d="M138.857 142.344H135.917L135.625 135.54H138.565L138.857 142.344Z" fill="#E4897B"/>
<path d="M156.501 142.344H153.561L152.085 135.54H155.021L156.501 142.344Z" fill="#E4897B"/>
<path d="M153.353 142.004H156.653C156.712 142.004 156.769 142.025 156.815 142.062C156.86 142.099 156.892 142.151 156.905 142.208L157.485 144.82C157.498 144.884 157.497 144.949 157.481 145.012C157.465 145.076 157.436 145.134 157.394 145.184C157.353 145.234 157.3 145.274 157.241 145.301C157.182 145.328 157.118 145.341 157.053 145.34C155.901 145.32 155.341 145.252 153.889 145.252C152.997 145.252 151.157 145.348 149.921 145.348C148.685 145.348 148.529 144.148 149.033 144.016C151.297 143.52 152.149 142.836 152.873 142.188C153.004 142.069 153.176 142.003 153.353 142.004Z" fill="#263238"/>
<path d="M135.937 142.004H139.137C139.196 142.004 139.253 142.025 139.299 142.062C139.344 142.099 139.376 142.15 139.389 142.208L139.969 144.82C139.983 144.883 139.982 144.948 139.967 145.011C139.952 145.074 139.923 145.133 139.883 145.183C139.842 145.233 139.79 145.273 139.732 145.3C139.673 145.327 139.609 145.341 139.545 145.34C138.389 145.32 136.717 145.252 135.261 145.252C133.561 145.252 132.089 145.348 130.093 145.348C128.893 145.348 128.553 144.148 129.057 144.016C131.357 143.512 133.233 143.46 135.221 142.236C135.433 142.092 135.681 142.012 135.937 142.004Z" fill="#263238"/>
<path d="M134.525 46.5441C132.068 46.3537 129.623 46.0292 127.201 45.5721C126.001 45.3401 124.777 45.0801 123.561 44.7521C122.314 44.4331 121.09 44.0322 119.897 43.5521C119.589 43.4241 119.277 43.2841 118.969 43.1521C118.622 42.9813 118.288 42.7861 117.969 42.5681C117.393 42.1881 116.897 41.7921 116.405 41.4001C115.425 40.6001 114.517 39.8001 113.605 38.9801C111.817 37.3241 110.121 35.6121 108.485 33.8121L109.957 32.1681L115.761 36.3401C116.717 37.0281 117.685 37.7041 118.637 38.3401C119.109 38.6561 119.593 38.9521 120.037 39.2041C120.223 39.31 120.415 39.4035 120.613 39.4841C120.849 39.5761 121.089 39.6681 121.341 39.7561C123.503 40.4218 125.714 40.9166 127.953 41.2361C130.237 41.5961 132.597 41.8921 134.877 42.1321L134.525 46.5441Z" fill="#E4897B"/>
<path d="M147.813 42.0481C150.569 42.6801 153.353 50.7321 153.353 50.7321L147.685 54.8001C147.685 54.8001 146.085 51.0481 144.541 47.7681C142.925 44.3321 144.997 41.4041 147.813 42.0481Z" fill="#FA1239"/>
<path opacity="0.4" d="M147.813 42.0481C150.569 42.6801 153.353 50.7321 153.353 50.7321L147.685 54.8001C147.685 54.8001 146.085 51.0481 144.541 47.7681C142.925 44.3321 144.997 41.4041 147.813 42.0481Z" fill="black"/>
<path d="M146.225 46.448L145.101 48.964C146.265 51.476 147.329 53.964 147.613 54.628C147.573 51.656 147.009 47.968 146.225 46.448Z" fill="#FA1239"/>
<path opacity="0.6" d="M146.225 46.448L145.101 48.964C146.265 51.476 147.329 53.964 147.613 54.628C147.573 51.656 147.009 47.968 146.225 46.448Z" fill="black"/>
<path d="M131.353 42.2C131.353 42.2 128.225 45.732 131.177 67.6H146.893C147.005 65.2 145.489 53.416 147.813 42.048C146.076 41.7135 144.319 41.4917 142.553 41.384C140.328 41.2559 138.098 41.2559 135.873 41.384C134.347 41.5377 132.836 41.8106 131.353 42.2Z" fill="#FA1239"/>
<path opacity="0.4" d="M131.353 42.2C131.353 42.2 128.225 45.732 131.177 67.6H146.893C147.005 65.2 145.489 53.416 147.813 42.048C146.076 41.7135 144.319 41.4917 142.553 41.384C140.328 41.2559 138.098 41.2559 135.873 41.384C134.347 41.5377 132.836 41.8106 131.353 42.2Z" fill="black"/>
<path d="M130.189 46.448C130.085 47.276 130.005 48.256 129.953 49.412C131.505 48.9462 132.98 48.2534 134.329 47.356L130.189 46.448Z" fill="#FA1239"/>
<path opacity="0.6" d="M130.189 46.448C130.085 47.276 130.005 48.256 129.953 49.412C131.505 48.9462 132.98 48.2534 134.329 47.356L130.189 46.448Z" fill="black"/>
<path d="M136.925 46.8881C134.821 48.7521 126.789 48.5641 126.789 48.5641L126.525 40.7881C129.237 41.1744 131.973 41.3722 134.713 41.3801C139.189 41.2881 139.221 44.8321 136.925 46.8881Z" fill="#FA1239"/>
<path opacity="0.4" d="M136.925 46.8881C134.821 48.7521 126.789 48.5641 126.789 48.5641L126.525 40.7881C129.237 41.1744 131.973 41.3722 134.713 41.3801C139.189 41.2881 139.221 44.8321 136.925 46.8881Z" fill="black"/>
<path d="M110.033 32.184L108.033 29.828L105.877 32.228C105.877 32.228 107.205 34.46 109.313 34.108L110.033 32.184Z" fill="#E4897B"/>
<path d="M105.169 27.0801L104.393 30.1561L105.861 32.2121L108.017 29.8281L105.169 27.0801Z" fill="#E4897B"/>
<path d="M135.625 135.544L135.777 139.048H138.717L138.565 135.544H135.625Z" fill="#CE6F64"/>
<path d="M155.025 135.544H152.085L152.845 139.048H155.785L155.025 135.544Z" fill="#CE6F64"/>
<path d="M137.393 27.688C134.757 26.488 133.925 21.156 141.509 22.488C141.509 22.488 140.365 23.752 142.685 24.552C145.005 25.352 143.065 30.292 137.393 27.688Z" fill="#263238"/>
<path d="M143.121 31.6881C142.365 34.4881 142.069 36.1921 140.321 37.3641C137.705 39.1241 134.453 37.1041 134.349 34.1161C134.257 31.4321 135.509 27.2761 138.529 26.7081C139.196 26.5774 139.885 26.6196 140.53 26.8308C141.176 27.042 141.756 27.4151 142.217 27.9145C142.677 28.4139 143.002 29.0229 143.161 29.6835C143.319 30.3441 143.305 31.0342 143.121 31.6881Z" fill="#E4897B"/>
<path d="M141.405 23.8881C143.201 24.8881 145.633 25.4881 145.405 26.9121C145.105 28.6521 146.873 27.5641 146.461 30.1521C146.193 31.8441 143.073 36.9721 140.861 36.7241C137.557 36.3241 137.977 31.3001 137.965 28.6521C137.957 27.0881 137.885 21.9161 141.405 23.8881Z" fill="#263238"/>
<path d="M137.569 26.1321C136.769 26.3201 135.709 30.9321 138.809 31.3561C142.373 31.8401 137.569 26.1321 137.569 26.1321Z" fill="#263238"/>
<path d="M137.649 27.7681C136.669 27.8561 134.449 26.6761 134.721 24.9001C134.721 24.8881 136.125 26.9761 137.649 27.7681Z" fill="#263238"/>
<path d="M139.105 31.724C138.804 32.3835 138.294 32.925 137.653 33.264C136.809 33.704 136.333 33.064 136.525 32.216C136.697 31.456 137.345 30.308 138.213 30.216C139.081 30.124 139.453 30.924 139.105 31.724Z" fill="#E4897B"/>
<path d="M143.505 28.488C144.103 28.2286 144.627 27.825 145.03 27.3133C145.434 26.8016 145.704 26.1978 145.817 25.556C145.817 25.556 147.137 29.224 143.505 28.488Z" fill="#263238"/>
<path d="M146.841 28.428C146.562 28.2411 146.242 28.126 145.908 28.0932C145.575 28.0604 145.238 28.1108 144.929 28.24C144.929 28.24 146.161 26.644 146.841 28.428Z" fill="#263238"/>
<path d="M136.753 67.6C136.753 67.6 140.089 90.056 141.917 98.468C143.917 107.668 151.477 138.372 151.477 138.372H156.857C156.857 138.372 151.877 108.424 150.733 99.288C149.493 89.388 146.893 67.584 146.893 67.584L136.753 67.6Z" fill="#FA1239"/>
<path opacity="0.5" d="M136.753 67.6C136.753 67.6 140.089 90.056 141.917 98.468C143.917 107.668 151.477 138.372 151.477 138.372H156.857C156.857 138.372 151.877 108.424 150.733 99.288C149.493 89.388 146.893 67.584 146.893 67.584L136.753 67.6Z" fill="white"/>
<path d="M150.617 136.388C150.593 136.388 151.173 138.456 151.173 138.456H157.229L157.117 136.612L150.617 136.388Z" fill="#FA1239"/>
<path opacity="0.1" d="M150.617 136.388C150.593 136.388 151.173 138.456 151.173 138.456H157.229L157.117 136.612L150.617 136.388Z" fill="black"/>
<path d="M138.861 75.6C142.717 76.356 142.309 90.736 141.845 98.132C140.733 92.904 139.105 82.844 137.993 75.704C138.262 75.5714 138.568 75.5348 138.861 75.6Z" fill="#FA1239"/>
<path opacity="0.4" d="M138.861 75.6C142.717 76.356 142.309 90.736 141.845 98.132C140.733 92.904 139.105 82.844 137.993 75.704C138.262 75.5714 138.568 75.5348 138.861 75.6Z" fill="white"/>
<path d="M131.177 67.6001C131.177 67.6001 130.777 89.5681 131.093 98.5321C131.425 107.852 134.693 138.372 134.693 138.372H139.669C139.669 138.372 139.853 108.396 140.069 99.2441C140.313 89.2641 141.517 67.6001 141.517 67.6001H131.177Z" fill="#FA1239"/>
<path opacity="0.5" d="M131.177 67.6001C131.177 67.6001 130.777 89.5681 131.093 98.5321C131.425 107.852 134.693 138.372 134.693 138.372H139.669C139.669 138.372 139.853 108.396 140.069 99.2441C140.313 89.2641 141.517 67.6001 141.517 67.6001H131.177Z" fill="white"/>
<path d="M135.725 134.796C135.713 134.796 135.701 134.792 135.692 134.783C135.683 134.775 135.678 134.764 135.677 134.752C134.797 126.304 132.729 105.864 132.477 98.532C132.209 91.048 132.453 74.256 132.533 69.288C132.533 69.2753 132.538 69.263 132.547 69.254C132.556 69.245 132.568 69.24 132.581 69.24C132.594 69.24 132.607 69.2449 132.616 69.2538C132.626 69.2627 132.632 69.2749 132.633 69.288C132.553 74.256 132.309 91.048 132.577 98.528C132.837 105.86 134.905 126.292 135.777 134.74C135.777 134.754 135.772 134.767 135.763 134.777C135.755 134.787 135.742 134.794 135.729 134.796H135.725Z" fill="#FA1239"/>
<path opacity="0.4" d="M135.725 134.796C135.713 134.796 135.701 134.792 135.692 134.783C135.683 134.775 135.678 134.764 135.677 134.752C134.797 126.304 132.729 105.864 132.477 98.532C132.209 91.048 132.453 74.256 132.533 69.288C132.533 69.2753 132.538 69.263 132.547 69.254C132.556 69.245 132.568 69.24 132.581 69.24C132.594 69.24 132.607 69.2449 132.616 69.2538C132.626 69.2627 132.632 69.2749 132.633 69.288C132.553 74.256 132.309 91.048 132.577 98.528C132.837 105.86 134.905 126.292 135.777 134.74C135.777 134.754 135.772 134.767 135.763 134.777C135.755 134.787 135.742 134.794 135.729 134.796H135.725Z" fill="white"/>
<path d="M133.725 136.388C133.705 136.388 134.009 138.456 134.009 138.456H140.061L140.225 136.612L133.725 136.388Z" fill="#FA1239"/>
<path opacity="0.1" d="M133.725 136.388C133.705 136.388 134.009 138.456 134.009 138.456H140.061L140.225 136.612L133.725 136.388Z" fill="black"/>
</svg>
