<svg width="201" height="150" viewBox="0 0 201 150" fill="none" xmlns="http://www.w3.org/2000/svg">
<path d="M200.875 131.448H0.875V131.548H200.875V131.448Z" fill="#EBEBEB"/>
<path d="M180.835 137.884H167.587V137.984H180.835V137.884Z" fill="#EBEBEB"/>
<path d="M133.363 138.972H129.887V139.072H133.363V138.972Z" fill="#EBEBEB"/>
<path d="M167.187 134.172H159.511V134.272H167.187V134.172Z" fill="#EBEBEB"/>
<path d="M39.135 134.844H21.859V134.944H39.135V134.844Z" fill="#EBEBEB"/>
<path d="M45.231 134.844H42.699V134.944H45.231V134.844Z" fill="#EBEBEB"/>
<path d="M90.9351 136.532H53.4631V136.632H90.9351V136.532Z" fill="#EBEBEB"/>
<path d="M95.6749 113.608H18.4389C17.8339 113.607 17.254 113.366 16.8265 112.938C16.399 112.509 16.1589 111.929 16.1589 111.324V2.75204C16.1642 2.15045 16.4066 1.57523 16.8335 1.15132C17.2604 0.72742 17.8373 0.489068 18.4389 0.488037H95.6749C96.2807 0.488037 96.8616 0.728672 97.29 1.15701C97.7183 1.58534 97.9589 2.16628 97.9589 2.77204V111.324C97.9589 111.93 97.7183 112.511 97.29 112.939C96.8616 113.367 96.2807 113.608 95.6749 113.608ZM18.4389 0.568037C17.8604 0.569097 17.3059 0.799663 16.8972 1.20913C16.4885 1.61859 16.2589 2.1735 16.2589 2.75204V111.324C16.2589 111.903 16.4885 112.457 16.8972 112.867C17.3059 113.276 17.8604 113.507 18.4389 113.508H95.6749C96.2538 113.507 96.8087 113.277 97.2181 112.867C97.6274 112.458 97.8579 111.903 97.8589 111.324V2.75204C97.8579 2.17313 97.6274 1.61823 97.2181 1.20888C96.8087 0.799533 96.2538 0.569095 95.6749 0.568037H18.4389Z" fill="#EBEBEB"/>
<path d="M182.199 113.608H104.959C104.354 113.607 103.773 113.366 103.345 112.938C102.917 112.51 102.676 111.929 102.675 111.324V2.75204C102.681 2.15008 102.925 1.57487 103.352 1.15107C103.78 0.727281 104.357 0.489056 104.959 0.488037H182.199C182.8 0.490119 183.376 0.728937 183.802 1.15273C184.228 1.57652 184.47 2.15114 184.475 2.75204V111.324C184.475 111.928 184.236 112.508 183.809 112.936C183.382 113.364 182.803 113.606 182.199 113.608ZM104.959 0.568037C104.38 0.569095 103.825 0.799533 103.416 1.20888C103.007 1.61823 102.776 2.17313 102.775 2.75204V111.324C102.776 111.903 103.007 112.458 103.416 112.867C103.825 113.277 104.38 113.507 104.959 113.508H182.199C182.778 113.507 183.333 113.277 183.742 112.867C184.152 112.458 184.382 111.903 184.383 111.324V2.75204C184.382 2.17313 184.152 1.61823 183.742 1.20888C183.333 0.799533 182.778 0.569095 182.199 0.568037H104.959Z" fill="#EBEBEB"/>
<path d="M150.139 30.4921H144.471V48.1361H150.139V30.4921Z" fill="#E6E6E6"/>
<path d="M165.503 48.136H146.695L143.855 27.484H162.663L165.503 48.136Z" fill="#F0F0F0"/>
<path d="M167.539 48.136H148.115L145.275 27.484H164.699L167.539 48.136Z" fill="#F5F5F5"/>
<path d="M149.519 46.5081L147.127 29.1121H163.295L165.691 46.5081H149.519Z" fill="white"/>
<path d="M152.715 41.2401L151.815 34.7121C151.788 34.5398 151.799 34.3638 151.848 34.1962C151.896 34.0286 151.98 33.8736 152.094 33.7419C152.208 33.6102 152.35 33.5049 152.509 33.4334C152.668 33.362 152.841 33.326 153.015 33.3281H158.891C159.185 33.3258 159.47 33.4318 159.691 33.6257C159.912 33.8196 160.055 34.0881 160.091 34.3801L160.987 40.9121C161.013 41.0841 161.001 41.2597 160.953 41.4267C160.904 41.5938 160.82 41.7483 160.706 41.8796C160.592 42.0108 160.451 42.1157 160.292 42.187C160.133 42.2582 159.961 42.2941 159.787 42.2921H153.919C153.624 42.2953 153.338 42.1898 153.116 41.9958C152.894 41.8018 152.751 41.5327 152.715 41.2401Z" fill="#F5F5F5"/>
<path d="M114.855 11.16H30.139V63.42H114.855V11.16Z" fill="#E6E6E6"/>
<path d="M117.031 11.16H31.155V63.42H117.031V11.16Z" fill="#F0F0F0"/>
<path d="M114.855 63.4241H30.139V67.4681H114.855V63.4241Z" fill="#E6E6E6"/>
<path d="M120.655 63.4241H34.7789V67.4681H120.655V63.4241Z" fill="#F0F0F0"/>
<path d="M113.983 60.376V14.208L34.203 14.208V60.376L113.983 60.376Z" fill="#FAFAFA"/>
<path d="M40.059 60.376L57.943 14.208H66.383L48.499 60.376H40.059Z" fill="white"/>
<path d="M50.3151 60.376L68.1991 14.208H71.4871L53.6031 60.376H50.3151Z" fill="white"/>
<path d="M81.6029 60.376L99.4869 14.208H102.775L84.8949 60.376H81.6029Z" fill="white"/>
<path d="M113.979 60.376V14.208H113.591V60.376H113.979Z" fill="#E6E6E6"/>
<path d="M179.075 48.136H161.139V131.448H179.075V48.136Z" fill="#E6E6E6"/>
<path d="M177.271 131.448H179.075V126.316H175.379L177.271 131.448Z" fill="#F0F0F0"/>
<path d="M147.647 48.136H129.711V131.448H147.647V48.136Z" fill="#E6E6E6"/>
<path d="M179.075 48.136H146.071V128.3H179.075V48.136Z" fill="#F0F0F0"/>
<path d="M147.875 131.448H146.071V126.316H149.767L147.875 131.448Z" fill="#F0F0F0"/>
<path d="M177.675 49.604H147.471V87.42H177.675V49.604Z" fill="#E6E6E6"/>
<path d="M165.843 52.548H159.303C157.897 52.5479 156.506 52.2613 155.214 51.7056C153.923 51.1499 152.758 50.3368 151.791 49.316H173.355C172.389 50.3374 171.224 51.1508 169.932 51.7066C168.641 52.2623 167.249 52.5486 165.843 52.548Z" fill="#F0F0F0"/>
<path d="M177.675 88.952H147.471V126.768H177.675V88.952Z" fill="#E6E6E6"/>
<path d="M165.843 91.8961H159.303C157.897 91.8959 156.506 91.6093 155.214 91.0536C153.923 90.4979 152.758 89.6849 151.791 88.6641H173.355C172.389 89.6854 171.224 90.4989 169.932 91.0546C168.641 91.6103 167.249 91.8966 165.843 91.8961Z" fill="#F0F0F0"/>
<path d="M52.675 74.4441H82.523L86.8511 92.0721H56.999L52.675 74.4441Z" fill="#E6E6E6"/>
<path d="M56.999 92.072L57.123 93.044H86.971L86.851 92.072H56.999Z" fill="#E6E6E6"/>
<path d="M53.595 74.4441H83.443L87.771 92.0721H57.919L53.595 74.4441Z" fill="#F0F0F0"/>
<path d="M58.5509 91.264L54.6189 75.248H82.8109L86.7429 91.264H58.5509Z" fill="white"/>
<path d="M65.699 92.072L65.819 93.044H98.687L98.567 92.072H65.699Z" fill="#F0F0F0"/>
<path d="M106.187 93.0441H102.611V131.444H106.187V93.0441Z" fill="#E6E6E6"/>
<path d="M107.319 93.0441H104.835V131.444H107.319V93.0441Z" fill="#F0F0F0"/>
<path d="M62.0071 97.4401H108.091V93.0441H62.0071V97.4401Z" fill="#F0F0F0"/>
<path d="M60.4029 97.4401H56.8269V131.444H60.4029V97.4401Z" fill="#E6E6E6"/>
<path d="M61.5311 97.4401H59.0471V131.444H61.5311V97.4401Z" fill="#F0F0F0"/>
<path d="M37.767 97.4401H34.191V131.444H37.767V97.4401Z" fill="#E6E6E6"/>
<path d="M38.899 97.4401H36.415V131.444H38.899V97.4401Z" fill="#F0F0F0"/>
<path d="M83.5549 97.4401H79.9789V131.444H83.5549V97.4401Z" fill="#E6E6E6"/>
<path d="M84.683 97.4401H82.199V131.444H84.683V97.4401Z" fill="#F0F0F0"/>
<path d="M62.003 93.0441H34.191V97.4401H62.003V93.0441Z" fill="#E6E6E6"/>
<path d="M117.811 131.448H116.943L114.475 119.192L114.039 117.044L111.303 103.688H100.903L95.2749 131.448H94.3949L100.139 103.176C100.157 103.082 100.207 102.998 100.279 102.936C100.352 102.874 100.444 102.839 100.539 102.836H111.675C111.771 102.835 111.865 102.869 111.938 102.931C112.012 102.994 112.06 103.081 112.075 103.176L114.475 114.904L114.875 117.048L117.811 131.448Z" fill="#F0F0F0"/>
<path d="M134.511 131.448H133.639L127.999 103.688H117.599L114.875 117.048L114.475 119.192L111.983 131.448H111.115L114.039 117.048L114.471 114.908L116.871 103.18C116.89 103.087 116.939 103.002 117.012 102.941C117.085 102.879 117.176 102.844 117.271 102.84H128.371C128.466 102.843 128.558 102.878 128.631 102.94C128.703 103.002 128.753 103.086 128.771 103.18L134.511 131.448Z" fill="#F0F0F0"/>
<path d="M108.875 103.26H127.987C131.635 103.26 133.659 100.78 134.691 96.692L135.195 94.356C135.365 93.6495 135.373 92.9135 135.217 92.2036C135.061 91.4938 134.746 90.8285 134.296 90.2581C133.846 89.6876 133.272 89.2268 132.618 88.9105C131.963 88.5942 131.246 88.4306 130.519 88.432H118.519C116.039 88.432 115.383 89.024 113.667 92.76C111.951 96.496 108.875 103.26 108.875 103.26Z" fill="#F0F0F0"/>
<path d="M119.295 103.26H98.9269C98.6734 103.26 98.4302 103.159 98.2509 102.98C98.0716 102.801 97.9709 102.558 97.9709 102.304V102.216C97.9709 101.873 98.0386 101.532 98.1701 101.215C98.3015 100.898 98.4942 100.609 98.7371 100.366C98.9801 100.123 99.2684 99.9306 99.5858 99.7992C99.9032 99.6677 100.243 99.6 100.587 99.6H119.295V103.264V103.26Z" fill="#F0F0F0"/>
<path d="M100.875 149.512C143.708 149.512 178.431 147.485 178.431 144.984C178.431 142.483 143.708 140.456 100.875 140.456C58.042 140.456 23.319 142.483 23.319 144.984C23.319 147.485 58.042 149.512 100.875 149.512Z" fill="#F5F5F5"/>
<path d="M82.087 132.188L79.527 133.836L74.887 128.44L77.447 126.792L82.087 132.188Z" fill="#FF8B7B"/>
<path opacity="0.2" d="M77.451 126.792L74.887 128.44L77.283 131.224L79.843 129.572L77.451 126.792Z" fill="black"/>
<path d="M62.5228 140.988L59.5788 141.276L56.5188 134.276L59.4628 133.988L62.5228 140.988Z" fill="#FF8B7B"/>
<path opacity="0.2" d="M56.5229 134.28L58.099 137.888H61.1669L59.463 133.992L56.5229 134.28Z" fill="black"/>
<path d="M40.1668 46.488C38.6868 46.62 38.6468 44.108 36.0468 45.288C32.7428 46.792 33.8588 49.124 31.2788 49.028C28.6988 48.932 26.9708 50.944 27.5468 52.444C28.1228 53.944 29.0148 55.364 27.1908 55.968C25.3668 56.572 24.1268 57.104 24.3908 58.616C24.6548 60.128 25.9468 60.736 23.7708 61.7C21.5948 62.664 21.8148 66.832 23.9468 66.836C26.0788 66.84 24.0348 68.916 25.9468 71.028C27.8588 73.14 30.7668 73.428 31.9788 72.388C33.1908 71.348 34.5428 70.488 36.8228 72.088C39.1028 73.688 42.9628 74.088 42.7868 71.552C42.6108 69.016 40.3868 67.352 42.4828 66.032C44.5788 64.712 47.2828 64.06 46.4348 61.492C45.8948 59.892 44.2628 58.5 45.5788 57.304C47.7188 55.36 47.7308 50.96 45.1068 49.844C43.5828 49.2 45.0508 46.048 40.1668 46.488Z" fill="#263238"/>
<path d="M37.319 66.256C37.247 67.456 37.095 68.524 36.919 69.648C36.743 70.772 36.487 71.868 36.195 72.968C35.9104 74.08 35.5482 75.1707 35.111 76.232C34.895 76.768 34.647 77.3 34.383 77.832C34.251 78.096 34.107 78.356 33.959 78.612C33.891 78.744 33.807 78.872 33.731 79.012L33.615 79.2C33.5363 79.3253 33.448 79.4443 33.351 79.556C33.1292 79.8066 32.8564 80.0071 32.551 80.144C32.2782 80.2676 31.9857 80.3421 31.687 80.364C31.2477 80.3893 30.8077 80.3295 30.391 80.188C29.7705 79.9748 29.1793 79.6845 28.631 79.324C27.6656 78.6924 26.752 77.9849 25.899 77.208C24.2546 75.7122 22.7212 74.0986 21.311 72.38L22.447 71.288C23.247 71.992 24.047 72.708 24.883 73.388C25.719 74.068 26.535 74.752 27.387 75.388C28.1982 76.0122 29.0538 76.5764 29.947 77.076C30.3247 77.29 30.7279 77.4553 31.147 77.568C31.2479 77.5993 31.3542 77.6088 31.459 77.596H31.379C31.3262 77.6218 31.2776 77.6555 31.235 77.696L31.215 77.716L31.303 77.552C31.359 77.444 31.423 77.34 31.475 77.228C31.587 77.0067 31.695 76.7827 31.799 76.556C31.999 76.1 32.199 75.636 32.359 75.152C32.695 74.192 32.975 73.2 33.223 72.192C33.471 71.184 33.659 70.156 33.827 69.12C33.995 68.084 34.123 67.024 34.227 66.04L37.319 66.256Z" fill="#FF8B7B"/>
<path d="M39.6428 66.6321C39.4828 67.6001 38.6788 69.4321 38.0428 70.7921C37.5708 71.7761 37.1868 72.5161 37.1868 72.5161L36.6268 72.2681L31.9908 70.2041C32.3428 67.7041 32.9148 65.0041 35.6708 63.7761C37.3908 63.0161 39.9268 64.8881 39.6428 66.6321Z" fill="#FA1239"/>
<path opacity="0.6" d="M39.6428 66.6321C39.4828 67.6001 38.6788 69.4321 38.0428 70.7921C37.5708 71.7761 37.1868 72.5161 37.1868 72.5161L36.6268 72.2681L31.9908 70.2041C32.3428 67.7041 32.9148 65.0041 35.6708 63.7761C37.3908 63.0161 39.9268 64.8881 39.6428 66.6321Z" fill="black"/>
<path opacity="0.3" d="M38.0309 70.792C37.5589 71.776 37.1749 72.5161 37.1749 72.5161L36.6149 72.268C36.6909 71.28 36.8869 69.724 37.4149 69.024C37.7447 69.5624 37.9547 70.1653 38.0309 70.792Z" fill="black"/>
<path d="M22.6229 72.2041L22.9909 69.5121L19.9709 70.4881C19.9709 70.4881 20.4509 72.1161 21.5269 72.7841L22.6229 72.2041Z" fill="#FF8B7B"/>
<path d="M21.6229 67.212L19.5149 68.368L19.9709 70.504L22.9909 69.512L21.6229 67.212Z" fill="#FF8B7B"/>
<path d="M78.583 133.028L81.363 131.028C81.4107 130.993 81.4694 130.977 81.5282 130.982C81.5871 130.987 81.6421 131.013 81.683 131.056L83.575 133.028C83.621 133.079 83.6556 133.139 83.6767 133.205C83.6977 133.27 83.7047 133.34 83.6972 133.408C83.6896 133.476 83.6677 133.542 83.6329 133.602C83.598 133.661 83.551 133.712 83.495 133.752C82.515 134.432 82.007 134.708 80.783 135.584C80.031 136.124 78.447 137.428 77.407 138.172C76.367 138.916 75.579 137.932 75.943 137.528C77.583 135.72 78.019 134.488 78.279 133.472C78.326 133.293 78.4334 133.136 78.583 133.028Z" fill="#263238"/>
<path d="M59.1909 140.368H62.7909C62.8556 140.369 62.9183 140.391 62.9694 140.431C63.0206 140.47 63.0576 140.526 63.0749 140.588L63.8749 143.444C63.8943 143.512 63.8977 143.583 63.8846 143.652C63.8715 143.721 63.8423 143.786 63.7995 143.841C63.7567 143.897 63.7014 143.942 63.638 143.972C63.5747 144.002 63.5051 144.018 63.4349 144.016C62.1629 144.016 61.5589 144.016 59.9709 144.016H55.1149C53.7949 144.016 53.5149 142.68 54.0629 142.56C56.5109 142.02 57.9229 141.272 58.6789 140.56C58.819 140.433 59.002 140.365 59.1909 140.368Z" fill="#263238"/>
<path d="M53.695 77.4721L41.907 81.2001C33.747 65.0481 34.911 64.1921 34.911 64.1921C34.911 64.1921 36.795 63.1161 38.755 62.2201C39.051 62.0841 39.351 61.9521 39.647 61.8201C41.3883 61.128 43.1769 60.5613 44.999 60.1241C45.267 60.0521 45.535 59.9881 45.799 59.9241C47.25 59.5959 48.7193 59.3541 50.199 59.2001C50.375 61.4361 50.551 63.3281 50.743 64.9721C50.991 67.1161 51.259 68.8321 51.543 70.3161C52.0679 72.7551 52.7876 75.1481 53.695 77.4721Z" fill="#FA1239"/>
<path opacity="0.6" d="M53.695 77.4721L41.907 81.2001C33.747 65.0481 34.911 64.1921 34.911 64.1921C34.911 64.1921 36.795 63.1161 38.755 62.2201C39.051 62.0841 39.351 61.9521 39.647 61.8201C41.3883 61.128 43.1769 60.5613 44.999 60.1241C45.267 60.0521 45.535 59.9881 45.799 59.9241C47.25 59.5959 48.7193 59.3541 50.199 59.2001C50.375 61.4361 50.551 63.3281 50.743 64.9721C50.991 67.1161 51.259 68.8321 51.543 70.3161C52.0679 72.7551 52.7876 75.1481 53.695 77.4721Z" fill="black"/>
<path opacity="0.3" d="M51.5749 70.324C50.4429 68.724 49.3589 65 49.6389 63.604L50.7589 64.98C51.0069 67.124 51.2749 68.84 51.5749 70.324Z" fill="black"/>
<path d="M42.3268 67.2081C42.3268 67.2081 45.2988 66.5641 46.2548 67.8561C47.5668 66.5641 47.1028 61.5161 46.4708 59.7161C45.9696 59.8012 45.4779 59.9352 45.0028 60.1161L42.9028 63.3641L42.3268 67.2081Z" fill="white"/>
<path d="M42.327 67.208C42.327 67.208 40.327 67.656 40.115 69.292C37.315 67.208 37.511 64.156 38.143 62.356C38.6228 62.1238 39.1273 61.9466 39.647 61.828L41.747 64.14L42.327 67.208Z" fill="white"/>
<path d="M43.0108 56.724C43.4108 58.196 44.0188 59.652 45.0108 60.132C45.0108 60.132 45.9348 62.78 42.3348 67.208C38.5668 64.524 39.6548 61.828 39.6548 61.828C41.4308 60.76 40.9308 59.352 40.1748 58.12L41.2188 56.444C41.3228 56.2826 41.4715 56.1548 41.6467 56.0762C41.8219 55.9976 42.0162 55.9715 42.2059 56.0012C42.3957 56.0308 42.5727 56.1149 42.7156 56.2432C42.8585 56.3715 42.961 56.5385 43.0108 56.724Z" fill="#FF8B7B"/>
<path opacity="0.2" d="M43.011 56.724C42.9631 56.5354 42.8609 56.365 42.717 56.2341C42.5731 56.1031 42.3938 56.0174 42.2015 55.9876C42.0093 55.9577 41.8125 55.9851 41.6356 56.0662C41.4588 56.1474 41.3097 56.2788 41.207 56.444L40.871 56.98C40.899 57.336 40.915 57.628 40.911 57.78C40.879 58.82 42.339 58.772 43.527 58.272C43.3152 57.7701 43.1427 57.2526 43.011 56.724Z" fill="black"/>
<path d="M35.7749 52.704C36.8149 55.54 37.1909 56.764 39.0949 57.812C41.9549 59.392 45.2109 57.496 45.0429 54.404C44.8909 51.624 43.2189 47.448 40.0469 47.14C39.3477 47.0692 38.6421 47.1783 37.9969 47.4568C37.3517 47.7353 36.7884 48.1741 36.3604 48.7315C35.9324 49.2889 35.654 49.9465 35.5515 50.6417C35.4491 51.3369 35.5259 52.0468 35.7749 52.704Z" fill="#FF8B7B"/>
<path d="M43.1308 48.4401C42.1548 47.5001 41.1308 46.4081 39.1708 46.6201C37.0028 46.8561 36.1468 48.1681 36.1468 48.1681L34.2828 52.2441C34.2828 52.2441 35.4388 57.4921 37.3468 55.0441C38.4468 53.6281 38.4748 51.4881 38.0748 49.8881C38.8244 49.7824 39.5632 49.6111 40.2828 49.3761C41.1628 49.7041 42.1508 49.7041 42.8828 49.0321C43.0428 48.8841 43.1588 48.7681 43.2428 48.6761L43.3108 48.6001C43.5268 48.3241 43.3468 48.3521 43.1308 48.4401ZM40.6108 49.2881C41.2941 49.0671 41.9884 48.8815 42.6908 48.7321C42.4297 49.0083 42.0969 49.2066 41.7296 49.3048C41.3623 49.403 40.975 49.3972 40.6108 49.2881Z" fill="#263238"/>
<path d="M35.919 55.588C36.2193 56.0914 36.7069 56.4553 37.275 56.6C38.027 56.788 38.383 56.112 38.155 55.4C37.951 54.772 37.315 53.916 36.555 54.036C36.3907 54.0661 36.2365 54.137 36.1068 54.2422C35.9771 54.3474 35.8759 54.4835 35.8125 54.6381C35.7492 54.7927 35.7258 54.9607 35.7444 55.1267C35.7629 55.2927 35.823 55.4513 35.919 55.588Z" fill="#FF8B7B"/>
<path d="M41.9069 81.204C41.9069 81.204 41.5069 105.36 44.6629 114.088C47.7029 122.456 56.7709 136.84 56.7709 136.84L62.0269 136.708C62.0269 136.708 53.6749 118.488 52.3109 111.288C50.0389 99.34 50.5389 78.488 50.5389 78.488L41.9069 81.204Z" fill="#FA1239"/>
<path opacity="0.3" d="M46.6268 83.288L48.0388 79.288L50.5388 78.488C50.5388 78.488 50.3108 87.98 50.8588 97.824C48.5908 93.456 46.6268 85.456 46.6268 83.288Z" fill="black"/>
<path d="M56.0308 137.112L62.5228 136.948L62.1468 134.952L55.0588 135.288L56.0308 137.112Z" fill="#263238"/>
<path d="M44.4749 80.424C44.4749 80.424 52.6749 99.18 57.9749 109.856C62.2549 118.48 75.5749 130.048 75.5749 130.048L79.2269 127.516C79.2269 127.516 69.2029 113.812 66.2469 107.964C56.7869 89.252 59.1189 81.54 53.6789 77.472L44.4749 80.424Z" fill="#FA1239"/>
<path d="M75.791 131.256L80.079 128.204L79.107 126.332L74.395 129.896L75.791 131.256Z" fill="#263238"/>
<path d="M53.6748 76.724L54.5388 77.612C54.6068 77.68 54.5388 77.796 54.3988 77.84L42.0348 81.748C41.9308 81.784 41.8268 81.748 41.7988 81.696L41.3588 80.672C41.3268 80.604 41.3988 80.512 41.5148 80.476L53.4548 76.696C53.4908 76.6812 53.5299 76.676 53.5685 76.6809C53.6071 76.6858 53.6437 76.7006 53.6748 76.724Z" fill="#263238"/>
<path d="M52.4749 78.5681L52.7949 78.4681C52.8589 78.4681 52.8989 78.396 52.8789 78.36L52.2989 77.0361C52.2817 77.0144 52.2579 76.9992 52.2311 76.9926C52.2043 76.9861 52.176 76.9887 52.1509 77.0001L51.8309 77.1041C51.7669 77.1241 51.7269 77.1721 51.7469 77.2121L52.3309 78.5321C52.3429 78.5721 52.4069 78.5881 52.4749 78.5681Z" fill="#FA1239"/>
<path d="M42.9509 81.5801L43.2709 81.4801C43.3349 81.4601 43.3709 81.4121 43.3549 81.3721L42.7709 80.0481C42.7709 80.0081 42.6869 79.9961 42.6229 80.0161L42.3029 80.1161C42.2429 80.1361 42.2029 80.1841 42.2189 80.2241L42.8029 81.5481C42.8209 81.5685 42.845 81.5826 42.8716 81.5883C42.8983 81.5941 42.926 81.5912 42.9509 81.5801Z" fill="#FA1239"/>
<path d="M47.711 80.0881L48.031 79.9881C48.095 79.9681 48.135 79.9201 48.115 79.8801L47.531 78.5561C47.531 78.5201 47.451 78.5041 47.387 78.5241L47.067 78.6241C47.003 78.6241 46.963 78.6921 46.983 78.7321L47.563 80.0561C47.583 80.0881 47.647 80.0881 47.711 80.0881Z" fill="#FA1239"/>
<path d="M40.751 52.0881C40.823 52.3241 41.003 52.4881 41.151 52.4321C41.299 52.3761 41.371 52.156 41.299 51.924C41.227 51.692 41.051 51.524 40.899 51.58C40.747 51.636 40.683 51.8441 40.751 52.0881Z" fill="#263238"/>
<path d="M43.411 51.2881C43.483 51.5241 43.663 51.6881 43.811 51.6321C43.959 51.5761 44.031 51.3601 43.963 51.1241C43.895 50.8881 43.711 50.7241 43.563 50.7801C43.415 50.8361 43.343 51.0521 43.411 51.2881Z" fill="#263238"/>
<path d="M43.4989 50.812L44.0149 50.48C44.0149 50.48 43.8589 51.008 43.4989 50.812Z" fill="#263238"/>
<path d="M42.7469 51.9C43.1181 52.3733 43.5513 52.7945 44.0349 53.152C43.9384 53.2726 43.817 53.3708 43.6788 53.4398C43.5407 53.5089 43.3893 53.5471 43.2349 53.552L42.7469 51.9Z" fill="#FF5652"/>
<path d="M42.4429 54.848C42.4539 54.8391 42.4621 54.8272 42.4663 54.8137C42.4706 54.8001 42.4708 54.7857 42.4669 54.772C42.4613 54.754 42.4492 54.7386 42.4329 54.729C42.4167 54.7194 42.3974 54.7162 42.3789 54.72C42.0884 54.8149 41.7794 54.8394 41.4776 54.7914C41.1758 54.7434 40.8896 54.6243 40.6429 54.444C40.6355 54.4377 40.627 54.4329 40.6178 54.4299C40.6086 54.4269 40.5989 54.4257 40.5892 54.4265C40.5796 54.4272 40.5701 54.4299 40.5615 54.4343C40.5529 54.4386 40.5452 54.4447 40.5389 54.452C40.5326 54.4594 40.5278 54.4679 40.5248 54.4771C40.5218 54.4863 40.5206 54.496 40.5213 54.5057C40.5221 54.5153 40.5247 54.5248 40.5291 54.5334C40.5335 54.542 40.5395 54.5497 40.5469 54.556C40.8122 54.7521 41.1204 54.8819 41.4461 54.9348C41.7717 54.9877 42.1052 54.962 42.4189 54.86L42.4429 54.848Z" fill="#263238"/>
<path d="M39.747 51.4361C39.7656 51.4185 39.7794 51.3965 39.787 51.3721C39.8464 51.2013 39.945 51.0468 40.0749 50.9211C40.2048 50.7954 40.3624 50.7018 40.535 50.6481C40.5551 50.646 40.5745 50.6396 40.592 50.6295C40.6095 50.6194 40.6247 50.6058 40.6366 50.5894C40.6484 50.5731 40.6567 50.5544 40.6609 50.5346C40.6651 50.5149 40.6651 50.4944 40.6608 50.4747C40.6566 50.4549 40.6482 50.4363 40.6363 50.4199C40.6244 50.4036 40.6092 50.39 40.5917 50.3799C40.5741 50.3699 40.5547 50.3636 40.5346 50.3616C40.5145 50.3595 40.4942 50.3617 40.475 50.3681C40.2526 50.4317 40.0492 50.5488 39.8826 50.7092C39.7159 50.8695 39.5911 51.0683 39.519 51.2881C39.5119 51.3059 39.5085 51.325 39.5089 51.3441C39.5094 51.3633 39.5136 51.3822 39.5214 51.3997C39.5293 51.4172 39.5405 51.433 39.5545 51.4461C39.5685 51.4592 39.585 51.4694 39.603 51.4761C39.6284 51.4813 39.6548 51.4804 39.6798 51.4734C39.7048 51.4665 39.7279 51.4537 39.747 51.4361Z" fill="#263238"/>
<path d="M44.2228 49.78C44.2215 49.7707 44.2215 49.7613 44.2228 49.752C44.2278 49.7146 44.2187 49.6767 44.1972 49.6456C44.1758 49.6146 44.1436 49.5926 44.1068 49.584C43.8827 49.5363 43.6505 49.5426 43.4293 49.6024C43.2081 49.6623 43.0044 49.7738 42.8348 49.928C42.8083 49.9556 42.7938 49.9926 42.7946 50.0308C42.7953 50.0691 42.8113 50.1055 42.8388 50.132C42.8664 50.1585 42.9034 50.173 42.9417 50.1722C42.9799 50.1715 43.0163 50.1556 43.0428 50.128C43.1783 50.008 43.3403 49.9219 43.5155 49.8767C43.6908 49.8315 43.8742 49.8285 44.0508 49.868C44.0853 49.8764 44.1216 49.8721 44.1532 49.8559C44.1847 49.8398 44.2095 49.8128 44.2228 49.78Z" fill="#263238"/>
<path d="M52.0069 62.032C52.4829 62.388 52.8829 62.72 53.2989 63.08C53.7149 63.44 54.0989 63.8 54.4989 64.176C55.2789 64.928 56.0309 65.712 56.7429 66.536C57.4628 67.3646 58.1308 68.2369 58.7429 69.148C58.9029 69.372 59.0429 69.616 59.1909 69.848C59.3389 70.08 59.4869 70.316 59.6189 70.564C59.7509 70.812 59.8909 71.032 60.0189 71.308L60.2309 71.752L60.4029 72.2C60.7716 73.3359 60.9448 74.5261 60.9149 75.72C60.8906 76.8294 60.7715 77.9348 60.5589 79.024C60.3509 80.092 60.0789 81.136 59.7589 82.16C59.4363 83.1858 59.0598 84.1938 58.6309 85.18L57.1829 84.644C57.4309 83.684 57.6669 82.676 57.8429 81.68C58.0384 80.6936 58.1813 79.6975 58.2709 78.696C58.3671 77.7257 58.3898 76.7496 58.3389 75.776C58.3103 75.3144 58.2542 74.8549 58.1709 74.4C58.0832 73.9801 57.9615 73.5681 57.8069 73.168L57.6829 72.892L57.5469 72.64C57.4389 72.456 57.2909 72.24 57.1469 72.036C57.0029 71.832 56.8829 71.636 56.7469 71.432C56.6109 71.228 56.4709 71.032 56.3189 70.84C55.7349 70.04 55.0749 69.312 54.4189 68.572C53.7629 67.832 53.0429 67.136 52.3109 66.456C51.9509 66.112 51.5789 65.776 51.2069 65.448C50.8349 65.12 50.4349 64.792 50.0909 64.512L52.0069 62.032Z" fill="#FF8B7B"/>
<path d="M57.6428 83.688L55.4508 85.288L58.2508 86.768C58.2508 86.768 59.0868 85.288 58.8188 84.052L57.6428 83.688Z" fill="#FF8B7B"/>
<path d="M54.7589 87.884L57.0509 88.592L58.2709 86.776L55.4509 85.296L54.7589 87.884Z" fill="#FF8B7B"/>
<path d="M50.215 59.2081C51.747 59.1401 54.759 62.9041 54.759 62.9041L51.631 67.3281C51.631 67.3281 48.119 64.5281 47.847 62.5801C47.619 60.9201 48.263 59.2881 50.215 59.2081Z" fill="#FA1239"/>
<path opacity="0.6" d="M50.215 59.2081C51.747 59.1401 54.759 62.9041 54.759 62.9041L51.631 67.3281C51.631 67.3281 48.119 64.5281 47.847 62.5801C47.619 60.9201 48.263 59.2881 50.215 59.2081Z" fill="black"/>
<path d="M77.531 134.28H77.483C77.4129 134.271 77.3463 134.244 77.2901 134.201C77.2339 134.158 77.19 134.101 77.163 134.036C77.142 133.998 77.131 133.955 77.131 133.912C77.131 133.869 77.142 133.826 77.163 133.788C77.359 133.452 78.459 133.388 78.583 133.388C78.5969 133.388 78.6106 133.392 78.6226 133.399C78.6346 133.406 78.6444 133.416 78.651 133.428C78.6589 133.44 78.6632 133.454 78.6632 133.468C78.6632 133.482 78.6589 133.496 78.651 133.508C78.383 133.804 77.907 134.28 77.531 134.28ZM78.411 133.548C77.971 133.58 77.387 133.684 77.287 133.86C77.2762 133.876 77.2704 133.895 77.2704 133.914C77.2704 133.933 77.2762 133.952 77.287 133.968C77.3039 134.012 77.3321 134.05 77.3686 134.08C77.4051 134.109 77.4487 134.129 77.495 134.136C77.707 134.16 78.043 133.94 78.411 133.548Z" fill="#FA1239"/>
<path d="M78.507 133.54C78.139 133.54 77.415 133.336 77.279 133.04C77.2573 132.988 77.2534 132.929 77.2678 132.875C77.2823 132.82 77.3143 132.771 77.359 132.736C77.4005 132.699 77.4494 132.671 77.5024 132.653C77.5555 132.636 77.6115 132.63 77.667 132.636C78.103 132.684 78.619 133.392 78.639 133.436C78.6457 133.447 78.6493 133.459 78.6493 133.472C78.6493 133.485 78.6457 133.497 78.639 133.508C78.6335 133.519 78.6255 133.528 78.6158 133.535C78.606 133.542 78.5948 133.546 78.583 133.548L78.507 133.54ZM77.619 132.78C77.5593 132.78 77.5019 132.803 77.459 132.844C77.391 132.904 77.399 132.952 77.411 132.984C77.499 133.176 78.067 133.384 78.439 133.384C78.255 133.156 77.911 132.796 77.639 132.768L77.619 132.78Z" fill="#FA1239"/>
<path d="M57.5869 140.964C57.3406 140.982 57.0947 140.923 56.8829 140.796C56.828 140.756 56.7829 140.703 56.7511 140.643C56.7192 140.583 56.7014 140.516 56.6989 140.448C56.6957 140.41 56.7024 140.372 56.7186 140.338C56.7347 140.303 56.7597 140.274 56.7909 140.252C57.1189 140.032 58.3469 140.588 58.5909 140.704C58.6045 140.71 58.6158 140.72 58.6231 140.733C58.6303 140.746 58.633 140.761 58.6309 140.776C58.6296 140.791 58.6234 140.806 58.6134 140.817C58.6033 140.829 58.5898 140.837 58.5749 140.84C58.2506 140.914 57.9196 140.956 57.5869 140.964ZM57.0149 140.34C56.9649 140.337 56.9151 140.349 56.8709 140.372C56.8606 140.38 56.8525 140.39 56.8476 140.402C56.8427 140.414 56.841 140.427 56.8429 140.44C56.8445 140.487 56.8568 140.533 56.879 140.575C56.9012 140.617 56.9326 140.653 56.9709 140.68C57.1829 140.84 57.6829 140.864 58.3269 140.744C57.9134 140.542 57.4707 140.405 57.0149 140.34Z" fill="#FA1239"/>
<path d="M58.559 140.84H58.535C58.135 140.672 57.303 140.012 57.335 139.672C57.335 139.6 57.395 139.504 57.579 139.484C58.299 139.396 58.603 140.684 58.615 140.756C58.6177 140.769 58.6168 140.783 58.6126 140.795C58.6084 140.808 58.601 140.819 58.591 140.828C58.5816 140.835 58.5706 140.839 58.559 140.84ZM57.675 139.62H57.627C57.551 139.62 57.511 139.652 57.503 139.688C57.479 139.884 58.047 140.408 58.463 140.636C58.355 140.32 58.095 139.62 57.675 139.62Z" fill="#FA1239"/>
<path d="M40.839 51.6041L41.355 51.2721C41.355 51.2721 41.199 51.8001 40.839 51.6041Z" fill="#263238"/>
<path d="M116.327 22.3561H58.195C57.5739 22.3518 56.9585 22.4749 56.3868 22.7175C55.8151 22.9602 55.2992 23.3175 54.8708 23.7672C54.4424 24.2169 54.1107 24.7496 53.8961 25.3325C53.6815 25.9153 53.5885 26.5359 53.623 27.1561L59.075 140.184C59.1526 141.472 59.7146 142.682 60.648 143.573C61.5814 144.463 62.8171 144.967 64.107 144.984H122.239C122.86 144.988 123.475 144.865 124.047 144.623C124.618 144.38 125.134 144.023 125.562 143.573C125.99 143.123 126.321 142.59 126.535 142.007C126.75 141.425 126.842 140.804 126.807 140.184L121.359 27.1561C121.281 25.8684 120.719 24.6579 119.786 23.7675C118.853 22.8772 117.617 22.3729 116.327 22.3561Z" fill="black"/>
<path d="M118.475 22.3561H60.3267C59.7058 22.3518 59.0906 22.4748 58.5191 22.7176C57.9476 22.9603 57.4319 23.3176 57.0038 23.7674C56.5758 24.2172 56.2444 24.7499 56.0303 25.3328C55.8161 25.9156 55.7237 26.5361 55.7587 27.1561L61.2067 140.184C61.2844 141.472 61.8463 142.682 62.7797 143.573C63.7131 144.463 64.9488 144.967 66.2387 144.984H124.371C124.992 144.988 125.607 144.865 126.178 144.623C126.75 144.38 127.266 144.023 127.694 143.573C128.122 143.123 128.453 142.59 128.667 142.007C128.881 141.425 128.974 140.804 128.939 140.184L123.491 27.1561C123.413 25.8712 122.854 24.6629 121.924 23.7729C120.993 22.8829 119.762 22.3769 118.475 22.3561Z" fill="#263238"/>
<path d="M66.0747 141.784C65.6465 141.773 65.2377 141.603 64.9279 141.308C64.618 141.012 64.4294 140.611 64.3987 140.184L58.9587 27.156C58.949 26.9497 58.9812 26.7436 59.0534 26.5501C59.1255 26.3566 59.2362 26.1797 59.3786 26.0302C59.5211 25.8806 59.6923 25.7615 59.8821 25.68C60.0719 25.5985 60.2762 25.5563 60.4827 25.556H118.615C119.043 25.5651 119.453 25.7343 119.764 26.0304C120.074 26.3266 120.262 26.7281 120.291 27.156L125.739 140.184C125.748 140.39 125.716 140.596 125.644 140.789C125.573 140.982 125.462 141.159 125.32 141.308C125.178 141.458 125.007 141.577 124.818 141.659C124.629 141.741 124.425 141.783 124.219 141.784H66.0747Z" fill="#FA1239"/>
<path opacity="0.1" d="M66.0468 140.984C65.833 140.977 65.6294 140.892 65.4745 140.744C65.3196 140.597 65.2244 140.397 65.2068 140.184L59.7588 27.1561C59.7551 27.0534 59.7719 26.9509 59.8082 26.8548C59.8446 26.7587 59.8998 26.6708 59.9706 26.5963C60.0414 26.5218 60.1263 26.4621 60.2205 26.4209C60.3146 26.3796 60.416 26.3576 60.5188 26.3561H118.651C118.865 26.3623 119.069 26.4475 119.224 26.5952C119.379 26.7428 119.474 26.9426 119.491 27.1561L124.939 140.184C124.943 140.287 124.926 140.389 124.889 140.485C124.853 140.581 124.798 140.669 124.727 140.744C124.656 140.818 124.571 140.878 124.477 140.919C124.383 140.96 124.282 140.983 124.179 140.984H66.0468Z" fill="black"/>
<g opacity="0.3">
<path d="M83.5907 134.488H72.0747C71.7586 134.485 71.4556 134.361 71.2269 134.143C70.9982 133.925 70.8609 133.628 70.8427 133.312L70.0027 115.828C69.9922 115.674 70.0138 115.519 70.0661 115.373C70.1184 115.227 70.2002 115.093 70.3065 114.981C70.4128 114.868 70.5412 114.779 70.6838 114.718C70.8263 114.657 70.9798 114.627 71.1347 114.628H82.6707C82.986 114.631 83.2886 114.753 83.5167 114.971C83.7448 115.189 83.8814 115.485 83.8987 115.8L84.7267 133.288C84.7366 133.443 84.7145 133.598 84.6617 133.744C84.609 133.89 84.5268 134.023 84.4202 134.136C84.3136 134.248 84.1849 134.338 84.0422 134.398C83.8994 134.459 83.7458 134.49 83.5907 134.488ZM71.1187 115.036C71.0189 115.036 70.92 115.055 70.8279 115.094C70.7358 115.132 70.6524 115.189 70.5827 115.26C70.5147 115.334 70.462 115.42 70.4277 115.514C70.3934 115.608 70.3781 115.708 70.3827 115.808L71.2267 133.288C71.2379 133.502 71.33 133.704 71.4846 133.853C71.6391 134.001 71.8444 134.085 72.0587 134.088H83.5907C83.691 134.089 83.7903 134.069 83.8826 134.03C83.9749 133.99 84.0581 133.933 84.1271 133.86C84.1961 133.787 84.2495 133.701 84.2838 133.607C84.3181 133.512 84.3327 133.412 84.3267 133.312L83.4827 115.828C83.4725 115.614 83.3812 115.413 83.2273 115.264C83.0734 115.115 82.8686 115.031 82.6547 115.028L71.1187 115.036Z" fill="#FAFAFA"/>
<path d="M82.5026 119.096H71.6746C71.6216 119.096 71.5707 119.075 71.5332 119.037C71.4957 119 71.4746 118.949 71.4746 118.896C71.4746 118.843 71.4957 118.792 71.5332 118.755C71.5707 118.717 71.6216 118.696 71.6746 118.696H82.5146C82.5677 118.696 82.6185 118.717 82.656 118.755C82.6935 118.792 82.7146 118.843 82.7146 118.896C82.7146 118.949 82.6935 119 82.656 119.037C82.6185 119.075 82.5677 119.096 82.5146 119.096H82.5026Z" fill="#FAFAFA"/>
<path d="M82.6146 121.356H71.7706C71.7178 121.355 71.6676 121.334 71.6303 121.296C71.593 121.259 71.5716 121.209 71.5706 121.156C71.5706 121.103 71.5916 121.052 71.6291 121.015C71.6666 120.977 71.7175 120.956 71.7706 120.956H82.6146C82.6676 120.956 82.7185 120.977 82.756 121.015C82.7935 121.052 82.8146 121.103 82.8146 121.156C82.8135 121.209 82.7921 121.259 82.7548 121.296C82.7176 121.334 82.6673 121.355 82.6146 121.356Z" fill="#FAFAFA"/>
<path d="M82.7226 123.616H71.8786C71.8259 123.615 71.7756 123.594 71.7383 123.556C71.701 123.519 71.6796 123.469 71.6786 123.416C71.6786 123.363 71.6997 123.312 71.7372 123.275C71.7747 123.237 71.8255 123.216 71.8786 123.216H82.7226C82.7756 123.216 82.8265 123.237 82.864 123.275C82.9015 123.312 82.9226 123.363 82.9226 123.416C82.9226 123.469 82.9015 123.52 82.864 123.557C82.8265 123.595 82.7756 123.616 82.7226 123.616Z" fill="#FAFAFA"/>
<path d="M82.8307 125.876H71.9906C71.9376 125.876 71.8867 125.855 71.8492 125.817C71.8117 125.78 71.7906 125.729 71.7906 125.676C71.7906 125.623 71.8117 125.572 71.8492 125.535C71.8867 125.497 71.9376 125.476 71.9906 125.476H82.8307C82.8837 125.476 82.9346 125.497 82.9721 125.535C83.0096 125.572 83.0307 125.623 83.0307 125.676C83.0307 125.729 83.0096 125.78 82.9721 125.817C82.9346 125.855 82.8837 125.876 82.8307 125.876Z" fill="#FAFAFA"/>
<path d="M82.9387 128.136H72.0987C72.0456 128.136 71.9948 128.115 71.9573 128.078C71.9198 128.04 71.8987 127.989 71.8987 127.936C71.8987 127.883 71.9198 127.832 71.9573 127.795C71.9948 127.757 72.0456 127.736 72.0987 127.736H82.9387C82.9917 127.736 83.0426 127.757 83.0801 127.795C83.1176 127.832 83.1387 127.883 83.1387 127.936C83.1387 127.989 83.1176 128.04 83.0801 128.078C83.0426 128.115 82.9917 128.136 82.9387 128.136Z" fill="#FAFAFA"/>
<path d="M80.8267 130.396H72.2067C72.1537 130.396 72.1028 130.375 72.0653 130.338C72.0278 130.3 72.0067 130.249 72.0067 130.196C72.0067 130.143 72.0278 130.092 72.0653 130.055C72.1028 130.017 72.1537 129.996 72.2067 129.996H80.8267C80.8798 129.996 80.9306 130.017 80.9681 130.055C81.0056 130.092 81.0267 130.143 81.0267 130.196C81.0257 130.249 81.0043 130.299 80.967 130.336C80.9297 130.374 80.8794 130.395 80.8267 130.396Z" fill="#FAFAFA"/>
</g>
<g opacity="0.3">
<path d="M90.8508 70.3401L82.9427 71.6041C82.6375 70.8515 82.234 70.1427 81.7427 69.4961C81.2694 68.9992 80.7096 68.5926 80.0907 68.2961L80.3867 74.4961C84.7841 75.6534 87.7428 76.8747 89.2628 78.1601C90.2318 78.9676 91.0182 79.9718 91.5699 81.1062C92.1215 82.2406 92.4259 83.4792 92.4628 84.7401C92.5686 86.2157 92.2974 87.6941 91.6747 89.0361C91.0825 90.288 90.2302 91.3993 89.1747 92.2961C88.1916 93.1382 87.0547 93.7821 85.8268 94.1921C84.3854 94.6254 82.8916 94.8596 81.3867 94.8881L81.4388 95.9801C81.4508 96.1822 81.4212 96.3846 81.3517 96.5748C81.2822 96.765 81.1743 96.9388 81.0347 97.0855C80.8952 97.2322 80.7269 97.3486 80.5404 97.4275C80.3539 97.5064 80.1532 97.5461 79.9508 97.5441C79.5301 97.5397 79.1268 97.3758 78.8223 97.0855C78.5179 96.7951 78.3351 96.4001 78.3107 95.9801L78.2588 94.8881C76.5032 94.7753 74.7699 94.4338 73.1028 93.8721C71.8257 93.4106 70.6446 92.7177 69.6188 91.8281C68.6824 91.0286 67.8896 90.0748 67.2747 89.0081C66.6582 87.8608 66.2096 86.6309 65.9427 85.3561L74.5467 84.3521C74.8721 85.7627 75.2721 86.7827 75.7467 87.4121C76.3431 88.1432 77.1094 88.7173 77.9787 89.0841L77.6148 81.5161C75.4839 80.9856 73.3976 80.2902 71.3747 79.4361C70.0661 78.7835 68.9413 77.8141 68.1028 76.6161C67.1226 75.2313 66.5806 73.5843 66.5467 71.8881C66.4538 70.7177 66.6167 69.5411 67.0243 68.4401C67.4318 67.339 68.0742 66.3399 68.9068 65.5121C70.6028 63.8027 73.2028 62.8561 76.7068 62.6721L76.6787 62.1161C76.6667 61.914 76.6963 61.7115 76.7658 61.5213C76.8353 61.3312 76.9432 61.1573 77.0828 61.0106C77.2223 60.8639 77.3906 60.7475 77.5771 60.6686C77.7636 60.5897 77.9643 60.5501 78.1667 60.5521C78.5874 60.5564 78.9907 60.7204 79.2952 61.0107C79.5996 61.301 79.7824 61.6961 79.8068 62.1161L79.8347 62.6721C83.0347 62.8721 85.5161 63.6294 87.2787 64.9441C89.0517 66.2811 90.3125 68.1857 90.8508 70.3401ZM76.9708 68.2001C76.2576 68.3829 75.6136 68.7709 75.1188 69.3161C74.782 69.768 74.6188 70.3259 74.6588 70.8881C74.6799 71.4911 74.8992 72.0703 75.2828 72.5361C75.8168 73.0964 76.4928 73.5015 77.2388 73.7081L76.9708 68.2001ZM81.1188 89.2881C82.3188 89.0214 83.1854 88.5734 83.7188 87.9441C83.9748 87.661 84.1723 87.3301 84.3 86.9703C84.4277 86.6106 84.483 86.2292 84.4628 85.8481C84.422 85.1535 84.1389 84.4953 83.6628 83.9881C83.1588 83.4241 82.1987 82.8961 80.7907 82.4121L81.1188 89.2881Z" fill="#FAFAFA"/>
</g>
<path opacity="0.2" d="M111.755 37.1121H72.1548L76.0148 117.156C76.2032 120.435 77.6296 123.521 80.0057 125.788C82.3819 128.056 85.5304 129.337 88.8148 129.372H128.415L124.559 49.3281C124.372 46.0475 122.946 42.9605 120.568 40.6923C118.191 38.4241 115.04 37.1443 111.755 37.1121Z" fill="black"/>
<path d="M121.455 37.1121H72.1667C75.4514 37.1463 78.6005 38.4269 80.9768 40.6948C83.3532 42.9627 84.7793 46.0486 84.9667 49.3281L88.1148 114.488C88.3031 117.767 89.7296 120.853 92.1057 123.12C94.4818 125.388 97.6304 126.669 100.915 126.704H125.767C127.349 126.721 128.918 126.411 130.375 125.796C131.833 125.18 133.149 124.271 134.24 123.125C135.331 121.979 136.175 120.621 136.719 119.135C137.264 117.65 137.496 116.068 137.403 114.488L134.259 49.3281C134.072 46.0475 132.646 42.9605 130.268 40.6923C127.891 38.4241 124.74 37.1443 121.455 37.1121Z" fill="#FAFAFA"/>
<path d="M112.547 114.488C112.641 116.067 112.409 117.648 111.866 119.133C111.323 120.619 110.48 121.976 109.389 123.122C108.299 124.268 106.985 125.177 105.529 125.793C104.072 126.409 102.504 126.719 100.923 126.704H150.207C151.788 126.719 153.356 126.409 154.813 125.793C156.27 125.177 157.584 124.268 158.675 123.122C159.765 121.977 160.609 120.619 161.152 119.134C161.696 117.648 161.928 116.067 161.835 114.488H112.547Z" fill="#E6E6E6"/>
<path d="M128.395 77.5561H93.5628C93.3187 77.5535 93.0846 77.4583 92.9079 77.2898C92.7312 77.1212 92.625 76.8919 92.6108 76.6481C92.6043 76.5309 92.6218 76.4135 92.6623 76.3033C92.7029 76.1931 92.7655 76.0924 92.8465 76.0073C92.9274 75.9222 93.0249 75.8546 93.133 75.8087C93.2411 75.7627 93.3574 75.7394 93.4748 75.7401H128.307C128.554 75.7387 128.792 75.8321 128.972 76.001C129.152 76.17 129.261 76.4016 129.275 76.6481C129.282 76.7667 129.264 76.8854 129.222 76.9968C129.181 77.1081 129.116 77.2096 129.034 77.2949C128.951 77.3802 128.852 77.4475 128.742 77.4924C128.632 77.5374 128.514 77.5591 128.395 77.5561Z" fill="#FA1239"/>
<path d="M128.667 83.2241H93.8347C93.5905 83.2215 93.3564 83.1263 93.1797 82.9577C93.003 82.7892 92.8969 82.5599 92.8827 82.3161C92.8761 82.1989 92.8937 82.0815 92.9342 81.9713C92.9747 81.8611 93.0374 81.7603 93.1183 81.6753C93.1993 81.5902 93.2968 81.5226 93.4049 81.4767C93.5129 81.4307 93.6293 81.4074 93.7467 81.4081H128.583C128.826 81.4117 129.059 81.5074 129.235 81.6758C129.411 81.8442 129.517 82.073 129.531 82.3161C129.537 82.4334 129.52 82.5507 129.479 82.6609C129.439 82.7711 129.376 82.8719 129.295 82.957C129.214 83.042 129.117 83.1096 129.009 83.1556C128.9 83.2015 128.784 83.2248 128.667 83.2241Z" fill="#FA1239"/>
<path d="M128.943 88.888H94.1068C93.8626 88.8854 93.6285 88.7902 93.4518 88.6217C93.2751 88.4531 93.169 88.2238 93.1548 87.98C93.1482 87.8628 93.1658 87.7454 93.2063 87.6352C93.2468 87.525 93.3095 87.4243 93.3904 87.3392C93.4714 87.2541 93.5689 87.1865 93.677 87.1406C93.785 87.0946 93.9014 87.0713 94.0188 87.072H128.875C129.119 87.0747 129.353 87.1699 129.53 87.3384C129.706 87.5069 129.813 87.7363 129.827 87.98C129.833 88.099 129.815 88.2181 129.774 88.3297C129.732 88.4413 129.667 88.543 129.584 88.6283C129.501 88.7137 129.401 88.7809 129.291 88.8256C129.18 88.8703 129.062 88.8916 128.943 88.888Z" fill="#FA1239"/>
<path d="M129.215 94.5641H94.3828C94.1389 94.5605 93.9053 94.465 93.7288 94.2966C93.5523 94.1283 93.4459 93.8995 93.4308 93.6561C93.4242 93.5388 93.4418 93.4215 93.4823 93.3113C93.5228 93.201 93.5855 93.1003 93.6664 93.0152C93.7474 92.9301 93.8449 92.8626 93.953 92.8166C94.061 92.7707 94.1774 92.7473 94.2948 92.7481H129.127C129.371 92.7507 129.605 92.8459 129.782 93.0144C129.958 93.183 130.065 93.4123 130.079 93.6561C130.085 93.7733 130.068 93.8907 130.027 94.0009C129.987 94.1111 129.924 94.2118 129.843 94.2969C129.762 94.382 129.665 94.4496 129.557 94.4955C129.449 94.5415 129.332 94.5648 129.215 94.5641Z" fill="#FA1239"/>
<path d="M115.639 100.232H94.6549C94.4107 100.229 94.1766 100.134 93.9999 99.9657C93.8232 99.7971 93.7171 99.5678 93.7029 99.324C93.6963 99.2068 93.7138 99.0894 93.7544 98.9792C93.7949 98.869 93.8576 98.7683 93.9385 98.6832C94.0195 98.5981 94.117 98.5305 94.225 98.4846C94.3331 98.4386 94.4494 98.4153 94.5669 98.416H115.551C115.795 98.4187 116.029 98.5139 116.206 98.6824C116.383 98.8509 116.489 99.0802 116.503 99.324C116.509 99.4413 116.492 99.5586 116.451 99.6688C116.411 99.7791 116.348 99.8798 116.267 99.9649C116.186 100.05 116.089 100.118 115.981 100.163C115.873 100.209 115.756 100.233 115.639 100.232Z" fill="#FA1239"/>
<path d="M118.059 65.8071C122.181 61.5848 121.93 54.6554 117.499 50.3299C113.068 46.0044 106.135 45.9207 102.013 50.1431C97.8912 54.3654 98.1418 61.2947 102.573 65.6202C107.004 69.9458 113.937 70.0294 118.059 65.8071Z" fill="#FA1239"/>
<path d="M119.067 57.9681C119.142 59.4545 118.838 60.9357 118.183 62.2721C117.472 63.705 116.372 64.9086 115.009 65.7449C113.645 66.5811 112.074 67.0162 110.475 67.0001C108.82 66.9876 107.197 66.5452 105.765 65.7163C104.333 64.8875 103.141 63.7006 102.307 62.2721C101.528 60.9654 101.081 59.4875 101.007 57.9681C100.937 56.8007 101.109 55.6317 101.511 54.5335C101.913 53.4353 102.536 52.4315 103.342 51.5844C104.148 50.7373 105.12 50.0651 106.197 49.6095C107.274 49.1539 108.433 48.9247 109.603 48.9361C112.03 48.9662 114.355 49.9146 116.111 51.5905C117.867 53.2663 118.923 55.545 119.067 57.9681Z" fill="white"/>
<path opacity="0.4" d="M118.183 62.2721C117.472 63.705 116.372 64.9086 115.009 65.7449C113.646 66.5811 112.074 67.0162 110.475 67.0001C108.82 66.9876 107.197 66.5452 105.765 65.7164C104.334 64.8875 103.142 63.7006 102.307 62.2721C104.609 60.6925 107.339 59.855 110.131 59.8721C112.99 59.8774 115.787 60.711 118.183 62.2721Z" fill="#FA1239"/>
<path opacity="0.4" d="M112.832 57.7511C114.347 56.1988 114.256 53.6518 112.628 52.0624C111 50.4729 108.451 50.4428 106.936 51.9951C105.42 53.5475 105.512 56.0944 107.14 57.6839C108.768 59.2734 111.317 59.3035 112.832 57.7511Z" fill="#FA1239"/>
<path d="M143.579 141.984H140.643L140.347 135.176H143.287L143.579 141.984Z" fill="#B55B52"/>
<path opacity="0.2" d="M140.351 135.18L140.499 138.688H143.439L143.287 135.18H140.351Z" fill="black"/>
<path d="M168.591 134.008L165.799 134.92L162.283 128.908L165.079 127.996L168.591 134.008Z" fill="#B55B52"/>
<path opacity="0.2" d="M165.079 127.996L162.283 128.908L164.099 132.008L166.891 131.096L165.079 127.996Z" fill="black"/>
<path d="M153.515 43.656C153.879 44.1 154.187 44.496 154.503 44.932C154.819 45.368 155.119 45.784 155.419 46.216C156.011 47.084 156.579 47.972 157.111 48.888C158.218 50.7464 159.121 52.7193 159.803 54.772L159.871 54.972L159.903 55.076L159.947 55.24L160.027 55.568L160.071 55.868C160.118 56.2273 160.133 56.5901 160.115 56.952C160.078 57.5623 159.99 58.1684 159.851 58.764C159.598 59.8311 159.262 60.8769 158.847 61.892C158.056 63.838 157.098 65.7116 155.983 67.492L153.983 66.536C154.583 64.66 155.183 62.74 155.623 60.872C155.852 59.9715 156.026 59.0578 156.143 58.136C156.192 57.738 156.207 57.3365 156.187 56.936C156.181 56.7933 156.162 56.6514 156.131 56.512L156.111 56.44C156.104 56.4271 156.097 56.4137 156.091 56.4L156.059 56.324L155.995 56.168L155.727 55.54L155.427 54.916C155.227 54.516 155.007 54.084 154.787 53.668C154.331 52.844 153.839 52.024 153.327 51.208C152.815 50.392 152.271 49.608 151.727 48.808C151.183 48.008 150.587 47.208 150.047 46.484L153.515 43.656Z" fill="#B55B52"/>
<path d="M154.167 66.0399L153.019 68.5799H156.303C156.303 68.5799 156.827 66.6519 155.635 65.8719L154.167 66.0399Z" fill="#B55B52"/>
<path d="M153.403 71.436L156.451 70.848L156.303 68.58H153.019L153.403 71.436Z" fill="#B55B52"/>
<path d="M138.963 30.7639C138.963 31.0039 138.839 31.1959 138.683 31.1959C138.527 31.1959 138.403 31.0039 138.403 30.7639C138.403 30.5239 138.531 30.3359 138.683 30.3359C138.835 30.3359 138.963 30.5279 138.963 30.7639Z" fill="#263238"/>
<path d="M138.875 31.1959C138.593 31.9197 138.212 32.6008 137.743 33.2199C137.905 33.3359 138.09 33.4152 138.285 33.4525C138.481 33.4898 138.682 33.4842 138.875 33.4359V31.1959Z" fill="#A02724"/>
<path d="M139.803 29.4519C139.774 29.4523 139.746 29.4424 139.723 29.4239C139.584 29.3191 139.422 29.2482 139.25 29.217C139.079 29.1857 138.902 29.195 138.735 29.2439C138.702 29.253 138.666 29.2494 138.635 29.2337C138.604 29.2181 138.58 29.1915 138.568 29.1591C138.555 29.1267 138.555 29.0909 138.568 29.0585C138.58 29.0262 138.604 28.9996 138.635 28.9839C138.846 28.917 139.069 28.9017 139.287 28.9393C139.505 28.9769 139.711 29.0663 139.887 29.1999C139.917 29.2222 139.936 29.255 139.942 29.2915C139.948 29.328 139.94 29.3654 139.919 29.3959C139.905 29.4134 139.888 29.4275 139.867 29.4372C139.847 29.4469 139.825 29.4519 139.803 29.4519Z" fill="#263238"/>
<path d="M146.615 33.496C146.191 35.648 145.771 39.588 147.275 41.02C147.275 41.02 146.687 43.2 142.695 43.2C138.295 43.2 140.595 41.02 140.595 41.02C142.995 40.448 142.931 38.672 142.511 37L146.615 33.496Z" fill="#B55B52"/>
<path d="M147.851 41.768C148.167 41.08 148.515 40.288 147.795 40.04C146.995 39.768 142.691 39.492 141.199 40.004C141.003 40.0584 140.819 40.1512 140.659 40.2771C140.499 40.403 140.366 40.5594 140.267 40.7373C140.168 40.9153 140.105 41.1111 140.083 41.3134C140.06 41.5158 140.078 41.7206 140.135 41.916L147.851 41.768Z" fill="#263238"/>
<path d="M165.195 135.62C164.979 135.828 164.735 135.996 164.551 135.968C164.493 135.956 164.44 135.927 164.399 135.884C164.358 135.841 164.332 135.787 164.323 135.728C164.311 135.683 164.309 135.635 164.317 135.589C164.325 135.542 164.344 135.498 164.371 135.46C164.611 135.088 165.571 134.928 165.623 134.924C165.636 134.922 165.649 134.924 165.661 134.929C165.673 134.934 165.683 134.942 165.691 134.952C165.699 134.963 165.703 134.976 165.703 134.99C165.703 135.004 165.699 135.017 165.691 135.028C165.547 135.242 165.381 135.441 165.195 135.62ZM164.543 135.468C164.522 135.487 164.503 135.509 164.487 135.532C164.471 135.555 164.46 135.581 164.455 135.609C164.45 135.637 164.452 135.665 164.459 135.692C164.491 135.816 164.551 135.828 164.571 135.828C164.775 135.86 165.211 135.428 165.479 135.092C165.143 135.147 164.824 135.275 164.543 135.468Z" fill="#FA1239"/>
<path d="M165.675 135.04L165.643 135.06C165.311 135.148 164.443 135.092 164.259 134.812C164.232 134.767 164.22 134.715 164.226 134.663C164.231 134.61 164.254 134.562 164.291 134.524C164.325 134.484 164.368 134.45 164.415 134.426C164.462 134.402 164.514 134.388 164.567 134.384C165.007 134.352 165.643 134.916 165.671 134.94C165.681 134.948 165.688 134.959 165.691 134.971C165.695 134.983 165.695 134.996 165.691 135.008C165.69 135.02 165.684 135.032 165.675 135.04ZM164.423 134.592L164.399 134.616C164.343 134.684 164.367 134.72 164.375 134.736C164.483 134.9 165.091 134.992 165.467 134.948C165.219 134.723 164.91 134.576 164.579 134.524C164.523 134.528 164.471 134.552 164.431 134.592H164.423Z" fill="#FA1239"/>
<path d="M139.459 142.132C139.083 142.132 138.719 142.08 138.599 141.912C138.567 141.868 138.549 141.815 138.549 141.76C138.549 141.705 138.567 141.652 138.599 141.608C138.623 141.567 138.654 141.532 138.692 141.503C138.73 141.475 138.773 141.455 138.819 141.444C139.307 141.312 140.335 141.896 140.379 141.924C140.392 141.931 140.402 141.941 140.407 141.954C140.413 141.967 140.415 141.982 140.411 141.996C140.409 142.009 140.403 142.022 140.394 142.032C140.384 142.042 140.372 142.049 140.359 142.052C140.062 142.104 139.761 142.131 139.459 142.132ZM138.995 141.564C138.95 141.558 138.904 141.558 138.859 141.564C138.831 141.569 138.804 141.581 138.781 141.597C138.757 141.614 138.738 141.635 138.723 141.66C138.675 141.748 138.691 141.792 138.723 141.816C138.859 142.004 139.603 142.008 140.147 141.932C139.791 141.736 139.399 141.611 138.995 141.564Z" fill="#FA1239"/>
<path d="M140.347 142.052H140.319C139.967 141.892 139.263 141.252 139.315 140.924C139.315 140.844 139.383 140.748 139.575 140.728C139.646 140.72 139.719 140.726 139.787 140.747C139.856 140.768 139.92 140.802 139.975 140.848C140.347 141.156 140.427 141.948 140.431 141.98C140.431 141.992 140.428 142.004 140.422 142.016C140.417 142.027 140.409 142.036 140.399 142.044C140.391 142.049 140.383 142.052 140.374 142.053C140.365 142.055 140.356 142.054 140.347 142.052ZM139.631 140.852H139.591C139.463 140.852 139.455 140.912 139.455 140.928C139.423 141.128 139.899 141.628 140.255 141.844C140.22 141.508 140.08 141.191 139.855 140.94C139.791 140.889 139.712 140.861 139.631 140.86V140.852Z" fill="#FA1239"/>
<path d="M165.555 134.596L167.955 132.312C167.997 132.271 168.052 132.245 168.11 132.24C168.168 132.235 168.227 132.251 168.275 132.284L170.499 133.772C170.553 133.808 170.598 133.856 170.63 133.912C170.663 133.969 170.682 134.032 170.687 134.096C170.691 134.161 170.681 134.226 170.657 134.286C170.633 134.346 170.595 134.4 170.547 134.444C169.703 135.244 169.251 135.568 168.203 136.568C167.555 137.188 165.627 139.288 164.735 140.144C163.843 141 162.883 140.224 163.171 139.796C164.467 137.872 165.275 136.028 165.347 135.056C165.36 134.883 165.434 134.72 165.555 134.596Z" fill="#263238"/>
<path d="M140.659 141.644H143.859C143.917 141.644 143.973 141.663 144.019 141.7C144.064 141.736 144.095 141.787 144.107 141.844L144.687 144.456C144.702 144.519 144.702 144.584 144.687 144.647C144.673 144.71 144.644 144.768 144.604 144.818C144.563 144.869 144.512 144.909 144.454 144.936C144.395 144.963 144.331 144.977 144.267 144.976C143.107 144.976 141.435 144.892 139.979 144.892C138.279 144.892 136.811 144.984 134.815 144.984C133.615 144.984 133.275 143.764 133.779 143.652C136.075 143.152 137.955 143.096 139.939 141.872C140.153 141.73 140.402 141.651 140.659 141.644Z" fill="#263238"/>
<path d="M136.475 47.688C135.307 49.408 134.103 51.016 132.807 52.604C131.506 54.2114 130.116 55.7445 128.643 57.196L128.075 57.748L127.931 57.884L127.827 57.98L127.675 58.088C127.487 58.2399 127.284 58.3738 127.071 58.488C126.396 58.8442 125.653 59.0528 124.891 59.1C123.729 59.1688 122.562 59.0718 121.427 58.812C119.37 58.3583 117.376 57.6572 115.487 56.724L116.223 54.644C118.096 55.0184 119.99 55.2776 121.895 55.42C122.732 55.4861 123.574 55.4512 124.403 55.316C124.641 55.2804 124.868 55.1915 125.067 55.056C125.087 55.056 125.067 55.032 125.067 55.032L125.099 55L125.215 54.868L125.691 54.348C126.939 52.924 128.151 51.404 129.327 49.852C130.503 48.3 131.683 46.708 132.807 45.156L136.475 47.688Z" fill="#B55B52"/>
<path d="M152.539 41.688C155.291 42.32 158.451 49.828 158.451 49.828L152.919 53.62C151.545 51.6457 150.327 49.5674 149.275 47.404C147.635 43.968 149.723 41.04 152.539 41.688Z" fill="#FA1239"/>
<path opacity="0.3" d="M150.563 46.4879L153.179 53.4519L152.919 53.6319C152.919 53.6319 151.787 52.0319 150.563 49.8999V46.4879Z" fill="black"/>
<path d="M136.075 41.836C136.075 41.836 132.947 45.368 135.903 67.236H151.619C151.727 64.836 150.211 53.052 152.539 41.684C150.801 41.3497 149.042 41.1279 147.275 41.02C145.05 40.8919 142.82 40.8919 140.595 41.02C139.069 41.1737 137.558 41.4466 136.075 41.836Z" fill="#FA1239"/>
<path opacity="0.3" d="M137.819 48.1599C137.41 50.6415 136.338 52.9662 134.715 54.8879C134.651 53.4799 134.627 52.2159 134.631 51.0839L137.819 48.1599Z" fill="black"/>
<path d="M139.175 44.2199C139.575 46.9999 134.079 54.1079 134.079 54.1079L128.571 50.3159C128.571 50.3159 130.099 46.3999 132.671 43.8319C135.611 40.8879 138.755 41.1919 139.175 44.2199Z" fill="#FA1239"/>
<path d="M116.603 54.8879L114.447 52.6599L112.147 55.6239C112.147 55.6239 113.899 57.3159 115.983 56.8239L116.603 54.8879Z" fill="#B55B52"/>
<path d="M111.487 51.4199L110.499 54.5319L112.147 55.6119L114.447 52.6479L111.487 51.4199Z" fill="#B55B52"/>
<path d="M146.875 30.264C146.695 33.172 146.739 34.888 145.275 36.38C143.063 38.628 139.471 37.296 138.779 34.38C138.151 31.764 138.551 27.444 141.399 26.288C142.026 26.0302 142.709 25.9372 143.383 26.0178C144.056 26.0983 144.698 26.3498 145.246 26.7483C145.795 27.1467 146.233 27.6789 146.518 28.2943C146.803 28.9097 146.926 29.5877 146.875 30.264Z" fill="#B55B52"/>
<path d="M149.407 24.188C150.303 25.012 149.923 25.932 149.455 26.104C150.907 26.404 151.119 27.56 150.355 30C149.627 32.336 147.863 35.468 145.659 35.66C142.347 35.948 141.379 32.496 141.355 29.072C139.483 29.188 140.291 27.528 137.991 27.912C135.991 28.244 136.743 26.684 135.043 26.004C133.071 25.204 133.467 22.184 135.307 23.052C135.307 23.052 134.455 23.612 135.447 24.14C136.439 24.668 136.343 23.448 138.307 23.3C140.271 23.152 140.499 24.832 142.795 23.82C145.675 22.548 147.567 22.488 149.407 24.188Z" fill="#263238"/>
<path d="M148.303 26.0879C148.434 25.8784 148.628 25.7167 148.858 25.6266C149.088 25.5365 149.341 25.523 149.579 25.5879C150.479 25.7799 150.551 26.1759 151.115 26.1239C151.679 26.0719 151.475 26.6719 151.475 26.6719C151.475 26.6719 151.323 26.2199 150.643 26.4719C149.963 26.7239 149.519 26.1079 149.227 26.3839C148.935 26.6599 148.303 26.0879 148.303 26.0879Z" fill="#263238"/>
<path d="M142.923 31.056C142.795 31.7691 142.433 32.4193 141.895 32.904C141.183 33.536 140.567 33.028 140.543 32.164C140.543 31.384 140.875 30.112 141.695 29.808C142.515 29.504 143.071 30.192 142.923 31.056Z" fill="#B55B52"/>
<path d="M141.475 67.236C141.475 67.236 144.811 89.688 146.643 98.088C148.643 107.288 162.583 131.768 162.583 131.768L167.703 130.104C167.703 130.104 156.603 108.048 155.459 98.924C154.215 89.024 151.619 67.22 151.619 67.22L141.475 67.236Z" fill="#263238"/>
<path d="M161.151 130.168C161.131 130.168 162.323 131.96 162.323 131.96L168.075 130.088L167.399 128.368L161.151 130.168Z" fill="#FA1239"/>
<path opacity="0.3" d="M143.583 75.236C147.439 75.992 147.031 90.372 146.567 97.768C145.455 92.54 143.827 82.48 142.715 75.34C142.984 75.2074 143.29 75.1707 143.583 75.236Z" fill="black"/>
<path d="M135.903 67.236C135.903 67.236 135.503 89.208 135.815 98.168C136.147 107.488 139.415 138.008 139.415 138.008H144.395C144.395 138.008 144.575 108.032 144.795 98.88C145.035 88.88 146.239 67.236 146.239 67.236H135.903Z" fill="#263238"/>
<path d="M138.447 136.024C138.423 136.024 138.727 138.092 138.727 138.092H144.783L144.947 136.248L138.447 136.024Z" fill="#FA1239"/>
</svg>
