<svg width="201" height="150" viewBox="0 0 201 150" fill="none" xmlns="http://www.w3.org/2000/svg">
<path d="M200.625 131.448H0.625V131.548H200.625V131.448Z" fill="#EBEBEB"/>
<path d="M180.585 137.884H167.337V137.984H180.585V137.884Z" fill="#EBEBEB"/>
<path d="M162.301 137.884H133.977V137.984H162.301V137.884Z" fill="#EBEBEB"/>
<path d="M118.357 134.172H110.681V134.272H118.357V134.172Z" fill="#EBEBEB"/>
<path d="M35.325 134.844H21.609V134.944H35.325V134.844Z" fill="#EBEBEB"/>
<path d="M63.825 134.844H38.885V134.944H63.825V134.844Z" fill="#EBEBEB"/>
<path d="M90.681 136.532H75.957V136.632H90.681V136.532Z" fill="#EBEBEB"/>
<path d="M95.4249 113.608H18.1889C17.5839 113.607 17.004 113.366 16.5765 112.938C16.149 112.509 15.9089 111.929 15.9089 111.324V2.75204C15.9142 2.15045 16.1566 1.57523 16.5835 1.15132C17.0104 0.72742 17.5873 0.489068 18.1889 0.488037H95.4249C96.0307 0.488037 96.6116 0.728672 97.04 1.15701C97.4683 1.58534 97.7089 2.16628 97.7089 2.77204V111.324C97.7089 111.93 97.4683 112.511 97.04 112.939C96.6116 113.367 96.0307 113.608 95.4249 113.608ZM18.1889 0.568037C17.6104 0.569097 17.0559 0.799663 16.6472 1.20913C16.2385 1.61859 16.0089 2.1735 16.0089 2.75204V111.324C16.0089 111.903 16.2385 112.457 16.6472 112.867C17.0559 113.276 17.6104 113.507 18.1889 113.508H95.4249C96.0038 113.507 96.5587 113.277 96.9681 112.867C97.3774 112.458 97.6079 111.903 97.6089 111.324V2.75204C97.6079 2.17313 97.3774 1.61823 96.9681 1.20888C96.5587 0.799533 96.0038 0.569095 95.4249 0.568037H18.1889Z" fill="#EBEBEB"/>
<path d="M181.949 113.608H104.709C104.104 113.607 103.523 113.366 103.095 112.938C102.667 112.51 102.426 111.929 102.425 111.324V2.75204C102.431 2.15008 102.675 1.57487 103.102 1.15107C103.53 0.727281 104.107 0.489056 104.709 0.488037H181.949C182.55 0.490119 183.126 0.728937 183.552 1.15273C183.978 1.57652 184.22 2.15114 184.225 2.75204V111.324C184.225 111.928 183.986 112.508 183.559 112.936C183.132 113.364 182.553 113.606 181.949 113.608ZM104.709 0.568037C104.13 0.569095 103.575 0.799533 103.166 1.20888C102.757 1.61823 102.526 2.17313 102.525 2.75204V111.324C102.526 111.903 102.757 112.458 103.166 112.867C103.575 113.277 104.13 113.507 104.709 113.508H181.949C182.528 113.507 183.083 113.277 183.492 112.867C183.902 112.458 184.132 111.903 184.133 111.324V2.75204C184.132 2.17313 183.902 1.61823 183.492 1.20888C183.083 0.799533 182.528 0.569095 181.949 0.568037H104.709Z" fill="#EBEBEB"/>
<path d="M64.1209 14.436H25.4449V121.116H64.1209V14.436Z" fill="#F5F5F5"/>
<path d="M64.1211 121.12H64.5131L64.5131 14.44H64.1211L64.1211 121.12Z" fill="#EBEBEB"/>
<path d="M60.389 18.5081H29.177V117.048H60.389V18.5081Z" fill="white"/>
<path d="M80.7009 77.584L171.937 77.584V9.79598L80.7009 9.79598L80.7009 77.584Z" fill="#E6E6E6"/>
<path d="M79.289 77.584L170.525 77.584V9.79598L79.289 9.79598L79.289 77.584Z" fill="#F5F5F5"/>
<path d="M167.989 74.74V12.644L81.821 12.644V74.74H167.989Z" fill="white"/>
<path d="M82.885 74.736V12.64H81.817V74.736H82.885Z" fill="#E6E6E6"/>
<path d="M80.333 61.472L169.473 61.472V57.648L80.333 57.648V61.472Z" fill="#F5F5F5"/>
<g opacity="0.4">
<path d="M85.069 6.80005H76.457V28.588H85.069V6.80005Z" fill="#E6E6E6"/>
<path d="M85.0691 26.8361H89.3411V6.80006H85.0691V26.8361Z" fill="#F5F5F5"/>
<path d="M97.9531 6.80005H89.3411V28.588H97.9531V6.80005Z" fill="#E6E6E6"/>
<path d="M97.953 26.8361H102.225V6.80006H97.953V26.8361Z" fill="#F5F5F5"/>
<path d="M110.837 6.80005H102.225V28.588H110.837V6.80005Z" fill="#E6E6E6"/>
<path d="M110.837 26.8361H115.109V6.80006H110.837V26.8361Z" fill="#F5F5F5"/>
<path d="M123.721 6.80005H115.109V28.588H123.721V6.80005Z" fill="#E6E6E6"/>
<path d="M123.721 26.8361H127.993V6.80006H123.721V26.8361Z" fill="#F5F5F5"/>
<path d="M136.605 6.80005H127.993V28.588H136.605V6.80005Z" fill="#E6E6E6"/>
<path d="M136.605 26.8361H140.877V6.80006H136.605V26.8361Z" fill="#F5F5F5"/>
<path d="M149.489 6.80005H140.877V28.588H149.489V6.80005Z" fill="#E6E6E6"/>
<path d="M149.489 26.8361H153.761V6.80006H149.489V26.8361Z" fill="#F5F5F5"/>
<path d="M162.373 6.80005H153.761V28.588H162.373V6.80005Z" fill="#E6E6E6"/>
<path d="M162.373 26.8361H166.645V6.80006H162.373V26.8361Z" fill="#F5F5F5"/>
<path d="M175.257 6.80005H166.645V28.588H175.257V6.80005Z" fill="#E6E6E6"/>
</g>
<path d="M82.1089 131.448H92.7849V91.688H82.1089V131.448Z" fill="#E6E6E6"/>
<path d="M83.889 131.448H82.113V127.868H85.753L83.889 131.448Z" fill="#F0F0F0"/>
<path d="M158.929 131.448H169.605V91.688H158.929V131.448Z" fill="#E6E6E6"/>
<path d="M82.1129 130.072H160.477V91.688H82.1129V130.072Z" fill="#F0F0F0"/>
<path d="M83.493 103.916L159.101 103.916V93.388L83.493 93.388V103.916Z" fill="#E6E6E6"/>
<path d="M102.625 96.6601H139.981C141.713 96.6601 143.373 95.3601 144.565 93.0601H98.033C99.225 95.3601 100.881 96.6601 102.625 96.6601Z" fill="#F0F0F0"/>
<path d="M158.701 131.448H160.477V127.868H156.837L158.701 131.448Z" fill="#F0F0F0"/>
<path d="M83.493 116.144L159.101 116.144V105.616L83.493 105.616V116.144Z" fill="#E6E6E6"/>
<path d="M102.625 108.888H139.981C141.713 108.888 143.373 107.592 144.565 105.288H98.033C99.225 107.592 100.881 108.888 102.625 108.888Z" fill="#F0F0F0"/>
<path d="M83.493 128.372H159.101V117.844L83.493 117.844V128.372Z" fill="#E6E6E6"/>
<path d="M102.625 121.116H139.981C141.713 121.116 143.373 119.82 144.565 117.516H98.033C99.225 119.82 100.881 121.116 102.625 121.116Z" fill="#F0F0F0"/>
<path d="M100.625 149.512C143.458 149.512 178.181 147.485 178.181 144.984C178.181 142.483 143.458 140.456 100.625 140.456C57.792 140.456 23.069 142.483 23.069 144.984C23.069 147.485 57.792 149.512 100.625 149.512Z" fill="#F5F5F5"/>
<path d="M148.577 142.7H148.149C148.06 142.693 147.976 142.654 147.913 142.59C147.851 142.526 147.814 142.441 147.809 142.352L145.177 124.024H147.177L148.921 142.232C148.931 142.285 148.929 142.34 148.917 142.393C148.905 142.446 148.882 142.496 148.85 142.54C148.818 142.584 148.777 142.621 148.73 142.648C148.683 142.676 148.631 142.693 148.577 142.7Z" fill="#FF657E"/>
<path opacity="0.3" d="M148.577 142.7H148.149C148.06 142.693 147.976 142.654 147.913 142.59C147.851 142.526 147.814 142.441 147.809 142.352L145.177 124.024H147.177L148.921 142.232C148.931 142.285 148.929 142.34 148.917 142.393C148.905 142.446 148.882 142.496 148.85 142.54C148.818 142.584 148.777 142.621 148.73 142.648C148.683 142.676 148.631 142.693 148.577 142.7Z" fill="black"/>
<path d="M154.065 142.7H153.637C153.548 142.693 153.464 142.654 153.401 142.59C153.339 142.526 153.302 142.441 153.297 142.352L150.665 124.024H152.665L154.413 142.232C154.423 142.286 154.421 142.341 154.409 142.394C154.396 142.447 154.373 142.497 154.34 142.541C154.308 142.585 154.266 142.622 154.219 142.649C154.172 142.676 154.119 142.694 154.065 142.7Z" fill="#FF657E"/>
<path opacity="0.3" d="M154.065 142.7H153.637C153.548 142.693 153.464 142.654 153.401 142.59C153.339 142.526 153.302 142.441 153.297 142.352L150.665 124.024H152.665L154.413 142.232C154.423 142.286 154.421 142.341 154.409 142.394C154.396 142.447 154.373 142.497 154.34 142.541C154.308 142.585 154.266 142.622 154.219 142.649C154.172 142.676 154.119 142.694 154.065 142.7Z" fill="black"/>
<path d="M123.489 142.7H123.917C124.006 142.693 124.09 142.654 124.153 142.59C124.215 142.526 124.253 142.441 124.257 142.352L126.889 124.024H124.889L123.145 142.232C123.135 142.285 123.137 142.34 123.149 142.393C123.161 142.446 123.184 142.496 123.216 142.54C123.249 142.584 123.289 142.621 123.336 142.648C123.383 142.676 123.435 142.693 123.489 142.7Z" fill="#FF657E"/>
<path opacity="0.3" d="M123.489 142.7H123.917C124.006 142.693 124.09 142.654 124.153 142.59C124.215 142.526 124.253 142.441 124.257 142.352L126.889 124.024H124.889L123.145 142.232C123.135 142.285 123.137 142.34 123.149 142.393C123.161 142.446 123.184 142.496 123.216 142.54C123.249 142.584 123.289 142.621 123.336 142.648C123.383 142.676 123.435 142.693 123.489 142.7Z" fill="black"/>
<path d="M118.001 142.7H118.429C118.518 142.693 118.602 142.654 118.665 142.59C118.727 142.526 118.765 142.441 118.769 142.352L121.401 124.024H119.401L117.657 142.232C117.647 142.285 117.649 142.34 117.661 142.393C117.673 142.446 117.696 142.496 117.728 142.54C117.761 142.584 117.801 142.621 117.848 142.648C117.895 142.676 117.947 142.693 118.001 142.7Z" fill="#FF657E"/>
<path opacity="0.3" d="M118.001 142.7H118.429C118.518 142.693 118.602 142.654 118.665 142.59C118.727 142.526 118.765 142.441 118.769 142.352L121.401 124.024H119.401L117.657 142.232C117.647 142.285 117.649 142.34 117.661 142.393C117.673 142.446 117.696 142.496 117.728 142.54C117.761 142.584 117.801 142.621 117.848 142.648C117.895 142.676 117.947 142.693 118.001 142.7Z" fill="black"/>
<path d="M110.889 102.292H124.361C126.761 93.992 135.353 87.444 144.161 87.444H148.537C157.737 87.444 163.705 94.616 161.825 103.468C161.474 105.096 160.896 106.668 160.109 108.136L157.985 121.012C157.713 122.676 156.385 124.024 155.025 124.024H114.473C113.113 124.024 111.785 122.676 111.513 121.012L108.921 105.288C108.645 103.64 109.529 102.292 110.889 102.292Z" fill="#FF657E"/>
<path opacity="0.5" d="M110.889 102.292H124.361C126.761 93.992 135.353 87.444 144.161 87.444H148.537C157.737 87.444 163.705 94.616 161.825 103.468C161.474 105.096 160.896 106.668 160.109 108.136L157.985 121.012C157.713 122.676 156.385 124.024 155.025 124.024H114.473C113.113 124.024 111.785 122.676 111.513 121.012L108.921 105.288C108.645 103.64 109.529 102.292 110.889 102.292Z" fill="white"/>
<path d="M107.517 137.96L110.853 139.488C110.91 139.512 110.955 139.557 110.979 139.614C111.003 139.671 111.004 139.735 110.981 139.792L109.929 142.508C109.866 142.647 109.751 142.755 109.609 142.809C109.466 142.863 109.308 142.858 109.169 142.796C108.017 142.244 107.493 141.92 106.025 141.248C104.473 140.481 102.974 139.613 101.537 138.648C100.449 137.848 101.249 136.768 101.789 137.008C104.229 138.084 105.789 138.18 106.921 137.908C107.12 137.856 107.33 137.874 107.517 137.96Z" fill="#263238"/>
<path d="M131.177 97.0599C131.177 97.0599 109.845 97.3239 109.513 105.732C109.041 117.82 107.257 137.888 107.257 137.888L110.857 139.488C110.857 139.488 117.161 119.352 117.385 109.912C123.385 108.424 138.813 109.912 140.625 105.008C141.513 102.457 141.748 99.7248 141.309 97.0599H131.177Z" fill="#FF657E"/>
<path opacity="0.2" d="M131.177 97.0599C131.177 97.0599 109.845 97.3239 109.513 105.732C109.041 117.82 107.257 137.888 107.257 137.888L110.857 139.488C110.857 139.488 117.161 119.352 117.385 109.912C123.385 108.424 138.813 109.912 140.625 105.008C141.513 102.457 141.748 99.7248 141.309 97.0599H131.177Z" fill="black"/>
<path d="M135.717 74.9359C135.529 75.7119 135.341 76.4119 135.129 77.1399C134.917 77.8679 134.697 78.5759 134.465 79.2879C133.997 80.7119 133.481 82.1279 132.889 83.5279C132.296 84.9591 131.608 86.3489 130.829 87.6879C130.42 88.3959 129.969 89.0785 129.477 89.7319C128.936 90.4555 128.311 91.1133 127.617 91.6919L127.557 91.7439L127.429 91.8399C127.025 92.1036 126.565 92.2681 126.085 92.3199C125.784 92.3568 125.479 92.3568 125.177 92.3199C124.758 92.2685 124.346 92.1692 123.949 92.0239C123.334 91.8022 122.736 91.5348 122.161 91.2239C121.135 90.653 120.142 90.0226 119.189 89.3359C118.261 88.6679 117.365 87.9759 116.493 87.2559C115.621 86.5359 114.785 85.7999 113.957 85.0079C113.745 84.8017 113.614 84.5254 113.59 84.2304C113.566 83.9353 113.649 83.6415 113.825 83.4032C114.001 83.165 114.257 82.9985 114.546 82.9347C114.835 82.8708 115.137 82.9139 115.397 83.0559H115.417C116.361 83.5799 117.313 84.1359 118.269 84.6559C119.225 85.1759 120.169 85.6999 121.117 86.1879C122.065 86.6759 123.017 87.1399 123.917 87.5159C124.33 87.692 124.757 87.8338 125.193 87.9399C125.323 87.9786 125.458 87.9962 125.593 87.9919C125.621 87.9919 125.593 87.9919 125.509 87.9919C125.305 88.0153 125.11 88.0881 124.941 88.2039L124.749 88.3479C125.143 87.9645 125.491 87.5363 125.785 87.0719C126.136 86.5447 126.458 85.9985 126.749 85.4359C127.362 84.2286 127.911 82.9895 128.393 81.7239C128.885 80.4359 129.345 79.1159 129.773 77.7799C130.201 76.4439 130.601 75.0719 130.973 73.7799V73.7319C131.143 73.1117 131.55 72.5831 132.106 72.2605C132.663 71.938 133.324 71.8473 133.946 72.0081C134.569 72.1688 135.103 72.5682 135.434 73.1198C135.765 73.6714 135.865 74.331 135.713 74.9559L135.717 74.9359Z" fill="#263238"/>
<path d="M127.069 139.688H131.069C131.102 139.686 131.136 139.691 131.167 139.703C131.199 139.714 131.228 139.732 131.252 139.755C131.277 139.777 131.297 139.805 131.31 139.835C131.324 139.866 131.332 139.899 131.333 139.932L131.529 143.096C131.529 143.263 131.464 143.423 131.347 143.542C131.23 143.66 131.072 143.729 130.905 143.732C129.513 143.708 128.845 143.624 127.085 143.624C126.005 143.624 123.821 143.736 122.325 143.736C120.829 143.736 120.873 142.26 121.505 142.136C124.349 141.536 125.449 140.708 126.453 139.916C126.628 139.775 126.844 139.695 127.069 139.688Z" fill="#263238"/>
<path d="M136.925 97.06C136.925 97.06 117.577 98.692 118.053 107.096C118.573 116.296 127.069 139.696 127.069 139.696H130.981C130.981 139.696 127.633 118.268 126.453 108.896C131.909 108.896 144.557 109.92 146.373 105.004C147.261 102.453 147.495 99.7205 147.053 97.056L136.925 97.06Z" fill="#FF657E"/>
<path d="M115.697 83.4479C115.395 82.9564 115.029 82.5071 114.609 82.1119C113.809 82.8559 113.373 85.0199 113.373 85.0199L114.465 85.1159C114.465 85.1159 115.721 84.7079 115.697 83.4479Z" fill="#FF657E"/>
<path d="M111.681 81.504L110.437 80.964C110.275 80.8942 110.094 80.8853 109.926 80.939C109.759 80.9927 109.616 81.1053 109.525 81.256L108.933 82.232C108.851 82.3695 108.817 82.53 108.835 82.6889C108.853 82.8478 108.923 82.9964 109.033 83.112L110.741 84.892L113.589 84.776C113.75 84.7706 113.907 84.722 114.042 84.6355C114.178 84.549 114.288 84.4276 114.361 84.284L114.689 83.64C114.792 83.4462 114.821 83.221 114.768 83.0077C114.716 82.7944 114.586 82.6079 114.405 82.484C113.481 81.876 111.681 81.504 111.681 81.504Z" fill="#FFC3BD"/>
<path d="M130.993 74.116C130.425 77.716 129.685 85.488 131.193 97.208L147.053 97.06C146.957 88.936 148.229 81.312 149.473 73.86C149.523 73.5673 149.513 73.2678 149.444 72.9791C149.375 72.6904 149.25 72.4184 149.074 72.1793C148.898 71.9401 148.676 71.7387 148.421 71.587C148.166 71.4353 147.883 71.3363 147.589 71.296C143.041 70.764 138.446 70.764 133.897 71.296C133.176 71.3945 132.504 71.7214 131.982 72.2288C131.459 72.7362 131.113 73.3975 130.993 74.116Z" fill="#263238"/>
<path d="M149.617 72.848C150.085 74.004 150.457 75.112 150.841 76.256C151.225 77.4 151.553 78.548 151.869 79.712C152.185 80.876 152.461 82.064 152.669 83.276C152.911 84.5136 153.073 85.7656 153.153 87.024C153.177 87.348 153.181 87.684 153.185 88.02V88.532C153.179 89.0576 153.042 89.5734 152.785 90.032C152.614 90.3299 152.389 90.5931 152.121 90.808C151.996 90.9081 151.862 90.9964 151.721 91.072C151.593 91.1426 151.459 91.2015 151.321 91.248C150.945 91.3879 150.546 91.4584 150.145 91.456C149.671 91.4452 149.2 91.3712 148.745 91.236C148.08 91.0359 147.432 90.7803 146.809 90.472C146.229 90.184 145.685 89.884 145.153 89.572C143.085 88.3371 141.122 86.9337 139.285 85.376C139.054 85.1864 138.901 84.9186 138.854 84.6234C138.807 84.3281 138.871 84.026 139.032 83.7744C139.193 83.5228 139.441 83.3391 139.729 83.2583C140.017 83.1775 140.324 83.2052 140.593 83.336H140.621C142.689 84.32 144.793 85.336 146.841 86.18C147.353 86.388 147.861 86.58 148.361 86.752C148.804 86.9149 149.261 87.0394 149.725 87.124C149.909 87.156 150.073 87.152 150.053 87.124C149.945 87.1139 149.835 87.1332 149.737 87.18C149.674 87.2042 149.613 87.2323 149.553 87.264C149.477 87.3049 149.404 87.3532 149.337 87.408C149.179 87.5315 149.043 87.6818 148.937 87.852C148.817 88.0513 148.746 88.276 148.729 88.508L148.709 88.144C148.685 87.896 148.665 87.652 148.629 87.396C148.296 85.2274 147.796 83.0877 147.133 80.996C146.493 78.848 145.757 76.656 145.009 74.572V74.552C144.802 73.9513 144.837 73.2938 145.106 72.7184C145.376 72.1429 145.858 71.6947 146.451 71.4683C147.045 71.2418 147.703 71.255 148.287 71.505C148.871 71.755 149.335 72.2223 149.581 72.808L149.617 72.848Z" fill="#263238"/>
<path d="M143.277 63.252L141.361 64.852L138.745 67.024C138.826 67.3702 138.882 67.7218 138.913 68.076C139.037 69.34 138.761 70.5 137.229 71.088C136.938 71.1833 136.672 71.3444 136.453 71.5587C136.234 71.773 136.067 72.0348 135.965 72.324C135.757 72.992 136.001 73.74 138.105 73.74C141.197 73.74 142.809 72.364 143.417 71.688C143.499 71.5941 143.546 71.4752 143.551 71.3509C143.556 71.2266 143.519 71.1042 143.445 71.0039C142.225 69.2599 142.777 65.42 143.277 63.252Z" fill="#FFC3BD"/>
<path d="M138.029 73.052C138.164 73.2074 138.256 73.3947 138.297 73.596C138.456 73.3809 138.652 73.1965 138.877 73.052C139.143 73.1771 139.38 73.3573 139.571 73.5807C139.762 73.8042 139.903 74.0657 139.985 74.348C139.402 74.2286 138.841 74.0208 138.321 73.732C137.978 73.9221 137.6 74.0392 137.209 74.076C137.233 73.384 138.029 73.052 138.029 73.052Z" fill="#FF657E"/>
<path d="M138.877 73.052C139.432 73.7207 139.798 74.5259 139.937 75.384C139.937 75.384 145.057 74.104 144.817 70.764C144.367 70.5515 143.889 70.4046 143.397 70.328C143.397 70.328 142.297 72.328 138.877 73.052Z" fill="#FF657E"/>
<path d="M138.029 73.0519C137.469 73.7259 137.082 74.5264 136.901 75.3839C136.901 75.3839 134.277 72.9839 136.833 70.7919C137.274 70.6516 137.729 70.5565 138.189 70.5079C138.189 70.5079 136.489 71.8879 138.029 73.0519Z" fill="#FF657E"/>
<path opacity="0.2" d="M138.745 67.012C138.825 67.3597 138.881 67.7125 138.913 68.068C139.889 67.872 141.189 66.836 141.313 65.84C141.361 65.5103 141.373 65.1763 141.349 64.844L138.745 67.012Z" fill="black"/>
<path d="M135.945 56.3639C133.545 58.0719 134.881 62.0759 136.937 60.5439C138.993 59.0119 137.905 54.9719 135.945 56.3639Z" fill="#263238"/>
<path d="M144.069 59.932C143.401 62.996 143.169 64.82 141.357 66.22C140.773 66.6809 140.075 66.9736 139.337 67.0663C138.599 67.1589 137.85 67.0481 137.17 66.7458C136.491 66.4436 135.907 65.9613 135.481 65.3511C135.056 64.7409 134.806 64.0261 134.757 63.284C134.517 60.428 135.649 55.892 138.873 55.024C139.567 54.8171 140.303 54.7964 141.008 54.964C141.712 55.1317 142.36 55.4817 142.887 55.979C143.413 56.4763 143.8 57.1034 144.007 57.7972C144.215 58.4911 144.236 59.2273 144.069 59.932Z" fill="#FFC3BD"/>
<path d="M142.649 57.656C140.949 57.188 136.565 58.304 135.009 56.644C133.341 54.864 135.773 53.996 136.493 54.616C135.585 53.576 135.921 52.464 137.209 52.564C138.149 52.636 138.445 53.676 138.445 53.676C138.445 53.676 138.289 51.856 139.905 51.984C141.369 52.096 141.373 54.072 141.373 54.072C141.373 54.072 144.869 53.084 146.037 56.42C148.237 56.372 148.189 61.004 143.761 62.652C141.965 61.764 141.881 58.604 142.649 57.656Z" fill="#263238"/>
<path d="M145.565 57.0879C145.45 57.095 145.336 57.0568 145.249 56.9815C145.161 56.9062 145.106 56.7998 145.096 56.6848C145.086 56.5698 145.12 56.4552 145.193 56.3655C145.266 56.2757 145.37 56.2177 145.485 56.2039C145.605 56.1279 145.697 56.0139 145.745 55.8799C145.81 55.7519 145.847 55.612 145.855 55.4689C145.864 55.3258 145.842 55.1825 145.793 55.0479C145.759 54.9945 145.738 54.9344 145.729 54.8719C145.721 54.8093 145.726 54.7456 145.744 54.6851C145.762 54.6246 145.792 54.5686 145.834 54.5209C145.875 54.4733 145.926 54.4349 145.984 54.4085C146.041 54.3822 146.103 54.3683 146.166 54.3679C146.23 54.3675 146.292 54.3806 146.35 54.4063C146.407 54.432 146.459 54.4697 146.501 54.5169C146.543 54.5641 146.574 54.6197 146.593 54.6799C146.702 54.9477 146.75 55.2363 146.733 55.5248C146.716 55.8133 146.636 56.0944 146.497 56.3479C146.419 56.5273 146.301 56.6864 146.152 56.8132C146.003 56.9401 145.827 57.0313 145.637 57.0799C145.614 57.086 145.589 57.0887 145.565 57.0879Z" fill="#263238"/>
<path d="M144.569 62.776C144.153 63.3161 143.554 63.6859 142.885 63.816C142.017 63.972 141.753 63.172 142.137 62.4C142.481 61.7 143.337 60.78 144.137 60.98C144.937 61.18 145.081 62.088 144.569 62.776Z" fill="#FFC3BD"/>
<path d="M138.817 60.212C138.777 60.464 138.613 60.652 138.449 60.632C138.285 60.612 138.181 60.392 138.217 60.14C138.253 59.888 138.421 59.7 138.589 59.74C138.757 59.78 138.853 59.96 138.817 60.212Z" fill="#263238"/>
<path d="M135.961 59.872C135.921 60.124 135.757 60.312 135.593 60.272C135.429 60.232 135.325 60.032 135.361 59.78C135.397 59.528 135.565 59.34 135.733 59.36C135.901 59.38 136.001 59.62 135.961 59.872Z" fill="#263238"/>
<path d="M136.833 59.9719C136.515 60.6214 136.111 61.2254 135.633 61.7679C135.775 61.8811 135.94 61.9617 136.116 62.0039C136.292 62.0461 136.476 62.0488 136.653 62.0119L136.833 59.9719Z" fill="#ED847E"/>
<path d="M137.825 63.308C138.122 63.3119 138.417 63.2558 138.692 63.1431C138.967 63.0304 139.216 62.8633 139.425 62.652C139.435 62.6367 139.439 62.6185 139.436 62.6006C139.434 62.5826 139.425 62.5662 139.412 62.5541C139.398 62.542 139.381 62.5352 139.363 62.5348C139.345 62.5344 139.327 62.5405 139.313 62.552C139.085 62.7777 138.808 62.948 138.503 63.05C138.199 63.1519 137.875 63.1827 137.557 63.14C137.538 63.1386 137.518 63.1444 137.503 63.1561C137.487 63.1679 137.477 63.1849 137.473 63.204C137.472 63.214 137.473 63.2241 137.476 63.2337C137.478 63.2434 137.483 63.2523 137.489 63.2602C137.496 63.268 137.504 63.2745 137.512 63.2792C137.521 63.284 137.531 63.287 137.541 63.288C137.635 63.3 137.73 63.3067 137.825 63.308Z" fill="#263238"/>
<path d="M139.965 58.76C139.989 58.755 140.011 58.744 140.029 58.728C140.043 58.7142 140.054 58.6977 140.062 58.6795C140.07 58.6613 140.074 58.6417 140.074 58.622C140.074 58.6022 140.07 58.5827 140.062 58.5645C140.054 58.5463 140.043 58.5298 140.029 58.516C139.877 58.3367 139.684 58.1976 139.465 58.1111C139.247 58.0246 139.01 57.9933 138.777 58.02C138.758 58.0231 138.739 58.0301 138.722 58.0404C138.705 58.0508 138.691 58.0643 138.679 58.0803C138.668 58.0963 138.66 58.1144 138.655 58.1335C138.651 58.1527 138.65 58.1725 138.653 58.192C138.656 58.2114 138.663 58.23 138.674 58.2468C138.684 58.2635 138.697 58.2781 138.713 58.2896C138.729 58.3011 138.747 58.3094 138.767 58.3139C138.786 58.3184 138.806 58.3191 138.825 58.316C139.009 58.2981 139.195 58.3252 139.366 58.3949C139.538 58.4645 139.69 58.5747 139.809 58.716C139.828 58.7377 139.853 58.7534 139.881 58.7612C139.908 58.7691 139.938 58.7686 139.965 58.76Z" fill="#263238"/>
<path d="M134.941 58.596C134.964 58.6025 134.989 58.6033 135.012 58.5985C135.036 58.5936 135.058 58.5831 135.077 58.568C135.221 58.4404 135.392 58.3479 135.577 58.2979C135.762 58.2479 135.957 58.2418 136.145 58.28C136.183 58.2899 136.224 58.2846 136.258 58.2652C136.292 58.2458 136.318 58.2138 136.329 58.176C136.335 58.1571 136.336 58.1373 136.334 58.1177C136.332 58.0982 136.325 58.0793 136.316 58.0622C136.306 58.045 136.293 58.03 136.277 58.018C136.262 58.0059 136.244 57.9971 136.225 57.992C135.991 57.9414 135.748 57.9465 135.516 58.007C135.284 58.0674 135.069 58.1815 134.889 58.34C134.859 58.365 134.84 58.4009 134.836 58.4399C134.832 58.4789 134.844 58.5178 134.869 58.548C134.888 58.571 134.913 58.5878 134.941 58.596Z" fill="#263238"/>
<path d="M140.149 81.264L138.397 80.176C138.272 80.0982 138.134 80.0459 137.988 80.0222C137.843 79.9986 137.695 80.0041 137.552 80.0383C137.409 80.0726 137.274 80.1349 137.156 80.2217C137.037 80.3086 136.937 80.4181 136.861 80.544L136.657 80.888C136.535 81.0885 136.48 81.3226 136.501 81.5564C136.521 81.7901 136.615 82.0114 136.769 82.188L137.969 83.576C137.969 83.576 139.021 86.028 140.241 85.38L141.169 83.78L140.149 81.264Z" fill="#FFC3BD"/>
<path d="M141.953 84.3999C141.713 83.8193 141.401 83.271 141.025 82.7679C140.145 83.5199 139.425 85.9199 139.425 85.9199L140.501 86.1519C140.893 86.0421 141.241 85.8156 141.501 85.5026C141.76 85.1896 141.918 84.8049 141.953 84.3999Z" fill="#FF657E"/>
<path d="M155.357 102.292H134.589C133.229 102.292 132.349 103.64 132.621 105.304L135.213 121.012C135.489 122.676 136.813 124.024 138.177 124.024H152.785L155.357 102.292Z" fill="#FF657E"/>
<path opacity="0.5" d="M155.357 102.292H134.589C133.229 102.292 132.349 103.64 132.621 105.304L135.213 121.012C135.489 122.676 136.813 124.024 138.177 124.024H152.785L155.357 102.292Z" fill="white"/>
<path d="M59.537 144.048H60.137C60.2431 144.048 60.3448 144.006 60.4198 143.931C60.4948 143.856 60.537 143.754 60.537 143.648L63.825 94.0881H61.349L59.149 143.592C59.141 143.648 59.1451 143.705 59.1608 143.76C59.1766 143.814 59.2037 143.864 59.2404 143.907C59.277 143.951 59.3224 143.985 59.3736 144.01C59.4247 144.034 59.4804 144.047 59.537 144.048Z" fill="#FF657E"/>
<path opacity="0.3" d="M59.537 144.048H60.137C60.2431 144.048 60.3448 144.006 60.4198 143.931C60.4948 143.856 60.537 143.754 60.537 143.648L63.825 94.0881H61.349L59.149 143.592C59.141 143.648 59.1451 143.705 59.1608 143.76C59.1766 143.814 59.2037 143.864 59.2404 143.907C59.277 143.951 59.3224 143.985 59.3736 144.01C59.4247 144.034 59.4804 144.047 59.537 144.048Z" fill="white"/>
<path d="M52.737 144.048H53.337C53.4431 144.048 53.5449 144.006 53.6199 143.931C53.6949 143.856 53.737 143.754 53.737 143.648L57.025 94.0881H54.545L52.349 143.592C52.3411 143.648 52.3452 143.705 52.3609 143.76C52.3767 143.814 52.4038 143.864 52.4404 143.907C52.4771 143.951 52.5225 143.985 52.5736 144.01C52.6248 144.034 52.6805 144.047 52.737 144.048Z" fill="#FF657E"/>
<path opacity="0.3" d="M52.737 144.048H53.337C53.4431 144.048 53.5449 144.006 53.6199 143.931C53.6949 143.856 53.737 143.754 53.737 143.648L57.025 94.0881H54.545L52.349 143.592C52.3411 143.648 52.3452 143.705 52.3609 143.76C52.3767 143.814 52.4038 143.864 52.4404 143.907C52.4771 143.951 52.5225 143.985 52.5736 144.01C52.6248 144.034 52.6805 144.047 52.737 144.048Z" fill="white"/>
<path d="M136.597 144.048H135.997C135.891 144.048 135.789 144.006 135.714 143.931C135.639 143.856 135.597 143.754 135.597 143.648L132.309 94.0881H134.785L136.985 143.592C136.993 143.648 136.989 143.705 136.973 143.76C136.957 143.814 136.93 143.864 136.894 143.907C136.857 143.951 136.812 143.985 136.76 144.01C136.709 144.034 136.654 144.047 136.597 144.048Z" fill="#FF657E"/>
<path opacity="0.3" d="M136.597 144.048H135.997C135.891 144.048 135.789 144.006 135.714 143.931C135.639 143.856 135.597 143.754 135.597 143.648L132.309 94.0881H134.785L136.985 143.592C136.993 143.648 136.989 143.705 136.973 143.76C136.957 143.814 136.93 143.864 136.894 143.907C136.857 143.951 136.812 143.985 136.76 144.01C136.709 144.034 136.654 144.047 136.597 144.048Z" fill="white"/>
<path d="M143.397 144.048H142.797C142.691 144.048 142.589 144.006 142.514 143.931C142.439 143.856 142.397 143.754 142.397 143.648L139.109 94.0881H141.589L143.785 143.592C143.793 143.648 143.789 143.705 143.773 143.76C143.758 143.814 143.73 143.864 143.694 143.907C143.657 143.951 143.612 143.985 143.561 144.01C143.509 144.034 143.454 144.047 143.397 144.048Z" fill="#FF657E"/>
<path opacity="0.3" d="M143.397 144.048H142.797C142.691 144.048 142.589 144.006 142.514 143.931C142.439 143.856 142.397 143.754 142.397 143.648L139.109 94.0881H141.589L143.785 143.592C143.793 143.648 143.789 143.705 143.773 143.76C143.758 143.814 143.73 143.864 143.694 143.907C143.657 143.951 143.612 143.985 143.561 144.01C143.509 144.034 143.454 144.047 143.397 144.048Z" fill="white"/>
<path d="M146.257 93.0801H49.7369V94.1001H146.257V93.0801Z" fill="#FF657E"/>
<path d="M48.1289 77.288L47.2169 83.996C46.9289 86.228 46.6289 88.468 46.4169 90.668C46.3889 90.944 46.3689 91.212 46.3449 91.468L46.3129 91.868C46.3195 91.8015 46.3195 91.7345 46.3129 91.668C46.3053 91.6039 46.2905 91.5408 46.2689 91.48C46.2526 91.4318 46.2325 91.385 46.2089 91.34C46.1929 91.3077 46.1742 91.2769 46.1529 91.248C46.0809 91.156 46.0729 91.168 46.0929 91.188C46.1338 91.2316 46.1794 91.2705 46.2289 91.304C46.3972 91.4193 46.5737 91.5222 46.7569 91.612C47.7089 92.0473 48.6915 92.4123 49.6969 92.704C51.7929 93.34 53.9969 93.904 56.1729 94.428L55.9249 96.336C53.5986 96.266 51.2804 96.0267 48.9889 95.62C47.7747 95.4158 46.5818 95.1012 45.4249 94.68C45.085 94.5489 44.7548 94.3938 44.4369 94.216C44.2406 94.1041 44.0534 93.977 43.8769 93.836C43.6322 93.6423 43.4178 93.4131 43.2409 93.156C43.1135 92.966 43.0113 92.7603 42.9369 92.544C42.896 92.4129 42.8639 92.2793 42.8409 92.144C42.8262 92.0111 42.8182 91.8776 42.8169 91.744V91.3C42.8169 91.004 42.8169 90.708 42.8409 90.416C42.9369 88.08 43.1489 85.8 43.3969 83.52C43.6449 81.24 43.9329 78.98 44.2889 76.72L48.1289 77.288Z" fill="#7F3E3B"/>
<path d="M61.189 96.4881L59.721 97.8281C59.5531 97.9806 59.3436 98.0796 59.1191 98.1124C58.8946 98.1452 58.6655 98.1102 58.461 98.0121L56.841 97.2321C56.841 97.2321 54.441 97.1321 54.093 95.6641L54.717 94.5241L58.441 94.1241C58.8232 94.083 59.2083 94.1687 59.537 94.3681L61.073 95.3081C61.1696 95.3692 61.2509 95.4516 61.3109 95.549C61.3708 95.6463 61.4078 95.756 61.419 95.8698C61.4302 95.9835 61.4153 96.0983 61.3754 96.2055C61.3356 96.3126 61.2718 96.4093 61.189 96.4881Z" fill="#7F3E3B"/>
<path d="M52.4051 63.512C52.8051 65.816 53.1091 70.02 51.4611 71.512C51.4611 71.512 55.4611 73.616 58.1131 77.288C60.9131 75.056 58.5731 71.724 58.5731 71.724C56.0371 71.04 56.1731 69.148 56.6571 67.384L52.4051 63.512Z" fill="#7F3E3B"/>
<path d="M59.9209 73.124C59.9209 73.124 59.7089 71.172 58.6449 70.208C57.7529 69.408 53.0449 69.848 51.5769 70.012C51.4405 70.0283 51.3105 70.0787 51.1987 70.1583C51.0869 70.238 50.9968 70.3445 50.9369 70.468L49.8649 72.708L59.9209 73.124Z" fill="#FF657E"/>
<path opacity="0.8" d="M59.9209 73.124C59.9209 73.124 59.7089 71.172 58.6449 70.208C57.7529 69.408 53.0449 69.848 51.5769 70.012C51.4405 70.0283 51.3105 70.0787 51.1987 70.1583C51.0869 70.238 50.9968 70.3445 50.9369 70.468L49.8649 72.708L59.9209 73.124Z" fill="white"/>
<path d="M46.9169 72.088C44.0209 73.032 43.3969 76.916 43.6609 79.936L49.5049 83.536C49.5049 83.536 50.9249 79.136 50.9129 76.768C50.9009 74.264 48.8849 71.456 46.9169 72.088Z" fill="#FF657E"/>
<path d="M48.0489 82.66C47.9752 82.6616 47.902 82.6487 47.8333 82.6219C47.7647 82.5951 47.702 82.5551 47.6489 82.504C47.625 82.478 47.6036 82.4499 47.5849 82.42C47.5629 82.3908 47.5453 82.3584 47.5329 82.324C47.5198 82.2915 47.5091 82.2581 47.5009 82.224C47.4969 82.1895 47.4969 82.1546 47.5009 82.12C47.4991 82.046 47.5124 81.9724 47.5399 81.9036C47.5674 81.8349 47.6086 81.7724 47.6609 81.72C47.7648 81.6221 47.9021 81.5676 48.0449 81.5676C48.1876 81.5676 48.325 81.6221 48.4289 81.72C48.4812 81.7724 48.5223 81.8349 48.5498 81.9036C48.5773 81.9724 48.5906 82.046 48.5889 82.12C48.5928 82.1546 48.5928 82.1895 48.5889 82.224C48.5826 82.2586 48.5719 82.2922 48.5569 82.324C48.5458 82.3582 48.5296 82.3906 48.5089 82.42L48.4409 82.504C48.3892 82.5548 48.3279 82.5948 48.2606 82.6216C48.1933 82.6484 48.1213 82.6614 48.0489 82.66Z" fill="white"/>
<path d="M46.9249 82.292C46.8254 82.2537 46.7395 82.187 46.6776 82.1003C46.6157 82.0135 46.5807 81.9105 46.5769 81.804C46.4985 81.8751 46.4008 81.9214 46.2962 81.937C46.1916 81.9527 46.0846 81.937 45.9889 81.892C45.8933 81.8474 45.8126 81.776 45.7565 81.6866C45.7005 81.5972 45.6714 81.4935 45.6729 81.388C45.5906 81.4546 45.4903 81.4951 45.3848 81.5044C45.2793 81.5137 45.1735 81.4913 45.0809 81.44C44.988 81.3905 44.9116 81.3148 44.8612 81.2225C44.8107 81.1301 44.7884 81.025 44.7969 80.92C44.7103 80.981 44.6077 81.0154 44.5019 81.019C44.396 81.0225 44.2914 80.9951 44.2009 80.94C44.0782 80.8654 43.9901 80.7453 43.9556 80.6059C43.9211 80.4666 43.9432 80.3192 44.0169 80.196C44.0923 80.0731 44.2131 79.9849 44.3531 79.9504C44.4931 79.916 44.6411 79.9381 44.7649 80.012C44.8498 80.0656 44.9187 80.1411 44.9644 80.2304C45.0102 80.3198 45.0311 80.4198 45.0249 80.52C45.1066 80.4613 45.2032 80.4268 45.3037 80.4204C45.4042 80.4141 45.5044 80.4361 45.5929 80.484C45.6814 80.5317 45.7551 80.6029 45.8059 80.6896C45.8567 80.7764 45.8826 80.8755 45.8809 80.976C45.9593 80.9134 46.0536 80.8739 46.1532 80.8619C46.2528 80.8499 46.3538 80.8658 46.4449 80.908C46.5359 80.95 46.6136 81.0162 46.6694 81.0995C46.7251 81.1828 46.7568 81.2799 46.7609 81.38C46.8363 81.3141 46.9283 81.27 47.027 81.2523C47.1257 81.2347 47.2272 81.2443 47.3209 81.28C47.4542 81.3335 47.5611 81.4375 47.618 81.5694C47.675 81.7013 47.6774 81.8503 47.6249 81.984C47.5853 82.0855 47.5161 82.1727 47.4261 82.234C47.3362 82.2954 47.2298 82.3282 47.1209 82.328C47.054 82.3273 46.9877 82.3151 46.9249 82.292Z" fill="white"/>
<path d="M43.6609 80.488C43.625 80.492 43.5888 80.492 43.5529 80.488C43.5183 80.4818 43.4847 80.4711 43.4529 80.456C43.4187 80.4449 43.3863 80.4287 43.3569 80.408L43.2769 80.34C43.251 80.3163 43.2282 80.2894 43.2089 80.26C43.2089 80.228 43.1729 80.196 43.1569 80.164C43.1444 80.1313 43.1337 80.0979 43.1249 80.064C43.1229 80.0281 43.1229 79.992 43.1249 79.956C43.1228 79.9214 43.1228 79.8867 43.1249 79.852C43.1337 79.8168 43.1444 79.7821 43.1569 79.748C43.1701 79.7152 43.1876 79.6843 43.2089 79.656C43.2291 79.6261 43.2519 79.598 43.2769 79.572L43.3569 79.504C43.3872 79.4849 43.4194 79.4688 43.4529 79.456L43.5529 79.424C43.6401 79.4083 43.7299 79.4135 43.8147 79.4393C43.8996 79.465 43.9771 79.5105 44.0409 79.572C44.0659 79.598 44.0887 79.6261 44.1089 79.656C44.1286 79.6853 44.146 79.7161 44.1609 79.748C44.1739 79.7816 44.1833 79.8165 44.1889 79.852C44.193 79.8866 44.193 79.9215 44.1889 79.956C44.1928 79.9919 44.1928 80.0281 44.1889 80.064C44.1833 80.0983 44.1739 80.1318 44.1609 80.164C44.1609 80.196 44.1289 80.228 44.1089 80.26C44.0896 80.2894 44.0668 80.3163 44.0409 80.34C43.938 80.4364 43.8019 80.4894 43.6609 80.488Z" fill="white"/>
<path d="M65.3331 77.74C65.0891 81.068 64.3491 86.668 62.5331 96.1L46.8771 95.636C47.2771 89.856 46.6651 85.548 45.2491 75.432C45.1888 74.9943 45.2172 74.549 45.3326 74.1225C45.4481 73.696 45.6482 73.2972 45.921 72.9497C46.1939 72.6022 46.5339 72.3131 46.9208 72.0998C47.3077 71.8865 47.7336 71.7532 48.1731 71.708C49.1771 71.604 50.3211 71.52 51.4691 71.496C53.8418 71.3977 56.2184 71.4685 58.5811 71.708C59.3411 71.8 60.1291 71.924 60.8811 72.052C62.1978 72.2763 63.3836 72.9834 64.2068 74.0352C65.0301 75.087 65.4317 76.408 65.3331 77.74Z" fill="#FF657E"/>
<path d="M60.5049 59.288C60.5409 59.596 60.7369 59.828 60.9369 59.8C61.1369 59.772 61.2729 59.508 61.2369 59.2C61.2009 58.892 61.0049 58.66 60.8049 58.684C60.6049 58.708 60.4689 58.968 60.5049 59.288Z" fill="#263238"/>
<path d="M60.7169 58.704L61.4329 58.4C61.4329 58.4 61.1209 59.024 60.7169 58.704Z" fill="#263238"/>
<path d="M60.6249 59.756C60.9841 60.4274 61.4336 61.0465 61.9609 61.596C61.8173 61.728 61.6466 61.8268 61.4607 61.8856C61.2747 61.9443 61.0782 61.9615 60.8849 61.936L60.6249 59.756Z" fill="#630F0F"/>
<path d="M60.5409 56.572C60.5567 56.5439 60.565 56.5122 60.565 56.48C60.565 56.4478 60.5567 56.4161 60.5409 56.388C60.5194 56.3448 60.4818 56.3117 60.4361 56.296C60.3905 56.2803 60.3405 56.2832 60.2969 56.304C60.0316 56.4219 59.7986 56.6019 59.6176 56.8289C59.4365 57.0559 59.3128 57.3231 59.2569 57.608C59.2536 57.6316 59.2549 57.6557 59.261 57.6789C59.267 57.702 59.2776 57.7237 59.2921 57.7427C59.3067 57.7617 59.3248 57.7776 59.3456 57.7895C59.3663 57.8014 59.3892 57.809 59.4129 57.812C59.4366 57.8153 59.4607 57.814 59.4838 57.8079C59.507 57.8019 59.5287 57.7913 59.5476 57.7768C59.5666 57.7622 59.5825 57.7441 59.5944 57.7233C59.6063 57.7026 59.614 57.6797 59.6169 57.656C59.6656 57.4314 59.7667 57.2216 59.912 57.0436C60.0573 56.8657 60.2427 56.7246 60.4529 56.632C60.4885 56.6232 60.5198 56.6019 60.5409 56.572Z" fill="#263238"/>
<path d="M49.849 59.208C50.537 62.972 50.749 64.58 52.897 66.3C56.129 68.884 60.6051 67.216 61.057 63.32C61.457 59.812 60.2571 54.244 56.3771 53.18C55.5195 52.9415 54.6152 52.9261 53.75 53.1353C52.8848 53.3444 52.0874 53.7712 51.4334 54.375C50.7794 54.9789 50.2906 55.7399 50.0133 56.5857C49.7361 57.4315 49.6795 58.3342 49.849 59.208Z" fill="#7F3E3B"/>
<path d="M58.145 60.264C58.777 62.332 60.289 67.332 56.945 68.448C54.333 69.32 46.145 70.016 45.205 65.22C44.233 60.264 48.653 56.732 48.653 56.732C48.653 56.732 45.149 53.86 47.393 50.732C50.285 46.7 57.213 48.98 59.265 51.828C61.269 54.6 58.145 60.264 58.145 60.264Z" fill="#263238"/>
<path d="M51.825 69.136C50.3163 69.1344 48.8222 68.841 47.425 68.272C45.569 67.472 44.485 66.236 44.289 64.696C43.633 59.468 48.497 56.596 48.549 56.568L48.741 56.9C48.693 56.928 44.049 59.676 44.673 64.648C44.897 66.412 46.377 67.4 47.581 67.916C49.957 68.94 53.025 68.932 53.769 68.388L53.997 68.7C53.621 68.984 52.805 69.136 51.825 69.136Z" fill="#263238"/>
<path d="M47.149 55.984C47.105 56.652 46.553 57.584 48.869 57.916C51.185 58.248 54.409 58.228 55.073 57.672C55.737 57.116 56.385 55.78 55.001 55.9C53.617 56.02 47.225 54.84 47.149 55.984Z" fill="#FF657E"/>
<path d="M56.8769 60.852C57.2549 61.5507 57.893 62.0724 58.6529 62.304C59.6609 62.6 60.1809 61.7 59.9129 60.74C59.6689 59.876 58.8489 58.68 57.8329 58.804C56.8169 58.928 56.4249 59.992 56.8769 60.852Z" fill="#7F3E3B"/>
<path d="M81.281 139.912L84.993 139.84L83.197 130.576L79.485 130.644L81.281 139.912Z" fill="#7F3E3B"/>
<path d="M84.0651 135.876C85.0451 139.576 88.657 143.476 88.657 143.476L83.505 142.164L81.2531 138.964L81.6531 138.116L84.0651 135.876Z" fill="#7F3E3B"/>
<path d="M80.4049 137.596C80.3944 138.029 80.4198 138.463 80.4809 138.892C80.7009 140.42 81.3729 144.492 81.3729 144.492H81.7249C81.5657 143.252 81.4709 142.005 81.4409 140.756C81.4889 139.752 82.1369 141.528 82.9209 142.536C83.7049 143.544 85.1169 144.46 87.4009 144.536C90.0729 144.62 91.1409 144.508 90.2849 143.84C89.4289 143.172 87.6049 142.74 87.6049 142.74C86.1336 142.11 84.8812 141.059 84.0049 139.72C83.1404 138.517 82.0043 137.534 80.6889 136.852C80.4649 136.864 80.4209 137.288 80.4049 137.596Z" fill="#263238"/>
<path d="M94.4291 127.324L99.1651 127.472L93.8651 119.592L90.5851 122.396L94.4291 127.324Z" fill="#7F3E3B"/>
<path d="M95.553 123.98C98.997 125.58 104.509 125.268 104.509 125.268L100.029 128.868L96.185 128.58L95.785 127.728L95.553 123.98Z" fill="#7F3E3B"/>
<path d="M94.825 128.064C95.1353 128.366 95.4697 128.641 95.825 128.888C97.081 129.764 100.477 132.008 100.477 132.008L100.693 131.732C99.6815 131.005 98.7082 130.227 97.777 129.4C97.065 128.672 98.773 129.38 99.997 129.452C101.221 129.524 102.765 129.052 104.225 127.292C105.941 125.248 106.513 124.332 105.497 124.548C104.481 124.764 103.033 125.9 103.033 125.9C101.673 126.628 100.115 126.9 98.589 126.676C97.1714 126.532 95.7405 126.753 94.433 127.32C94.325 127.52 94.593 127.832 94.825 128.064Z" fill="#263238"/>
<path d="M57.065 95.828C57.065 95.828 82.409 92.088 85.025 98.576C89.593 109.88 96.037 122.832 96.037 122.832L92.925 125.408C92.925 125.408 81.873 115.176 77.945 103.808C73.249 105.328 58.309 110.208 52.837 110.208C46.993 110.208 44.605 105.228 46.717 96.952C46.8095 96.5974 47.0164 96.2833 47.3057 96.0583C47.595 95.8334 47.9505 95.7102 48.317 95.708C52.025 95.744 57.065 95.828 57.065 95.828Z" fill="#263238"/>
<path d="M59.4928 99.1281C59.4928 99.1281 80.2928 98.504 80.4728 105.872C80.7608 118.06 84.1968 135.524 84.1968 135.524L80.4008 135.876C80.4008 135.876 74.1968 121.984 72.5568 110.088C65.1488 110.568 58.3168 110.236 52.8448 110.236C46.7128 110.236 46.2048 103.504 52.1728 95.6441C55.8248 95.6361 59.4928 99.1281 59.4928 99.1281Z" fill="#263238"/>
<path d="M46.6609 94.708L46.2249 96.088C46.1649 96.196 46.2889 96.308 46.4729 96.316L62.5849 96.792C62.7249 96.792 62.8449 96.732 62.8569 96.644L63.0409 95.248C63.0409 95.148 62.9329 95.064 62.7769 95.06L46.9249 94.588C46.8741 94.5824 46.8228 94.5906 46.7764 94.6118C46.7299 94.6329 46.69 94.6661 46.6609 94.708Z" fill="white"/>
<path d="M48.737 96.544H48.313C48.229 96.544 48.165 96.496 48.173 96.444L48.425 94.628C48.425 94.576 48.509 94.536 48.593 94.536H49.017C49.101 94.536 49.165 94.584 49.157 94.636L48.905 96.448C48.897 96.508 48.821 96.548 48.737 96.544Z" fill="#263238"/>
<path d="M61.381 96.924H60.957C60.873 96.924 60.809 96.876 60.817 96.824L61.073 95.008C61.073 94.956 61.153 94.916 61.237 94.916H61.661C61.749 94.916 61.809 94.964 61.805 95.016L61.549 96.832C61.541 96.888 61.469 96.924 61.381 96.924Z" fill="#263238"/>
<path d="M55.0609 96.732H54.6369C54.5489 96.732 54.4889 96.684 54.4969 96.632L54.7489 94.816C54.7489 94.764 54.8329 94.724 54.9169 94.724H55.3409C55.4249 94.724 55.4889 94.772 55.4809 94.824L55.2289 96.64C55.2209 96.696 55.1449 96.736 55.0609 96.732Z" fill="#263238"/>
<path d="M74.357 79.132H84.473C84.5482 79.1322 84.6223 79.1499 84.6896 79.1836C84.7568 79.2172 84.8154 79.2659 84.8607 79.326C84.906 79.386 84.9368 79.4557 84.9508 79.5296C84.9647 79.6035 84.9613 79.6796 84.941 79.752L81.157 92.732C81.1282 92.8326 81.0673 92.9211 80.9835 92.984C80.8997 93.0468 80.7977 93.0805 80.693 93.08H70.573C70.4976 93.0807 70.423 93.0637 70.3554 93.0303C70.2878 92.9969 70.229 92.948 70.1838 92.8876C70.1386 92.8272 70.1083 92.757 70.0953 92.6827C70.0823 92.6084 70.087 92.5321 70.109 92.46L73.889 79.48C73.9186 79.379 73.9803 79.2904 74.0647 79.2276C74.1492 79.1648 74.2518 79.1312 74.357 79.132Z" fill="#FF657E"/>
<path d="M74.5409 79.608L84.3769 79.84L80.4929 92.084L70.6569 91.848L74.5409 79.608Z" fill="#E0E0E0"/>
<path d="M74.233 79.488L84.069 79.528L80.425 91.844L70.589 91.804L74.233 79.488Z" fill="white"/>
<path d="M65.3609 79.744C65.3609 80.144 65.4209 80.616 65.4529 81.06C65.4849 81.504 65.5449 81.968 65.6049 82.42C65.7169 83.324 65.8662 84.2147 66.0529 85.092C66.2324 85.9473 66.4703 86.7893 66.7649 87.612C66.9129 88.012 67.0769 88.412 67.2529 88.764C67.3409 88.948 67.4369 89.12 67.5329 89.296L67.6809 89.54C67.8646 89.7071 68.0812 89.8338 68.3169 89.912C68.6914 90.0573 69.0766 90.1736 69.4689 90.26C70.3521 90.4464 71.2457 90.58 72.1449 90.66C73.9929 90.84 75.9249 90.928 77.8129 90.968L78.0049 92.884C76.039 93.274 74.0442 93.5001 72.0409 93.56C71.0005 93.5922 69.9591 93.5494 68.9249 93.432C68.3582 93.3626 67.7978 93.2489 67.2489 93.092C66.5471 92.9062 65.8944 92.569 65.3369 92.104C65.1502 91.9425 64.9812 91.7614 64.8329 91.564L64.5769 91.204C64.4129 90.964 64.2529 90.724 64.1169 90.48C63.8318 90.0043 63.5792 89.5098 63.3609 89C62.9338 88.0223 62.5886 87.0108 62.3289 85.976C62.0699 84.97 61.8709 83.9496 61.7329 82.92C61.6649 82.412 61.6129 81.9 61.5689 81.384C61.5249 80.868 61.4969 80.376 61.4889 79.784L65.3609 79.744Z" fill="#7F3E3B"/>
<path d="M64.045 73.844C66.565 76.216 65.957 82.396 65.957 82.396L61.133 83.24C61.133 83.24 58.153 78.808 59.201 76.952C60.289 75.016 62.685 72.56 64.045 73.844Z" fill="#FF657E"/>
<path d="M65.9569 82.94C65.883 82.9412 65.8095 82.9278 65.7408 82.9003C65.6721 82.8728 65.6096 82.8319 65.5569 82.78C65.5312 82.7546 65.5084 82.7264 65.4889 82.696C65.4706 82.6666 65.4545 82.6358 65.4409 82.604C65.4328 82.5657 65.4274 82.527 65.4249 82.488C65.4228 82.4533 65.4228 82.4186 65.4249 82.384C65.4224 82.3102 65.435 82.2367 65.4618 82.1679C65.4886 82.0992 65.5292 82.0366 65.5809 81.984C65.6071 81.9591 65.6352 81.9364 65.6649 81.916C65.6934 81.896 65.7243 81.8799 65.7569 81.868C65.7904 81.8537 65.8252 81.8429 65.8609 81.836C65.9396 81.8207 66.0206 81.8229 66.0982 81.8425C66.1759 81.8621 66.2482 81.8987 66.3101 81.9495C66.372 82.0003 66.4219 82.0642 66.4563 82.1365C66.4907 82.2088 66.5087 82.2879 66.5089 82.368C66.5131 82.4025 66.5131 82.4374 66.5089 82.472C66.5025 82.5078 66.4918 82.5427 66.4769 82.576C66.465 82.6086 66.4489 82.6395 66.4289 82.668C66.4095 82.6984 66.3867 82.7266 66.3609 82.752C66.3105 82.8099 66.2485 82.8565 66.1789 82.8889C66.1093 82.9213 66.0337 82.9387 65.9569 82.94Z" fill="white"/>
<path d="M61.5729 83.228C61.5607 83.0842 61.6061 82.9415 61.6991 82.8312C61.7921 82.721 61.9251 82.6522 62.0689 82.64C62.169 82.6307 62.2698 82.6497 62.3596 82.695C62.4495 82.7403 62.5248 82.8099 62.5769 82.896C62.6091 82.8007 62.6668 82.7161 62.7436 82.6513C62.8205 82.5864 62.9136 82.5438 63.0129 82.528C63.1127 82.5145 63.2143 82.5287 63.3067 82.5689C63.399 82.6091 63.4786 82.6738 63.5369 82.756C63.5596 82.6586 63.6091 82.5696 63.6798 82.4989C63.7505 82.4282 63.8395 82.3787 63.9369 82.356C64.0356 82.3353 64.1381 82.3427 64.2329 82.3774C64.3276 82.412 64.4107 82.4725 64.4729 82.552C64.4965 82.455 64.5462 82.3664 64.6168 82.2959C64.6873 82.2253 64.7759 82.1755 64.8729 82.152C64.9428 82.1335 65.0157 82.1292 65.0872 82.1395C65.1588 82.1497 65.2276 82.1742 65.2895 82.2115C65.3514 82.2488 65.4052 82.2981 65.4477 82.3566C65.4902 82.4151 65.5205 82.4815 65.5369 82.552C65.5548 82.6218 65.5586 82.6946 65.5481 82.7659C65.5377 82.8373 65.5131 82.9059 65.4759 82.9677C65.4386 83.0295 65.3895 83.0833 65.3313 83.1259C65.2731 83.1685 65.207 83.1991 65.1369 83.216C65.0347 83.2422 64.9272 83.2384 64.8272 83.2051C64.7271 83.1717 64.6388 83.1102 64.5729 83.028C64.5503 83.1315 64.4983 83.2262 64.4231 83.3007C64.3478 83.3753 64.2526 83.4264 64.1489 83.448C64.0451 83.4673 63.9379 83.4565 63.8401 83.4168C63.7422 83.3771 63.6578 83.3102 63.5969 83.224C63.5705 83.3269 63.5142 83.4198 63.4352 83.491C63.3563 83.5621 63.258 83.6084 63.1529 83.624C63.0481 83.639 62.9412 83.6232 62.8453 83.5785C62.7494 83.5337 62.6686 83.4619 62.6129 83.372C62.5786 83.4719 62.5162 83.5598 62.4332 83.6251C62.3502 83.6903 62.25 83.7302 62.1449 83.74H62.1009C61.965 83.7353 61.8358 83.6803 61.7382 83.5857C61.6406 83.4911 61.5817 83.3636 61.5729 83.228Z" fill="white"/>
<path d="M61.133 83.784C61.0971 83.788 61.0609 83.788 61.025 83.784L60.925 83.7521C60.8919 83.7385 60.8598 83.7224 60.829 83.7041L60.749 83.6361C60.7221 83.6118 60.6992 83.5834 60.681 83.5521C60.6613 83.5228 60.6439 83.492 60.629 83.4601C60.616 83.4265 60.6066 83.3916 60.601 83.3561C60.5969 83.3215 60.5969 83.2866 60.601 83.2521C60.5971 83.2162 60.5971 83.18 60.601 83.1441C60.6066 83.1098 60.616 83.0763 60.629 83.0441C60.629 83.0121 60.661 82.9801 60.681 82.9481C60.7003 82.9187 60.7231 82.8918 60.749 82.8681L60.829 82.8001C60.8589 82.7801 60.8911 82.764 60.925 82.7521C60.9568 82.737 60.9904 82.7263 61.025 82.72C61.1122 82.7022 61.2025 82.7065 61.2877 82.7323C61.3729 82.7581 61.4504 82.8048 61.513 82.8681C61.5389 82.8918 61.5617 82.9187 61.581 82.9481C61.601 82.9801 61.617 83.0121 61.633 83.0441C61.6455 83.0768 61.6562 83.1102 61.665 83.1441C61.667 83.18 61.667 83.2161 61.665 83.2521C61.6672 83.2867 61.6672 83.3214 61.665 83.3561C61.6562 83.3913 61.6455 83.426 61.633 83.4601C61.6181 83.492 61.6007 83.5228 61.581 83.5521C61.5618 83.5827 61.539 83.6109 61.513 83.6361C61.4101 83.7324 61.274 83.7854 61.133 83.784Z" fill="white"/>
<path d="M82.3049 88.976L80.6329 88.864C80.2165 88.8347 79.8024 88.946 79.4569 89.18L76.3889 91.24L76.3649 92.54C77.3489 93.684 79.5249 92.66 79.5249 92.66L81.5449 92.592C81.7058 92.5879 81.8618 92.5353 81.9924 92.4411C82.123 92.3469 82.2222 92.2154 82.2769 92.064L83.0089 90.064C83.0546 89.9461 83.0717 89.819 83.0587 89.6932C83.0458 89.5674 83.0033 89.4464 82.9346 89.3403C82.8659 89.2341 82.773 89.1457 82.6635 89.0824C82.5541 89.0191 82.4312 88.9826 82.3049 88.976Z" fill="#7F3E3B"/>
<path d="M47.661 145.852H48.113C48.2068 145.843 48.2943 145.801 48.3601 145.734C48.426 145.666 48.466 145.578 48.473 145.484L51.273 126.108H49.157L47.313 145.356C47.3021 145.412 47.3026 145.469 47.3143 145.524C47.3261 145.579 47.3489 145.632 47.3814 145.678C47.4139 145.725 47.4554 145.764 47.5035 145.794C47.5515 145.824 47.6051 145.843 47.661 145.852Z" fill="#FF657E"/>
<path opacity="0.3" d="M47.661 145.852H48.113C48.2068 145.843 48.2943 145.801 48.3601 145.734C48.426 145.666 48.466 145.578 48.473 145.484L51.273 126.108H49.157L47.313 145.356C47.3021 145.412 47.3026 145.469 47.3143 145.524C47.3261 145.579 47.3489 145.632 47.3814 145.678C47.4139 145.725 47.4554 145.764 47.5035 145.794C47.5515 145.824 47.6051 145.843 47.661 145.852Z" fill="black"/>
<path d="M41.861 145.852H42.313C42.4067 145.843 42.4942 145.801 42.5601 145.734C42.6259 145.666 42.6659 145.578 42.673 145.484L45.473 126.108H43.357L41.513 145.356C41.5021 145.412 41.5025 145.469 41.5143 145.524C41.526 145.579 41.5488 145.632 41.5813 145.678C41.6138 145.725 41.6553 145.764 41.7034 145.794C41.7515 145.824 41.8051 145.843 41.861 145.852Z" fill="#FF657E"/>
<path opacity="0.3" d="M41.861 145.852H42.313C42.4067 145.843 42.4942 145.801 42.5601 145.734C42.6259 145.666 42.6659 145.578 42.673 145.484L45.473 126.108H43.357L41.513 145.356C41.5021 145.412 41.5025 145.469 41.5143 145.524C41.526 145.579 41.5488 145.632 41.5813 145.678C41.6138 145.725 41.6553 145.764 41.7034 145.794C41.7515 145.824 41.8051 145.843 41.861 145.852Z" fill="black"/>
<path d="M74.181 145.852H73.725C73.632 145.842 73.5454 145.8 73.4804 145.732C73.4153 145.665 73.3759 145.577 73.369 145.484L70.569 126.108H72.681L74.525 145.356C74.5359 145.411 74.5356 145.468 74.5241 145.523C74.5126 145.578 74.4902 145.631 74.4581 145.677C74.426 145.723 74.3849 145.763 74.3373 145.793C74.2897 145.823 74.2365 145.843 74.181 145.852Z" fill="#FF657E"/>
<path opacity="0.3" d="M74.181 145.852H73.725C73.632 145.842 73.5454 145.8 73.4804 145.732C73.4153 145.665 73.3759 145.577 73.369 145.484L70.569 126.108H72.681L74.525 145.356C74.5359 145.411 74.5356 145.468 74.5241 145.523C74.5126 145.578 74.4902 145.631 74.4581 145.677C74.426 145.723 74.3849 145.763 74.3373 145.793C74.2897 145.823 74.2365 145.843 74.181 145.852Z" fill="black"/>
<path d="M79.981 145.852H79.525C79.432 145.842 79.3455 145.8 79.2804 145.732C79.2154 145.665 79.176 145.577 79.169 145.484L76.369 126.108H78.481L80.325 145.356C80.336 145.411 80.3357 145.468 80.3242 145.523C80.3127 145.578 80.2902 145.631 80.2581 145.677C80.226 145.723 80.185 145.763 80.1374 145.793C80.0898 145.823 80.0366 145.843 79.981 145.852Z" fill="#FF657E"/>
<path opacity="0.3" d="M79.981 145.852H79.525C79.432 145.842 79.3455 145.8 79.2804 145.732C79.2154 145.665 79.176 145.577 79.169 145.484L76.369 126.108H78.481L80.325 145.356C80.336 145.411 80.3357 145.468 80.3242 145.523C80.3127 145.578 80.2902 145.631 80.2581 145.677C80.226 145.723 80.185 145.763 80.1374 145.793C80.0898 145.823 80.0366 145.843 79.981 145.852Z" fill="black"/>
<path d="M87.4969 103.14H73.2569C70.7289 94.364 61.6569 87.444 52.3289 87.444H47.7049C37.9609 87.444 31.6729 95.044 33.6569 104.38C34.0326 106.1 34.6423 107.761 35.4689 109.316L37.7169 122.916C38.0049 124.672 39.4089 126.096 40.8449 126.096H83.7089C85.1449 126.096 86.5489 124.672 86.8369 122.916L89.5769 106.308C89.8689 104.564 88.9369 103.14 87.4969 103.14Z" fill="#FF657E"/>
<path opacity="0.5" d="M87.4969 103.14H73.2569C70.7289 94.364 61.6569 87.444 52.3289 87.444H47.7049C37.9609 87.444 31.6729 95.044 33.6569 104.38C34.0326 106.1 34.6423 107.761 35.4689 109.316L37.7169 122.916C38.0049 124.672 39.4089 126.096 40.8449 126.096H83.7089C85.1449 126.096 86.5489 124.672 86.8369 122.916L89.5769 106.308C89.8689 104.564 88.9369 103.14 87.4969 103.14Z" fill="white"/>
<path d="M85.6406 39.348H82.3726V39.748H85.6406V39.348Z" fill="#FF657E"/>
<path d="M70.3526 44.06H69.9526V42.088C69.9537 41.3599 70.2437 40.6619 70.7589 40.1474C71.2742 39.633 71.9725 39.344 72.7006 39.344H79.9926V39.744H72.7006C72.0786 39.744 71.482 39.9908 71.0418 40.4303C70.6015 40.8698 70.3537 41.466 70.3526 42.088V44.06Z" fill="#FF657E"/>
<path d="M72.7007 40.7481H109.169C109.525 40.7481 109.867 40.8897 110.119 41.1417C110.371 41.3938 110.513 41.7356 110.513 42.0921V56.3921C110.513 56.7496 110.371 57.0924 110.118 57.3452C109.865 57.598 109.522 57.7401 109.165 57.7401H72.7007C72.3431 57.7401 72.0003 57.598 71.7475 57.3452C71.4947 57.0924 71.3527 56.7496 71.3527 56.3921V42.0881C71.3532 41.9116 71.3885 41.7369 71.4565 41.574C71.5245 41.4112 71.624 41.2633 71.7491 41.1389C71.8743 41.0144 72.0228 40.9159 72.186 40.8488C72.3493 40.7818 72.5242 40.7475 72.7007 40.7481Z" fill="#FF657E"/>
<path d="M107.445 50.148H74.4246C74.1849 50.148 73.9549 50.0527 73.7854 49.8832C73.6159 49.7137 73.5206 49.4837 73.5206 49.244C73.5206 49.0042 73.6159 48.7743 73.7854 48.6047C73.9549 48.4352 74.1849 48.34 74.4246 48.34H107.445C107.684 48.34 107.914 48.4352 108.084 48.6047C108.253 48.7743 108.349 49.0042 108.349 49.244C108.349 49.4837 108.253 49.7137 108.084 49.8832C107.914 50.0527 107.684 50.148 107.445 50.148Z" fill="white"/>
<path d="M100.377 53.904H74.4247C74.1849 53.904 73.955 53.8088 73.7854 53.6392C73.6159 53.4697 73.5207 53.2398 73.5207 53C73.5196 52.8806 73.5422 52.7622 73.5872 52.6516C73.6321 52.541 73.6985 52.4404 73.7826 52.3556C73.8666 52.2708 73.9667 52.2035 74.0769 52.1576C74.1871 52.1117 74.3053 52.088 74.4247 52.088H100.377C100.616 52.088 100.846 52.1833 101.016 52.3528C101.185 52.5223 101.281 52.7523 101.281 52.992C101.282 53.1114 101.259 53.2298 101.214 53.3404C101.169 53.451 101.103 53.5516 101.019 53.6364C100.935 53.7212 100.835 53.7885 100.724 53.8344C100.614 53.8804 100.496 53.904 100.377 53.904Z" fill="white"/>
<path d="M85.5606 46.392H74.4246C74.1849 46.392 73.9549 46.2967 73.7854 46.1272C73.6159 45.9577 73.5206 45.7277 73.5206 45.488C73.5206 45.2482 73.6159 45.0183 73.7854 44.8488C73.9549 44.6792 74.1849 44.584 74.4246 44.584H85.5606C85.8004 44.584 86.0303 44.6792 86.1999 44.8488C86.3694 45.0183 86.4646 45.2482 86.4646 45.488C86.4646 45.7277 86.3694 45.9577 86.1999 46.1272C86.0303 46.2967 85.8004 46.392 85.5606 46.392Z" fill="white"/>
<path d="M100.321 46.392H89.1846C88.9449 46.392 88.7149 46.2967 88.5454 46.1272C88.3759 45.9577 88.2806 45.7277 88.2806 45.488C88.2806 45.2482 88.3759 45.0183 88.5454 44.8488C88.7149 44.6792 88.9449 44.584 89.1846 44.584H100.321C100.56 44.584 100.79 44.6792 100.96 44.8488C101.129 45.0183 101.225 45.2482 101.225 45.488C101.225 45.7277 101.129 45.9577 100.96 46.1272C100.79 46.2967 100.56 46.392 100.321 46.392Z" fill="white"/>
<path d="M73.5206 56.656V60.988C73.5206 61.1737 73.5723 61.3557 73.67 61.5137C73.7676 61.6717 73.9073 61.7994 74.0734 61.8824C74.2395 61.9655 74.4255 62.0006 74.6104 61.9839C74.7954 61.9673 74.9721 61.8994 75.1206 61.788L81.7606 56.652L73.5206 56.656Z" fill="#FF657E"/>
<path d="M129.749 19.288H93.2807C93.1037 19.288 92.9284 19.3228 92.7649 19.3906C92.6013 19.4583 92.4527 19.5576 92.3276 19.6828C92.2024 19.808 92.1031 19.9566 92.0353 20.1201C91.9676 20.2837 91.9327 20.4589 91.9327 20.636V34.936C91.9327 35.2935 92.0748 35.6363 92.3276 35.8891C92.5804 36.1419 92.9232 36.284 93.2807 36.284H122.081L127.305 40.324C127.453 40.4354 127.63 40.5032 127.815 40.5199C128 40.5366 128.186 40.5014 128.352 40.4184C128.518 40.3353 128.658 40.2077 128.755 40.0497C128.853 39.8917 128.905 39.7097 128.905 39.524V36.276H129.725C130.082 36.276 130.425 36.1339 130.678 35.8811C130.931 35.6283 131.073 35.2855 131.073 34.928V20.636C131.073 20.2826 130.934 19.9433 130.686 19.6912C130.439 19.4391 130.102 19.2943 129.749 19.288Z" fill="white"/>
<path d="M127.925 40.736C127.659 40.7343 127.4 40.6458 127.189 40.484L122.021 36.484H93.2808C92.8706 36.483 92.4774 36.3195 92.1874 36.0294C91.8973 35.7394 91.7338 35.3462 91.7328 34.936V20.636C91.7338 20.2258 91.8973 19.8327 92.1874 19.5426C92.4774 19.2525 92.8706 19.0891 93.2808 19.088H129.749C130.159 19.0891 130.552 19.2525 130.842 19.5426C131.132 19.8327 131.296 20.2258 131.297 20.636V34.936C131.296 35.3462 131.132 35.7394 130.842 36.0294C130.552 36.3195 130.159 36.483 129.749 36.484H129.129V39.532C129.129 39.8503 129.002 40.1555 128.777 40.3805C128.552 40.6056 128.247 40.732 127.929 40.732L127.925 40.736ZM93.2808 19.488C92.9766 19.4891 92.6853 19.6104 92.4702 19.8254C92.2551 20.0405 92.1338 20.3319 92.1328 20.636V34.936C92.1338 35.2402 92.2551 35.5315 92.4702 35.7466C92.6853 35.9617 92.9766 36.083 93.2808 36.084H122.161L127.425 40.164C127.543 40.2574 127.685 40.3156 127.835 40.3317C127.985 40.3479 128.136 40.3214 128.271 40.2554C128.407 40.1894 128.521 40.0864 128.6 39.9585C128.68 39.8305 128.722 39.6827 128.721 39.532V36.088H129.741C130.045 36.087 130.336 35.9657 130.551 35.7506C130.766 35.5355 130.888 35.2442 130.889 34.94V20.636C130.888 20.3319 130.766 20.0405 130.551 19.8254C130.336 19.6104 130.045 19.4891 129.741 19.488H93.2808Z" fill="#FF657E"/>
<path d="M110.737 28.6921H128.025C128.143 28.6921 128.261 28.6687 128.371 28.6232C128.48 28.5778 128.58 28.5112 128.664 28.4273C128.748 28.3433 128.815 28.2437 128.86 28.134C128.905 28.0243 128.929 27.9068 128.929 27.7881C128.927 27.5493 128.831 27.321 128.661 27.1526C128.492 26.9841 128.264 26.8891 128.025 26.8881H110.737C110.497 26.8891 110.267 26.9853 110.097 27.1554C109.928 27.3256 109.833 27.5559 109.833 27.7961C109.835 28.0344 109.931 28.2623 110.1 28.4301C110.27 28.5979 110.498 28.6921 110.737 28.6921Z" fill="#FF657E"/>
<path d="M98.6647 28.6921H107.225C107.343 28.6921 107.461 28.6687 107.571 28.6232C107.68 28.5778 107.78 28.5112 107.864 28.4273C107.948 28.3433 108.015 28.2437 108.06 28.134C108.105 28.0243 108.129 27.9068 108.129 27.7881C108.127 27.5493 108.031 27.321 107.861 27.1526C107.692 26.9841 107.463 26.8891 107.225 26.8881H98.6647C98.4246 26.8891 98.1947 26.9853 98.0253 27.1554C97.8559 27.3256 97.7607 27.5559 97.7607 27.7961C97.7629 28.0344 97.859 28.2623 98.0283 28.4301C98.1976 28.5979 98.4264 28.6921 98.6647 28.6921Z" fill="#FF657E"/>
<path d="M102.069 32.448H128.025C128.524 32.448 128.929 32.0433 128.929 31.544C128.929 31.0447 128.524 30.64 128.025 30.64L102.069 30.64C101.569 30.64 101.165 31.0447 101.165 31.544C101.165 32.0433 101.569 32.448 102.069 32.448Z" fill="#FF657E"/>
<path d="M95.0246 24.936H128.025C128.264 24.936 128.494 24.8408 128.664 24.6712C128.833 24.5017 128.929 24.2718 128.929 24.032C128.929 23.7919 128.833 23.5616 128.664 23.3914C128.495 23.2212 128.265 23.1251 128.025 23.124H95.0246C94.7845 23.1251 94.5546 23.2212 94.3851 23.3914C94.2157 23.5616 94.1206 23.7919 94.1206 24.032C94.1206 24.2718 94.2158 24.5017 94.3854 24.6712C94.5549 24.8408 94.7848 24.936 95.0246 24.936Z" fill="#FF657E"/>
</svg>
